<svg width="60" height="60" viewBox="0 0 60 60" fill="none" xmlns="http://www.w3.org/2000/svg">
<path d="M54.5137 25.1038H52.5V25H30V35H44.1288C42.0675 40.8213 36.5287 45 30 45C21.7162 45 15 38.2837 15 30C15 21.7162 21.7162 15 30 15C33.8237 15 37.3025 16.4425 39.9513 18.7987L47.0225 11.7275C42.5575 7.56625 36.585 5 30 5C16.1938 5 5 16.1938 5 30C5 43.8063 16.1938 55 30 55C43.8063 55 55 43.8063 55 30C55 28.3237 54.8275 26.6875 54.5137 25.1038Z" fill="#FFC107"/>
<path d="M7.88257 18.3638L16.0963 24.3875C18.3188 18.885 23.7013 15 30.0001 15C33.8238 15 37.3026 16.4425 39.9513 18.7987L47.0226 11.7275C42.5576 7.56625 36.5851 5 30.0001 5C20.3976 5 12.0701 10.4212 7.88257 18.3638Z" fill="#FF3D00"/>
<path d="M30 55C36.4575 55 42.325 52.5288 46.7613 48.51L39.0238 41.9625C36.4295 43.9355 33.2593 45.0026 30 45C23.4975 45 17.9763 40.8538 15.8963 35.0675L7.74377 41.3488C11.8813 49.445 20.2838 55 30 55Z" fill="#4CAF50"/>
<path d="M54.5138 25.1038H52.5V25H30V35H44.1288C43.1428 37.7705 41.3667 40.1915 39.02 41.9637L39.0238 41.9612L46.7612 48.5087C46.2138 49.0062 55 42.5 55 30C55 28.3237 54.8275 26.6875 54.5138 25.1038Z" fill="#1976D2"/>
</svg>
