<svg width="1350" height="450" viewBox="0 0 1350 450" fill="none" xmlns="http://www.w3.org/2000/svg">
<rect width="1350" height="450" fill="#7289DA"/>
<path d="M185 0C185 24.2945 180.215 48.3512 170.918 70.7964C161.621 93.2417 147.994 113.636 130.815 130.815C113.636 147.994 93.2417 161.621 70.7964 170.918C48.3512 180.215 24.2945 185 0 185L8.08661e-06 0H185Z" fill="white" fill-opacity="0.2"/>
<path d="M1165 450C1165 425.705 1169.79 401.649 1179.08 379.204C1188.38 356.758 1202.01 336.364 1219.19 319.185C1236.36 302.006 1256.76 288.379 1279.2 279.082C1301.65 269.785 1325.71 265 1350 265L1350 450H1165Z" fill="white" fill-opacity="0.2"/>
</svg>
