<svg width="1350" height="531" viewBox="0 0 1350 531" fill="none" xmlns="http://www.w3.org/2000/svg">
<rect y="0.666992" width="1350" height="530" fill="#3B72FF"/>
<path d="M185 0.666992C185 29.2806 180.215 57.614 170.918 84.0495C161.62 110.485 147.993 134.505 130.815 154.738C113.636 174.971 93.2416 191.02 70.7964 201.97C48.3512 212.92 24.2945 218.556 0 218.556L8.0866e-06 0.666992H185Z" fill="white" fill-opacity="0.2"/>
<path d="M1165 530.666C1165 502.053 1169.79 473.719 1179.08 447.284C1188.38 420.848 1202.01 396.828 1219.19 376.596C1236.36 356.363 1256.76 340.313 1279.2 329.363C1301.65 318.413 1325.71 312.777 1350 312.777L1350 530.666H1165Z" fill="white" fill-opacity="0.2"/>
</svg>
