<svg id="Capa_1" enable-background="new 0 0 512 512" height="512" viewBox="0 0 512 512" width="512" xmlns="http://www.w3.org/2000/svg"><g><path d="m183.387 512h-183.387v-64.593c0-24.447 9.902-46.128 27.884-61.048 16.471-13.667 39.132-21.193 63.809-21.193 24.676 0 47.337 7.526 63.809 21.193 17.982 14.92 27.886 36.601 27.886 61.048v64.593z" fill="#50c5ff"/><path d="m183.387 447.407c0-24.447-9.903-46.128-27.886-61.048-16.472-13.666-39.132-21.193-63.808-21.193v146.834h91.693v-64.593z" fill="#488aff"/><path d="m91.693 395.165c-32.641 0-59.195-26.555-59.195-59.195s26.555-59.195 59.195-59.195c32.641 0 59.195 26.555 59.195 59.195s-26.554 59.195-59.195 59.195z" fill="#ffb19e"/><path d="m91.693 276.775v118.391c32.641 0 59.195-26.555 59.195-59.195s-26.554-59.196-59.195-59.196z" fill="#e59788"/><path d="m512 512h-183.387v-64.593c0-24.447 9.902-46.128 27.884-61.048 16.471-13.667 39.132-21.193 63.809-21.193 24.676 0 47.337 7.526 63.809 21.193 17.982 14.92 27.885 36.601 27.885 61.048z" fill="#50c5ff"/><path d="m512 447.407c0-24.447-9.903-46.128-27.886-61.048-16.471-13.666-39.132-21.193-63.808-21.193v146.834h91.694z" fill="#488aff"/><path d="m420.307 395.165c-32.641 0-59.195-26.555-59.195-59.195s26.555-59.195 59.195-59.195c32.641 0 59.195 26.555 59.195 59.195s-26.555 59.195-59.195 59.195z" fill="#ffb19e"/><path d="m420.307 276.775v118.391c32.641 0 59.195-26.555 59.195-59.195s-26.555-59.196-59.195-59.196z" fill="#e59788"/><path d="m256 150.081 58.811 30.919-11.232-65.487 47.579-46.378-65.752-9.553-29.406-59.582-29.406 59.582-65.752 9.553 47.579 46.378-11.232 65.486z" fill="#ffb725"/><path d="m351.158 69.135-65.752-9.553-29.406-59.582v150.081l58.811 30.919-11.232-65.487z" fill="#ff9000"/><path d="m401.308 512h-290.616v-15.935c0-38.918 15.072-71.995 43.587-95.655 26.107-21.662 62.231-33.592 101.719-33.592 39.486 0 75.611 11.93 101.72 33.592 28.517 23.661 43.59 56.738 43.59 95.655z" fill="#48568c"/><path d="m401.308 496.065c0-38.917-15.073-71.995-43.59-95.655-26.108-21.662-62.232-33.592-101.718-33.592v145.182h145.308z" fill="#2c3b73"/><path d="m255.999 396.818c-49.676 0-90.091-40.415-90.091-90.091s40.415-90.091 90.091-90.091c49.678 0 90.093 40.415 90.093 90.091s-40.415 90.091-90.093 90.091z" fill="#f9c4b9"/><path d="m346.092 306.727c0-49.676-40.415-90.09-90.092-90.091v180.182c49.677-.001 90.092-40.415 90.092-90.091z" fill="#ffb19e"/><path d="m138.438 226.686-18.019-50.759 31.599-43.617-53.839 1.452-31.719-43.531-15.26 51.656-51.2 16.712 44.413 30.474.075 53.861 42.705-32.821z" fill="#ffb725"/><path d="m138.438 226.686-18.019-50.759 31.599-43.617-53.839 1.452-31.717-43.528 20.731 119.879z" fill="#ff9000"/><path d="m373.562 226.686 18.019-50.759-31.599-43.617 53.839 1.452 31.719-43.531 15.26 51.656 51.2 16.712-44.413 30.474-.075 53.861-42.705-32.821z" fill="#ff9000"/><path d="m373.562 226.686 18.019-50.759-31.599-43.617 53.839 1.452 31.717-43.528-20.731 119.879z" fill="#ffb725"/></g></svg>