<svg id="Capa_1" enable-background="new 0 0 512 512" height="512" viewBox="0 0 512 512" width="512" xmlns="http://www.w3.org/2000/svg"><circle cx="256" cy="256" fill="#e2dfe2" r="151.524"/><path d="m353.677 140.17c22.266 26.377 35.695 60.456 35.695 97.677 0 83.685-67.84 151.524-151.524 151.524-37.221 0-71.3-13.429-97.677-35.695 27.795 32.927 69.366 53.847 115.83 53.847 83.685 0 151.524-67.84 151.524-151.524-.001-46.463-20.921-88.034-53.848-115.829z" fill="#d3ced5"/><path d="m308.528 282.264h-52.528-52.528c-22.316 0-40.407 18.091-40.407 40.407v53.007c25.662 19.957 57.909 31.847 92.935 31.847s67.272-11.89 92.935-31.847v-53.007c0-22.316-18.091-40.407-40.407-40.407z" fill="#a2f4c1"/><path d="m348.935 375.677v-53.007c0-22.316-18.091-40.406-40.406-40.406h-21.211c22.315.001 40.404 18.092 40.404 40.406v31.989c0 3.291-1.61 6.383-4.324 8.244-24.345 16.692-53.802 26.468-85.55 26.468-27.2 0-52.718-7.178-74.782-19.729v6.034c25.662 19.957 57.909 31.847 92.935 31.847 35.025.001 67.272-11.889 92.934-31.846z" fill="#86f1a7"/><path d="m235.797 254h40.407v28.264h-40.407z" fill="#f1b986"/><path d="m215.593 181.146v40.406c0 22.316 18.091 40.407 40.407 40.407s40.406-18.091 40.406-40.407v-40.406z" fill="#f1d0a5"/><g fill="#665e66"><path d="m296.406 181.146c0-16.737-13.568-30.305-30.305-30.305h-20.203c-16.737 0-30.305 13.568-30.305 30.305v20.203c19.842 0 36.654-3.182 49.724-7.02 2.679-.787 5.541-.341 7.951 1.069 10.659 6.24 23.138 5.951 23.138 5.951.19.19 0-20.203 0-20.203z"/><path d="m195.97 395.15v-52.28c0-4.14 3.36-7.5 7.5-7.5s7.5 3.36 7.5 7.5v57.84z"/><path d="m301.03 400.71v-57.84c0-4.14 3.36-7.5 7.5-7.5s7.5 3.36 7.5 7.5v52.28z"/><path d="m256 449.37c-43.374 0-86.232-8.33-123.942-24.09-3.822-1.597-5.625-5.99-4.028-9.812s5.991-5.627 9.812-4.028c35.894 15.001 76.752 22.93 118.158 22.93s82.264-7.929 118.158-22.93c3.821-1.596 8.215.207 9.812 4.028s-.206 8.215-4.028 9.812c-37.71 15.76-80.568 24.09-123.942 24.09z"/><path d="m378.287 101.672c-.977 0-1.969-.192-2.925-.598-36.167-15.337-77.441-23.444-119.362-23.444s-83.195 8.107-119.362 23.444c-3.813 1.618-8.216-.162-9.833-3.977-1.617-3.813.163-8.215 3.977-9.832 38.003-16.117 81.302-24.635 125.218-24.635s87.215 8.519 125.218 24.636c3.813 1.617 5.594 6.02 3.977 9.832-1.212 2.858-3.988 4.574-6.908 4.574z"/><path d="m82.184 396.351c-1.538 0-3.089-.472-4.425-1.45-24.242-17.751-43.319-38.57-56.702-61.879-13.973-24.336-21.057-50.25-21.057-77.022 0-52.387 27.205-101.412 76.603-138.044 3.327-2.466 8.024-1.771 10.492 1.557s1.77 8.024-1.557 10.492c-45.487 33.731-70.538 78.477-70.538 125.995 0 47.947 25.436 92.979 71.621 126.799 3.342 2.447 4.067 7.14 1.62 10.481-1.469 2.007-3.748 3.071-6.057 3.071z"/><path d="m429.816 396.351c-2.31 0-4.588-1.063-6.057-3.07-2.447-3.342-1.722-8.034 1.62-10.481 46.185-33.821 71.621-78.853 71.621-126.8 0-47.518-25.051-92.264-70.537-125.995-3.327-2.468-4.024-7.165-1.557-10.492 2.468-3.326 7.166-4.024 10.492-1.557 49.397 36.632 76.602 85.657 76.602 138.044 0 26.772-7.084 52.686-21.057 77.021-13.383 23.309-32.46 44.128-56.702 61.879-1.336.979-2.887 1.451-4.425 1.451z"/><path d="m256 512c-52.387 0-101.412-27.205-138.044-76.603-2.467-3.327-1.77-8.024 1.557-10.492 3.327-2.466 8.024-1.77 10.492 1.557 33.731 45.487 78.477 70.538 125.995 70.538s92.264-25.051 125.996-70.538c2.468-3.326 7.166-4.024 10.492-1.557 3.327 2.468 4.024 7.165 1.557 10.492-36.633 49.398-85.658 76.603-138.045 76.603z"/><path d="m388.856 89.691c-2.31 0-4.588-1.063-6.057-3.07-33.82-46.185-78.851-71.621-126.799-71.621s-92.979 25.436-126.799 71.621c-2.447 3.344-7.141 4.068-10.482 1.62-3.342-2.446-4.067-7.14-1.62-10.481 17.751-24.242 38.571-43.32 61.879-56.703 24.336-13.972 50.25-21.057 77.022-21.057s52.686 7.085 77.022 21.057c23.309 13.383 44.128 32.461 61.879 56.703 2.447 3.342 1.722 8.035-1.62 10.481-1.336.979-2.887 1.449-4.425 1.45z"/><path d="m94.173 385.792c-2.92 0-5.696-1.716-6.908-4.573-16.117-38.002-24.635-81.302-24.635-125.219 0-43.374 8.33-86.232 24.09-123.941 1.598-3.822 5.99-5.626 9.812-4.028s5.625 5.99 4.028 9.813c-15.001 35.891-22.93 76.75-22.93 118.156 0 41.923 8.107 83.197 23.445 119.361 1.617 3.813-.163 8.216-3.977 9.833-.955.406-1.948.598-2.925.598z"/><path d="m417.827 385.792c-.977 0-1.969-.191-2.925-.598-3.813-1.617-5.594-6.02-3.977-9.833 15.338-36.164 23.445-77.438 23.445-119.361 0-41.406-7.929-82.265-22.93-118.157-1.597-3.822.206-8.215 4.028-9.813 3.822-1.596 8.215.206 9.812 4.028 15.76 37.709 24.09 80.567 24.09 123.941 0 43.917-8.519 87.217-24.635 125.219-1.212 2.858-3.988 4.574-6.908 4.574z"/></g><path d="m106.496 69.701c-20.846 0-37.805 16.959-37.805 37.805s16.959 37.806 37.805 37.806 37.805-16.96 37.805-37.806-16.959-37.805-37.805-37.805z" fill="#e27a66"/><path d="m404.494 367.699c-20.846 0-37.805 16.959-37.805 37.805s16.959 37.806 37.805 37.806 37.805-16.96 37.805-37.806-16.96-37.805-37.805-37.805z" fill="#90d8f9"/><path d="m107.506 367.699c-20.846 0-37.805 16.959-37.805 37.805s16.959 37.806 37.805 37.806 37.805-16.96 37.805-37.806-16.959-37.805-37.805-37.805z" fill="#f4dd45"/><path d="m405.504 69.701c-20.846 0-37.805 16.959-37.805 37.805s16.959 37.806 37.805 37.806 37.805-16.96 37.805-37.806-16.959-37.805-37.805-37.805z" fill="#aad540"/></svg>