<svg width="438" height="416" viewBox="0 0 438 416" fill="none" xmlns="http://www.w3.org/2000/svg">
<path d="M434.158 169.242C433.349 164.664 431.527 160.325 428.824 156.543C426.122 152.76 422.607 149.63 418.539 147.381L378.455 125.129C375.884 120.144 373.081 115.281 370.056 110.557L370.828 64.6739C370.919 60.0312 369.969 55.4271 368.049 51.1991C366.128 46.9712 363.286 43.2267 359.73 40.2403C340.012 23.633 317.503 10.6576 293.25 1.91806C288.88 0.328895 284.211 -0.262961 279.584 0.185828C274.956 0.634616 270.488 2.11269 266.505 4.51181L227.193 28.1017C221.59 27.8348 215.977 27.8302 210.373 28.088L171.025 4.47861C167.05 2.07789 162.587 0.597791 157.965 0.146936C153.343 -0.30392 148.678 0.285913 144.314 1.87314C120.072 10.6459 97.58 23.6524 77.8844 40.2872C74.324 43.2764 71.4772 47.0241 69.5526 51.2558C67.628 55.4876 66.6743 60.0962 66.7613 64.7442L67.5328 110.584C64.5008 115.304 61.6905 120.163 59.1109 125.145L18.9938 147.414C14.9194 149.667 11.4012 152.804 8.69708 156.594C5.993 160.384 4.1717 164.731 3.3668 169.317C-1.14382 194.675 -1.122 220.632 3.43125 245.983C4.24005 250.56 6.06243 254.9 8.76494 258.682C11.4675 262.465 14.9817 265.595 19.0504 267.844L59.1344 290.096C61.7056 295.081 64.5081 299.943 67.5328 304.666L66.7613 350.549C66.6706 355.192 67.6201 359.796 69.5405 364.024C71.4608 368.252 74.3031 371.996 77.859 374.983C97.5767 391.591 120.086 404.567 144.339 413.307C148.709 414.896 153.378 415.488 158.006 415.038C162.633 414.589 167.102 413.111 171.084 410.711L210.396 387.123C215.998 387.391 221.627 387.397 227.216 387.137L266.564 410.746C270.54 413.147 275.002 414.627 279.624 415.078C284.246 415.529 288.91 414.94 293.275 413.354C317.517 404.581 340.009 391.574 359.705 374.94C363.265 371.95 366.112 368.203 368.036 363.971C369.961 359.739 370.915 355.131 370.828 350.482L370.056 304.643C373.088 299.923 375.899 295.064 378.478 290.082L418.595 267.811C422.669 265.557 426.188 262.421 428.892 258.631C431.596 254.841 433.417 250.494 434.222 245.908C438.733 220.551 438.711 194.594 434.158 169.244V169.242ZM218.787 293.549C201.79 293.549 185.175 288.509 171.042 279.066C156.91 269.623 145.895 256.201 139.391 240.498C132.886 224.795 131.185 207.516 134.5 190.846C137.816 174.176 146.001 158.863 158.02 146.844C170.038 134.826 185.351 126.641 202.021 123.325C218.691 120.009 235.971 121.711 251.674 128.216C267.377 134.72 280.798 145.735 290.241 159.867C299.684 173.999 304.724 190.615 304.724 207.611C304.698 230.396 295.636 252.239 279.525 268.35C263.414 284.461 241.571 293.523 218.787 293.549V293.549Z" fill="white"/>
</svg>
