<svg width="500" height="500" viewBox="0 0 500 500" fill="none" xmlns="http://www.w3.org/2000/svg">
<path d="M250 208.334C332.833 208.334 416.666 179.709 416.666 125C416.666 70.292 332.833 41.667 250 41.667C167.166 41.667 83.333 70.292 83.333 125C83.333 179.709 167.166 208.334 250 208.334Z" fill="white"/>
<path d="M83.333 208.334C83.333 263.042 167.166 291.667 250 291.667C332.833 291.667 416.666 263.042 416.666 208.334V166.667C416.666 221.375 332.833 250 250 250C167.166 250 83.333 221.375 83.333 166.667V208.334Z" fill="white"/>
<path d="M83.333 291.667C83.333 346.375 167.166 375 250 375C332.833 375 416.666 346.375 416.666 291.667V250C416.666 304.708 332.833 333.333 250 333.333C167.166 333.333 83.333 304.708 83.333 250V291.667Z" fill="white"/>
<path d="M83.333 375C83.333 429.708 167.166 458.333 250 458.333C332.833 458.333 416.666 429.708 416.666 375V333.333C416.666 388.041 332.833 416.666 250 416.666C167.166 416.666 83.333 388.041 83.333 333.333V375Z" fill="white"/>
</svg>
