<svg width="420" height="417" viewBox="0 0 420 417" fill="none" xmlns="http://www.w3.org/2000/svg">
<path d="M367.813 64.19C346.925 43.4489 322.104 27.0888 294.808 16.07C267.511 5.05123 238.288 -0.40439 208.855 0.0233376C153.601 -0.114796 100.556 21.7021 61.3884 60.6745C22.2206 99.6469 0.138786 152.582 0.000651968 207.836C-0.137482 263.089 21.6794 316.135 60.6518 355.302C99.6242 394.47 152.56 416.552 207.813 416.69C219.719 416.893 231.356 413.136 240.895 406.009C250.435 398.882 257.339 388.79 260.521 377.315C262.55 369.029 262.529 360.372 260.46 352.096C258.391 343.819 254.336 336.172 248.646 329.815C247.331 328.318 246.472 326.475 246.173 324.504C245.874 322.534 246.146 320.519 246.957 318.698C247.769 316.878 249.086 315.328 250.751 314.234C252.417 313.139 254.362 312.546 256.355 312.523H290.73C323.083 312.675 354.295 300.581 378.1 278.67C401.904 256.759 416.538 226.653 419.063 194.398C419.838 170.349 415.692 146.394 406.879 124.004C398.067 101.613 384.773 81.2594 367.813 64.19V64.19ZM103.23 265.44C98.1147 268.916 92.083 270.797 85.8984 270.843C79.7139 270.89 73.6547 269.1 68.488 265.7C63.3213 262.301 59.2795 257.445 56.8742 251.747C54.469 246.049 53.8086 239.766 54.9765 233.693C56.1445 227.619 59.0883 222.029 63.4353 217.63C67.7823 213.23 73.337 210.22 79.396 208.979C85.4549 207.739 91.7458 208.324 97.472 210.661C103.198 212.998 108.102 216.981 111.563 222.107C113.882 225.492 115.507 229.304 116.344 233.321C117.18 237.339 117.212 241.482 116.437 245.512C115.662 249.542 114.096 253.378 111.829 256.798C109.562 260.219 106.639 263.156 103.23 265.44V265.44ZM133.646 151.065C130.682 156.555 126.143 161.032 120.612 163.92C115.081 166.807 108.813 167.973 102.614 167.268C96.4148 166.562 90.5689 164.017 85.8288 159.96C81.0888 155.903 77.6716 150.52 76.0172 144.504C74.3629 138.488 74.5472 132.115 76.5463 126.205C78.5454 120.295 82.2679 115.118 87.2344 111.342C92.2009 107.566 98.184 105.363 104.414 105.016C110.643 104.67 116.834 106.196 122.188 109.398C129.097 113.53 134.145 120.17 136.28 127.932C138.415 135.694 137.471 143.981 133.646 151.065V151.065ZM189.896 104.19C183.716 104.19 177.674 102.357 172.535 98.9234C167.396 95.4896 163.39 90.6091 161.025 84.8989C158.66 79.1887 158.041 72.9053 159.247 66.8434C160.453 60.7815 163.429 55.2133 167.799 50.8429C172.17 46.4725 177.738 43.4962 183.8 42.2905C189.862 41.0847 196.145 41.7035 201.855 44.0688C207.566 46.434 212.446 50.4394 215.88 55.5784C219.314 60.7175 221.146 66.7593 221.146 72.94C221.146 81.228 217.854 89.1766 211.994 95.0371C206.133 100.898 198.185 104.19 189.896 104.19V104.19ZM309.688 120.857C304.334 124.059 298.143 125.585 291.914 125.239C285.684 124.892 279.701 122.689 274.734 118.913C269.768 115.137 266.045 109.96 264.046 104.05C262.047 98.1399 261.863 91.7666 263.517 85.7508C265.172 79.735 268.589 74.3522 273.329 70.2953C278.069 66.2384 283.915 63.6933 290.114 62.9875C296.313 62.2818 302.581 63.4478 308.112 66.3354C313.643 69.223 318.182 73.7 321.146 79.19C324.971 86.2739 325.915 94.5607 323.78 102.323C321.645 110.085 316.597 116.725 309.688 120.857V120.857Z" fill="white"/>
</svg>
