<svg width="469" height="469" viewBox="0 0 469 469" fill="none" xmlns="http://www.w3.org/2000/svg">
<path fill-rule="evenodd" clip-rule="evenodd" d="M410.941 325.155V143.861C424.399 141.085 436.793 134.549 446.685 125.012C456.578 115.475 463.563 103.328 466.829 89.9814C470.096 76.6345 469.51 62.6348 465.14 49.6074C460.77 36.58 452.795 25.0591 442.14 16.3819C431.486 7.70473 418.589 2.22718 404.947 0.585034C391.304 -1.05711 377.476 1.20349 365.067 7.10445C352.657 13.0054 342.176 22.3047 334.839 33.923C327.503 45.5413 323.612 59.0021 323.618 72.7429C323.618 108.419 349.412 137.949 383.353 144.066V324.949C373.941 326.655 365.176 330.155 357.382 335.096L133.412 112.39C140.882 100.978 145.294 87.39 145.294 72.7429C145.312 58.9598 141.409 45.456 134.04 33.808C126.671 22.1601 116.141 12.8488 103.679 6.96123C91.2163 1.0737 77.3362 -1.14708 63.659 0.558199C49.9818 2.26348 37.0719 7.82443 26.4367 16.5918C15.8015 25.3591 7.87988 36.9711 3.59673 50.0718C-0.686424 63.1725 -1.15433 77.2213 2.24764 90.578C5.64961 103.935 12.7811 116.048 22.8093 125.503C32.8376 134.959 45.3489 141.367 58.8823 143.978V325.037C41.234 328.432 25.4725 338.252 14.6481 352.599C3.82368 366.945 -1.29387 384.797 0.28585 402.699C1.86557 420.601 10.0302 437.281 23.1997 449.51C36.3691 461.739 53.607 468.648 71.577 468.9C89.547 469.151 106.971 462.728 120.478 450.872C133.985 439.016 142.613 422.572 144.693 404.721C146.774 386.87 142.158 368.882 131.739 354.238C121.321 339.594 105.84 329.336 88.2941 325.449V143.566C97.147 141.625 105.353 138.096 112.676 133.243L336.176 355.478C327.417 368.371 323.036 383.74 323.682 399.314C324.328 414.888 329.966 429.842 339.763 441.965C349.56 454.089 362.997 462.74 378.089 466.64C393.18 470.541 409.126 469.483 423.571 463.625C438.016 457.766 450.193 447.417 458.304 434.106C466.415 420.795 470.029 405.228 468.613 389.705C467.198 374.182 460.826 359.526 450.441 347.903C440.056 336.279 426.207 328.303 410.941 325.155V325.155Z" fill="white"/>
</svg>
