<svg width="417" height="375" viewBox="0 0 417 375" fill="none" xmlns="http://www.w3.org/2000/svg">
<path d="M348.958 0C357.85 0 366.654 1.75133 374.869 5.15399C383.084 8.55665 390.548 13.544 396.835 19.8313C403.123 26.1186 408.11 33.5827 411.513 41.7975C414.915 50.0122 416.667 58.8168 416.667 67.7083V307.292C416.667 316.183 414.915 324.988 411.513 333.203C408.11 341.417 403.123 348.881 396.835 355.169C390.548 361.456 383.084 366.443 374.869 369.846C366.654 373.249 357.85 375 348.958 375H67.7083C49.751 375 32.5291 367.866 19.8313 355.169C7.13353 342.471 0 325.249 0 307.292V67.7083C0 49.751 7.13353 32.5291 19.8313 19.8313C32.5291 7.13353 49.751 0 67.7083 0H348.958ZM317.667 72.9167H98.9167C94.7727 72.9167 90.7984 74.5629 87.8681 77.4931C84.9379 80.4234 83.2917 84.3977 83.2917 88.5417C83.2917 92.6857 84.9379 96.66 87.8681 99.5902C90.7984 102.52 94.7727 104.167 98.9167 104.167H317.667C321.811 104.167 325.785 102.52 328.715 99.5902C331.645 96.66 333.292 92.6857 333.292 88.5417C333.292 84.3977 331.645 80.4234 328.715 77.4931C325.785 74.5629 321.811 72.9167 317.667 72.9167Z" fill="white"/>
</svg>
