<svg width="24" height="24" viewBox="0 0 24 24" fill="none" xmlns="http://www.w3.org/2000/svg">
<path d="M22.1062 1.17389H1.89383C0.849557 1.17389 0 2.02344 0 3.06771V16.4244C0 17.4687 0.849557 18.3182 1.89383 18.3182H8.71053V21.7402H6.14628C5.84644 21.7402 5.60329 21.9833 5.60329 22.2832C5.60329 22.583 5.84644 22.8261 6.14628 22.8261H17.8537C18.1535 22.8261 18.3967 22.583 18.3967 22.2832C18.3967 21.9833 18.1535 21.7402 17.8537 21.7402H15.2894V18.3182H22.1061C23.1503 18.3182 23.9999 17.4687 23.9999 16.4244V3.06771C24 2.02344 23.1504 1.17389 22.1062 1.17389ZM1.89383 2.25986H22.1062C22.5516 2.25986 22.914 2.62224 22.914 3.06771V14.8847H1.08597V3.06771C1.08597 2.62224 1.44836 2.25986 1.89383 2.25986ZM14.2035 21.7402H9.79651V18.3182H14.2035V21.7402ZM22.1062 17.2323H1.89383C1.44836 17.2323 1.08597 16.8699 1.08597 16.4244V15.9707H22.914V16.4244C22.914 16.8699 22.5516 17.2323 22.1062 17.2323Z" fill="black"/>
<path d="M7.99692 8.10154L7 8.24923V9.608L7.99692 9.75569C8.10769 10.0511 8.21846 10.3169 8.40307 10.5532L7.8123 11.2326L9.0308 12.1778L9.88 11.7052C10.2123 11.8529 10.5446 11.9711 10.8769 12.0302L11.0615 12.8277H12.76L12.9446 12.0302C13.3138 11.9415 13.6461 11.8529 13.9415 11.7052L14.7908 12.1778L15.9723 11.2031L15.3815 10.5237C15.5661 10.2874 15.7138 9.992 15.7877 9.72616L16.7846 9.57846V8.21969L15.7877 8.072C15.6769 7.77662 15.5661 7.51077 15.3815 7.27446L15.9723 6.59508L14.7538 5.64985L13.9046 6.12246C13.5723 5.97477 13.24 5.85662 12.9077 5.79754L12.7231 5H11.0246L10.84 5.79754C10.5077 5.88616 10.1385 5.97477 9.8431 6.12246L8.9938 5.64985L7.8123 6.62462L8.40307 7.304C8.21846 7.54031 8.07077 7.83569 7.99692 8.10154ZM8.47692 8.33785C8.55076 8.01293 8.7354 7.688 8.9569 7.42216L9.0677 7.304L8.55077 6.68369L9.0677 6.24062L9.8431 6.65416L9.9908 6.56554C10.36 6.38831 10.7292 6.24062 11.1354 6.18154L11.32 6.152L11.4677 5.41354H12.2431L12.4277 6.152L12.6123 6.18154C13.0185 6.24062 13.4246 6.38831 13.7938 6.56554L13.9415 6.65416L14.7169 6.24062L15.2708 6.68369L14.7538 7.304L14.8646 7.42216C15.0861 7.71754 15.2708 8.01293 15.3446 8.33785L15.3815 8.48554L16.3046 8.60369V9.224L15.3815 9.37169L15.3446 9.48985C15.2708 9.81477 15.0861 10.1397 14.8646 10.4351L14.7538 10.5532L15.2708 11.1735L14.7169 11.6166L13.9415 11.2031L13.7938 11.2917C13.4615 11.4689 13.0554 11.6166 12.6492 11.6757H12.4646L12.3169 12.4142H11.5415L11.3569 11.6757L11.1723 11.6462C10.7661 11.5871 10.36 11.4394 10.0277 11.2622L9.88 11.1735L9.1046 11.5871L8.55077 11.144L9.0677 10.5237L8.9569 10.4055C8.7354 10.1102 8.55076 9.81477 8.47692 9.48985L8.44 9.34216L7.51692 9.224V8.60369L8.44 8.456L8.47692 8.33785Z" fill="black"/>
<path d="M11.9107 10.7009C13.1292 10.7009 14.1261 9.90339 14.1261 8.92862C14.1261 7.95385 13.1292 7.15631 11.9107 7.15631C10.6922 7.15631 9.69531 7.95385 9.69531 8.92862C9.69531 9.90339 10.6922 10.7009 11.9107 10.7009ZM11.9107 7.59939C12.8338 7.59939 13.5722 8.19016 13.5722 8.92862C13.5722 9.66708 12.8338 10.2579 11.9107 10.2579C10.9876 10.2579 10.2492 9.66708 10.2492 8.92862C10.2492 8.19016 10.9876 7.59939 11.9107 7.59939Z" fill="black"/>
</svg>
