<svg width="75" height="75" viewBox="0 0 75 75" fill="none" xmlns="http://www.w3.org/2000/svg">
<path d="M68.6447 49.6941C68.9578 50.231 69.0448 50.8703 68.8867 51.4713C68.7285 52.0724 68.3381 52.586 67.8013 52.8992L39.6763 69.3055C39.3178 69.5146 38.9103 69.6248 38.4953 69.6248C38.0803 69.6248 37.6728 69.5146 37.3143 69.3055L9.18934 52.8992C8.92128 52.7453 8.68632 52.5398 8.49799 52.2947C8.30967 52.0496 8.17169 51.7696 8.09202 51.4709C8.01234 51.1722 7.99253 50.8607 8.03374 50.5544C8.07495 50.248 8.17635 49.9528 8.33211 49.6858C8.48788 49.4188 8.69492 49.1853 8.94132 48.9986C9.18773 48.8119 9.46862 48.6759 9.76783 48.5982C10.067 48.5206 10.3787 48.5029 10.6847 48.5461C10.9908 48.5894 11.2853 48.6928 11.5512 48.8504L38.4953 64.5676L65.4393 48.8504C65.9763 48.5372 66.6156 48.4502 67.2168 48.6084C67.8179 48.7667 68.3315 49.1572 68.6447 49.6941ZM65.4393 34.7879L38.4953 50.5051L11.551 34.7879C11.2849 34.628 10.9898 34.5226 10.6827 34.4777C10.3756 34.4328 10.0626 34.4494 9.76195 34.5264C9.46129 34.6035 9.17893 34.7395 8.93126 34.9265C8.68358 35.1136 8.47553 35.348 8.31916 35.6161C8.1628 35.8842 8.06124 36.1807 8.02039 36.4883C7.97954 36.796 8.0002 37.1087 8.08118 37.4083C8.16216 37.708 8.30185 37.9885 8.49213 38.2337C8.68241 38.4789 8.9195 38.6839 9.18963 38.8367L37.3146 55.243C37.673 55.452 38.0804 55.5621 38.4953 55.5621C38.9102 55.5621 39.3176 55.452 39.676 55.243L67.8013 38.8367C68.3337 38.5213 68.7197 38.0081 68.8752 37.4091C69.0306 36.8101 68.9429 36.1739 68.631 35.6393C68.3192 35.1048 67.8086 34.7153 67.2107 34.5558C66.6127 34.3962 65.976 34.4797 65.4393 34.7879V34.7879ZM8.02654 22.7498C8.02658 22.3402 8.13399 21.9377 8.33807 21.5825C8.54214 21.2273 8.83575 20.9318 9.18963 20.7254L37.3146 4.31915C37.673 4.11013 38.0804 4 38.4953 4C38.9102 4 39.3176 4.11013 39.676 4.31915L67.8013 20.7254C68.1551 20.9318 68.4486 21.2273 68.6526 21.5825C68.8566 21.9377 68.9639 22.3402 68.9639 22.7498C68.9639 23.1594 68.8566 23.5619 68.6526 23.9171C68.4486 24.2723 68.1551 24.5678 67.8013 24.7742L39.6763 41.1805C39.3178 41.3896 38.9103 41.4998 38.4953 41.4998C38.0803 41.4998 37.6728 41.3896 37.3143 41.1805L9.18934 24.7742C8.83551 24.5678 8.54196 24.2723 8.33794 23.9171C8.13392 23.5619 8.02655 23.1594 8.02654 22.7498ZM15.0218 22.7498L38.4953 36.4426L61.9688 22.7498L38.4953 9.05704L15.0218 22.7498Z" fill="#0667ED"/>
</svg>
