<svg width="75" height="67" viewBox="0 0 75 67" fill="none" xmlns="http://www.w3.org/2000/svg">
<path d="M72.8165 9.31705C72.8119 9.31705 72.8073 9.31648 72.8027 9.31648H52.8809V7.12146C52.8809 3.49052 49.9237 0.536377 46.2891 0.536377H28.7109C25.0763 0.536377 22.1191 3.49052 22.1191 7.12146V9.31648H2.19727C0.973892 9.31648 0 10.318 0 11.5115V59.8021C0 63.433 2.95715 66.3872 6.5918 66.3872H68.4082C72.0428 66.3872 75 63.433 75 59.8021V11.5578C75 11.555 75 11.5521 75 11.5492C74.9159 10.1076 74.0284 9.32506 72.8165 9.31705ZM26.5137 7.12146C26.5137 5.91133 27.4996 4.92643 28.7109 4.92643H46.2891C47.5004 4.92643 48.4863 5.91133 48.4863 7.12146V9.31648H26.5137V7.12146ZM69.754 13.7065L62.9305 34.1557C62.6312 35.0537 61.7935 35.6568 60.8465 35.6568H48.4863V33.4618C48.4863 32.2494 47.5027 31.2668 46.2891 31.2668H28.7109C27.4973 31.2668 26.5137 32.2494 26.5137 33.4618V35.6568H14.1535C13.2065 35.6568 12.3688 35.0537 12.0695 34.1557L5.24597 13.7065H69.754ZM44.0918 35.6568V40.0469H30.9082V35.6568H44.0918ZM70.6055 59.8021C70.6055 61.0122 69.6196 61.9971 68.4082 61.9971H6.5918C5.38044 61.9971 4.39453 61.0122 4.39453 59.8021V25.0378L7.90043 35.5442C8.79879 38.2377 11.3119 40.0469 14.1535 40.0469H26.5137V42.2419C26.5137 43.4543 27.4973 44.4369 28.7109 44.4369H46.2891C47.5027 44.4369 48.4863 43.4543 48.4863 42.2419V40.0469H60.8465C63.6881 40.0469 66.2012 38.2377 67.0996 35.5442L70.6055 25.0378V59.8021Z" fill="#BD9354"/>
</svg>
