<svg width="75" height="65" viewBox="0 0 75 65" fill="none" xmlns="http://www.w3.org/2000/svg">
<path d="M72.4365 0.112305H2.56348C1.15005 0.112305 0 1.26119 0 2.67318V11.6867C0 13.1057 2.19727 13.1057 2.19727 11.6867V2.67318C2.19727 2.47153 2.36147 2.30734 2.56348 2.30734H72.4365C72.6385 2.30734 72.8027 2.47153 72.8027 2.67318V56.1938C72.8027 56.3955 72.6385 56.5597 72.4365 56.5597H58.3576V54.2759H69.4075C70.0144 54.2759 70.5061 53.7845 70.5061 53.1784V41.6854C70.5061 40.2664 68.3089 40.2664 68.3089 41.6854V52.0809H58.3576V47.2113C58.3934 47.2144 58.4294 47.2174 58.4632 47.2205C59.3752 47.3006 60.5096 47.4002 61.2955 46.6137C62.0805 45.828 61.9812 44.6936 61.9014 43.7821C61.8154 42.8038 61.908 42.536 62.6606 41.911C64.5984 40.3013 64.6345 38.5778 62.6606 36.9385C61.908 36.3131 61.8158 36.0456 61.9014 35.0672C62.1164 32.6121 60.9686 31.409 58.4632 31.6289C57.4855 31.7146 57.2202 31.6219 56.5967 30.8699C54.9879 28.9294 53.2614 28.8936 51.6227 30.8699C50.9993 31.6217 50.7341 31.7149 49.7564 31.6289C47.297 31.413 46.0986 32.5662 46.3181 35.0672C46.4036 36.0457 46.3115 36.3131 45.5588 36.9385C43.621 38.5481 43.5851 40.2719 45.5588 41.911C46.3115 42.5365 46.4036 42.804 46.3181 43.7824C46.0874 46.4119 47.3445 47.4286 49.8615 47.2114V52.0812H6.69126V6.78594H68.3089V35.8319C68.3089 37.251 70.5061 37.251 70.5061 35.8319V5.68842C70.5061 5.0823 70.0144 4.59091 69.4075 4.59091H5.59263C4.98574 4.59091 4.49399 5.0823 4.49399 5.68842V53.1784C4.49399 53.7845 4.98574 54.2759 5.59263 54.2759H49.8615V56.5597H2.56348C2.36147 56.5597 2.19727 56.3955 2.19727 56.1938V17.2473C2.19727 15.8283 0 15.8283 0 17.2473V56.1938C0 57.6058 1.15005 58.7547 2.56348 58.7547H49.8615V63.7228C50.018 64.6248 50.5387 64.9565 51.4235 64.7179L54.1096 63.4698L56.7957 64.7179C57.4603 65.0266 58.3576 64.5386 58.3576 63.7228V58.7547H72.4365C73.85 58.7547 75 57.6058 75 56.1938V2.67318C75 1.26104 73.85 0.112305 72.4365 0.112305ZM49.5637 45.0337C48.4639 45.1304 48.4106 45.0716 48.5067 43.9735C48.6543 42.2881 48.2663 41.3048 46.9633 40.2227C46.0718 39.4821 46.072 39.3667 46.9633 38.6261C48.2663 37.5441 48.6545 36.5607 48.5067 34.8755C48.4106 33.7772 48.4639 33.719 49.5637 33.8151C51.2509 33.9637 52.234 33.5731 53.3146 32.2697C54.053 31.3794 54.166 31.3794 54.9044 32.2697C55.9853 33.5731 56.9681 33.9631 58.6553 33.8151C59.7552 33.7184 59.8084 33.7772 59.7123 34.8754C59.5646 36.5607 59.9527 37.5439 61.2557 38.6259C62.147 39.3665 62.1475 39.4823 61.2555 40.2227C59.9525 41.3049 59.5644 42.2878 59.7122 43.9732C59.8087 45.0713 59.7551 45.1303 58.6554 45.0337C57.9653 44.9731 57.1825 44.9043 56.4935 45.1903C55.8265 45.467 55.3576 46.0323 54.9042 46.5791C54.6907 46.8367 54.3009 47.3069 54.1093 47.391C53.9178 47.3069 53.528 46.8367 53.3145 46.5791C52.8611 46.0324 52.3923 45.467 51.7252 45.1903C51.0142 44.9737 50.2937 44.9214 49.5637 45.0337ZM54.5729 61.2643C54.2791 61.1278 53.9401 61.1278 53.6462 61.2643L52.0588 62.002V48.4881C52.5801 49.0607 53.2233 49.5923 54.1096 49.5923C54.9958 49.5923 55.639 49.0608 56.1604 48.4882V62.002L54.5729 61.2643Z" fill="#FF9642"/>
<path d="M14.2476 15.9729H52.1207C53.5411 15.9729 53.5411 13.7778 52.1207 13.7778H14.2476C12.827 13.7778 12.827 15.9729 14.2476 15.9729Z" fill="#FF9642"/>
<path d="M61.8511 21.5509C61.8511 20.9448 61.3593 20.4534 60.7525 20.4534H14.2475C12.827 20.4534 12.827 22.6484 14.2475 22.6484H60.7526C61.3593 22.6484 61.8511 22.157 61.8511 21.5509Z" fill="#FF9642"/>
<path d="M41.7681 28.2262C41.7681 27.6201 41.2763 27.1287 40.6695 27.1287H14.2475C12.827 27.1287 12.827 29.3237 14.2475 29.3237H40.6695C41.2762 29.3237 41.7681 28.8323 41.7681 28.2262Z" fill="#FF9642"/>
<path d="M27.3415 43.5244C26.7426 43.5254 26.1434 43.5262 25.5445 43.5266C24.3921 43.5275 23.7576 43.2206 23.5222 41.9999C23.3073 40.8855 21.6984 41.0275 21.4035 41.9999C21.273 42.4306 20.6138 43.6634 20.038 43.5626C19.7328 43.5092 19.5995 43.039 19.4867 42.7955C19.2672 42.3215 19.1072 41.8192 18.9702 41.3158C18.3919 39.1889 18.2765 36.9683 17.9147 34.8014C17.7049 33.5448 15.7876 33.9001 15.7567 35.0931C15.6582 38.8936 15.0363 42.642 13.6819 46.2043C13.1793 47.5261 15.3026 48.0977 15.8006 46.7878C16.3228 45.4143 16.7374 44.0079 17.0591 42.5806C17.2316 43.1006 17.4374 43.6108 17.6886 44.107C18.3302 45.3737 19.6388 46.123 21.0389 45.5597C21.5385 45.3586 21.9944 45.0071 22.3824 44.5794C23.4219 45.7768 24.9683 45.7225 26.4111 45.7208C28.5859 45.718 30.7608 45.7129 32.9358 45.7069C34.3495 45.7029 34.3521 43.5079 32.9358 43.5118C31.071 43.5171 29.2063 43.5213 27.3415 43.5244Z" fill="#FF9642"/>
<path d="M54.1095 43.7112C56.4756 43.7112 58.4007 41.7882 58.4007 39.4244C58.4007 37.0607 56.4756 35.1377 54.1095 35.1377C51.7435 35.1377 49.8184 37.0608 49.8184 39.4244C49.8184 41.7881 51.7433 43.7112 54.1095 43.7112ZM54.1095 37.3327C55.2641 37.3327 56.2035 38.2712 56.2035 39.4244C56.2035 40.5777 55.2641 41.5162 54.1095 41.5162C52.9549 41.5162 52.0156 40.5779 52.0156 39.4244C52.0156 38.271 52.9549 37.3327 54.1095 37.3327Z" fill="#FF9642"/>
</svg>
