<svg xmlns="http://www.w3.org/2000/svg" xmlns:xlink="http://www.w3.org/1999/xlink" version="1.1" x="0px" y="0px" viewBox="0 0 50 62.5" style="enable-background:new 0 0 50 50;" xml:space="preserve"><g><path d="M4.3,39.7h27.5l-2.2,6.4c-0.1,0.4,0,0.8,0.3,1.1c0.3,0.3,0.7,0.4,1.1,0.2L37,45l6.1,2.4c0.4,0.1,0.8,0.1,1.1-0.2   c0.3-0.3,0.4-0.7,0.3-1.1l-2.2-6.4h3.6c1.8,0,3.3-1.5,3.3-3.3V5.8c0-1.8-1.5-3.3-3.3-3.3H4.3C2.5,2.5,1,4,1,5.8v30.7   C1,38.3,2.5,39.7,4.3,39.7z M32.3,26.9c0.3-0.2,1.6,0.1,2.6-0.3c0.5-0.2,0.9-0.6,1.3-1c0.2-0.2,0.6-0.6,0.7-0.6   c0.1,0,0.5,0.4,0.7,0.6c0.9,1,1.4,1.2,2.8,1.2c0.1,0,0.9,0,1.1,0.1c0.1,0.1,0.1,0.6,0.1,0.9c0,1.5,0.2,2,1.2,3   c0.2,0.2,0.6,0.6,0.6,0.7c0,0.1-0.4,0.5-0.6,0.7c-0.4,0.4-0.8,0.8-1,1.3c-0.4,1-0.1,2.3-0.3,2.6c-0.2,0.2-1.7-0.1-2.6,0.3   c-0.7,0.3-1.1,0.9-1.6,1.3h-0.8c-0.5-0.5-1-1-1.6-1.3c-0.8-0.3-2.3-0.2-2.6-0.3c-0.1-0.1-0.1-0.6-0.1-0.9c0-1.5-0.2-2-1.2-3   c-0.2-0.2-0.6-0.6-0.6-0.7c0-0.1,0.4-0.5,0.6-0.7c1-1,1.2-1.4,1.2-3C32.3,27.5,32.3,27,32.3,26.9z M37.3,43c-0.2-0.1-0.5-0.1-0.7,0   l-4.4,1.8l2.2-6.3C35,38.9,35.7,40,37,40c1.2,0,1.9-1.1,2.6-1.6l2.2,6.3L37.3,43z M3,5.8c0-0.7,0.6-1.3,1.3-1.3h41.5   c0.7,0,1.3,0.6,1.3,1.3v30.7c0,0.7-0.6,1.3-1.3,1.3h-3c0.1-0.1,0.2-0.1,0.2-0.2c1-1,0.5-2.6,0.7-3.2c0.3-0.8,3.4-2.1,0.6-5   c-0.2-0.2-0.5-0.5-0.6-0.6c-0.3-0.8,0.8-3.9-2.9-3.9c-1.1,0-1,0.1-1.7-0.6c-1.6-1.6-2.7-1.7-4.3,0c-0.7,0.7-0.6,0.6-1.7,0.6   c-3.7,0-2.6,3.1-2.9,3.9c-0.3,0.8-3.4,2.2-0.6,5c0.7,0.6,0.6,0.6,0.6,1.5c0,1,0.1,1.9,0.9,2.5H4.3c-0.7,0-1.3-0.6-1.3-1.3V5.8z"/><path d="M9.5,10h29.8c0.6,0,1-0.4,1-1c0-0.6-0.4-1-1-1H9.5c-0.6,0-1,0.4-1,1C8.5,9.5,9,10,9.5,10z"/><path d="M9.5,15.4h29.8c0.6,0,1-0.4,1-1c0-0.6-0.4-1-1-1H9.5c-0.6,0-1,0.4-1,1C8.5,14.9,9,15.4,9.5,15.4z"/><path d="M9.5,20.7h29.8c0.6,0,1-0.4,1-1s-0.4-1-1-1H9.5c-0.6,0-1,0.4-1,1S9,20.7,9.5,20.7z"/><path d="M9.5,28.9h16.2c0.6,0,1-0.4,1-1c0-0.6-0.4-1-1-1H9.5c-0.6,0-1,0.4-1,1C8.5,28.4,9,28.9,9.5,28.9z"/><path d="M9.5,34.3h10.6c0.6,0,1-0.4,1-1c0-0.6-0.4-1-1-1H9.5c-0.6,0-1,0.4-1,1C8.5,33.8,9,34.3,9.5,34.3z"/><path d="M37,35.5c2.2,0,4-1.8,4-4c0-2.2-1.8-4-4-4s-4,1.8-4,4C33,33.7,34.7,35.5,37,35.5z M37,29.5c1.1,0,2,0.9,2,2   c0,1.1-0.9,2-2,2s-2-0.9-2-2C35,30.4,35.9,29.5,37,29.5z"/></g><text x="0" y="65" fill="#000000" font-size="5px" font-weight="bold" font-family="'Helvetica Neue', Helvetica, Arial-Unicode, Arial, Sans-serif">Created by Vectors Point</text><text x="0" y="70" fill="#000000" font-size="5px" font-weight="bold" font-family="'Helvetica Neue', Helvetica, Arial-Unicode, Arial, Sans-serif">from the Noun Project</text></svg>