<svg width="75" height="43" viewBox="0 0 75 43" fill="none" xmlns="http://www.w3.org/2000/svg">
<path d="M73.0993 24.5642H63.177L56.091 16.4915C55.4165 15.7231 54.2828 15.6298 53.5 16.2779L49.104 19.9185L37.5074 0.916927C37.159 0.346093 36.5529 0 35.9017 0C35.2505 0 34.6444 0.346093 34.296 0.916927L24.394 17.1419L20.6813 11.506C20.3272 10.9685 19.7399 10.6469 19.1121 10.6469C18.4844 10.6469 17.8973 10.9685 17.543 11.506L8.94064 24.5642H1.90047C0.850775 24.5642 0 25.4468 0 26.5356C0 27.6245 0.850775 28.5071 1.90047 28.5071H6.34312L4.83077 30.8024C4.23846 31.7014 4.46103 32.9281 5.32764 33.5425C5.65558 33.7751 6.02891 33.8864 6.39824 33.8864C7.00491 33.8864 7.60102 33.5856 7.96908 33.0271L8.70181 31.9148L19.1124 16.1126L22.1803 20.7697L15.3784 31.915L10.46 39.9741C9.89847 40.8941 10.1622 42.1118 11.0491 42.6942C11.3646 42.9012 11.7162 43 12.0639 43C12.6934 43 13.3096 42.6756 13.6713 42.0829L14.5745 40.603L35.9019 5.6573L53.2289 34.0483L53.6616 34.7571C54.2228 35.6769 55.3969 35.9504 56.2838 35.3682C57.0909 34.8381 57.3797 33.7823 57.0022 32.9033C56.9648 32.8166 56.9234 32.7307 56.8729 32.6481L51.1496 23.2701L54.4798 20.5121L65.8928 33.5144L67.2229 35.0298C67.5979 35.4572 68.1123 35.674 68.6286 35.674C69.0853 35.674 69.5433 35.5042 69.9076 35.1604C70.6836 34.4272 70.74 33.1804 70.0335 32.3754L66.6379 28.5071H73.0995C74.1492 28.5071 75 27.6245 75 26.5356C75 25.4468 74.149 24.5642 73.0993 24.5642Z" fill="#F44336"/>
</svg>
