<?xml version="1.0" standalone="no"?>
<!DOCTYPE svg PUBLIC "-//W3C//DTD SVG 20010904//EN"
 "http://www.w3.org/TR/2001/REC-SVG-20010904/DTD/svg10.dtd">
<svg version="1.0" xmlns="http://www.w3.org/2000/svg"
 width="1024.000000pt" height="1024.000000pt" viewBox="0 0 1024.000000 1024.000000"
 preserveAspectRatio="xMidYMid meet">

<g transform="translate(0.000000,1024.000000) scale(0.100000,-0.100000)"
fill="#000000" stroke="none">
<path d="M2460 7475 c0 -2 22 -37 49 -77 57 -86 78 -138 90 -230 14 -101 -1
-184 -53 -309 -7 -15 6 -18 101 -24 591 -37 1031 -258 1489 -746 213 -226 406
-482 699 -924 535 -809 609 -918 704 -1048 l101 -139 -91 -96 c-106 -113 -134
-164 -124 -227 7 -53 39 -103 80 -126 17 -10 138 -49 270 -88 132 -38 426
-124 653 -190 227 -67 425 -121 440 -121 34 0 102 31 124 56 24 27 48 88 48
121 0 25 -460 1266 -489 1321 -17 33 -69 71 -111 82 -78 21 -111 3 -242 -131
l-117 -121 -57 77 c-55 76 -188 275 -646 967 -312 473 -502 727 -735 983 -484
532 -1034 851 -1643 954 -168 29 -540 54 -540 36z"/>
<path d="M7495 7470 c-380 -34 -715 -156 -1050 -380 l-100 -67 -114 104 c-122
110 -162 131 -230 118 -46 -9 -94 -38 -116 -71 -18 -27 -24 -48 -180 -604 -54
-190 -122 -430 -151 -535 -64 -225 -68 -273 -25 -332 34 -47 84 -73 140 -73
28 0 218 69 663 240 343 132 638 248 656 257 65 33 101 120 82 196 -9 35 -31
61 -123 149 -130 125 -134 105 33 192 507 263 1139 224 1640 -102 594 -385
888 -1103 734 -1790 -73 -327 -228 -605 -470 -844 -371 -366 -886 -540 -1400
-473 -64 9 -119 14 -121 11 -3 -3 0 -28 6 -56 37 -172 -14 -337 -146 -469 -40
-41 -72 -75 -71 -77 2 -1 50 -11 108 -22 317 -61 677 -52 988 24 680 167 1247
625 1551 1255 364 751 306 1618 -154 2309 -427 642 -1117 1024 -1888 1044 -89
3 -207 1 -262 -4z"/>
<path d="M713 7269 c-76 -22 -132 -121 -114 -199 4 -19 47 -113 95 -208 l87
-173 -66 -82 c-246 -307 -406 -655 -482 -1047 -21 -111 -26 -174 -30 -356 -6
-243 3 -355 43 -549 71 -342 239 -696 464 -980 78 -98 248 -269 350 -352 323
-261 720 -436 1137 -500 153 -24 543 -23 713 0 395 56 760 193 1092 413 186
123 322 238 539 454 192 192 395 418 384 428 -2 2 -76 -23 -164 -57 -88 -34
-174 -61 -190 -61 -90 0 -171 81 -171 170 0 22 27 136 60 253 33 118 60 217
60 221 0 4 -36 -39 -80 -96 -366 -470 -664 -737 -1015 -909 -377 -185 -831
-244 -1240 -163 -204 41 -450 148 -625 271 -139 99 -340 303 -429 437 -223
336 -313 670 -289 1081 12 217 71 429 178 639 36 71 70 131 76 133 6 2 21 -20
34 -48 52 -111 160 -148 257 -89 30 18 813 1047 855 1123 22 39 23 118 3 156
-20 39 -69 78 -113 91 -48 13 -1373 12 -1419 -1z"/>
</g>
</svg>
