<svg width="75" height="75" viewBox="0 0 75 75" fill="none" xmlns="http://www.w3.org/2000/svg">
<g clip-path="url(#clip0)">
<path d="M37.5 31.2182C37.4719 31.2182 37.4406 31.2182 37.4125 31.2182C36.7063 31.1901 36.05 30.8467 35.625 30.2816L31.6406 24.9745H24.2188C21.2031 24.9745 18.75 22.5239 18.75 19.5114V5.46318C18.75 2.45063 21.2031 0 24.2188 0H50.7812C53.7969 0 56.25 2.45063 56.25 5.46318V19.5114C56.25 22.5239 53.7969 24.9745 50.7812 24.9745H44.0312L39.2625 30.419C38.8188 30.9278 38.175 31.2182 37.5 31.2182ZM24.2188 4.68272C23.7875 4.68272 23.4375 5.03237 23.4375 5.46318V19.5114C23.4375 19.9422 23.7875 20.2918 24.2188 20.2918H32.8125C33.55 20.2918 34.2438 20.6383 34.6875 21.2283L37.6406 25.1618L41.2062 21.0941C41.65 20.5821 42.2938 20.2918 42.9688 20.2918H50.7812C51.2125 20.2918 51.5625 19.9422 51.5625 19.5114V5.46318C51.5625 5.03237 51.2125 4.68272 50.7812 4.68272H24.2188Z" fill="#0667ED"/>
<path d="M62.5002 34.34C62.469 34.34 62.4377 34.34 62.4096 34.34C61.7002 34.3119 61.044 33.9654 60.6221 33.4003L58.1534 30.0912C57.3784 29.0548 57.594 27.5875 58.6315 26.8133C59.6721 26.0391 61.1377 26.2545 61.9127 27.2909L62.6471 28.2774L66.2065 24.2159C66.6502 23.704 67.294 23.4136 67.969 23.4136H69.5315C69.9565 23.4136 70.3127 23.0577 70.3127 22.6332V8.585C70.3127 8.16044 69.9565 7.80455 69.5315 7.80455H64.844C63.5502 7.80455 62.5002 6.75562 62.5002 5.46319C62.5002 4.17076 63.5502 3.12183 64.844 3.12183H69.5315C72.5471 3.12183 75.0002 5.57245 75.0002 8.585V22.6332C75.0002 25.6457 72.5471 28.0964 69.5315 28.0964H69.0315L64.2627 33.5408C63.819 34.0497 63.1752 34.34 62.5002 34.34Z" fill="#0667ED"/>
<path d="M12.5 34.34C11.825 34.34 11.1813 34.0497 10.7375 33.5408L5.96875 28.0964H5.46875C2.45312 28.0964 0 25.6457 0 22.6332V8.585C0 5.57245 2.45312 3.12183 5.46875 3.12183H10.1562C11.45 3.12183 12.5 4.17076 12.5 5.46319C12.5 6.75562 11.45 7.80455 10.1562 7.80455H5.46875C5.04375 7.80455 4.6875 8.16044 4.6875 8.585V22.6332C4.6875 23.0577 5.04375 23.4136 5.46875 23.4136H7.03125C7.70625 23.4136 8.35 23.704 8.79375 24.2128L12.3531 28.2743L13.0875 27.2878C13.8625 26.2514 15.3281 26.036 16.3687 26.8102C17.4062 27.5844 17.6219 29.0516 16.8469 30.0881L14.3781 33.3972C13.9562 33.9654 13.3 34.3119 12.5906 34.34C12.5625 34.34 12.5312 34.34 12.5 34.34Z" fill="#0667ED"/>
<path d="M62.5 53.0709C59.0531 53.0709 56.25 50.2706 56.25 46.8272C56.25 43.3839 59.0531 40.5836 62.5 40.5836C65.9469 40.5836 68.75 43.3839 68.75 46.8272C68.75 50.2706 65.9469 53.0709 62.5 53.0709ZM62.5 45.2663C61.6375 45.2663 60.9375 45.9656 60.9375 46.8272C60.9375 47.6889 61.6375 48.3882 62.5 48.3882C63.3625 48.3882 64.0625 47.6889 64.0625 46.8272C64.0625 45.9656 63.3625 45.2663 62.5 45.2663Z" fill="#0667ED"/>
<path d="M72.6562 68.6799C71.3625 68.6799 70.3125 67.631 70.3125 66.3385V64.7776C70.3125 62.6267 68.5594 60.8754 66.4062 60.8754H58.5938C57.3 60.8754 56.25 59.8264 56.25 58.534C56.25 57.2416 57.3 56.1926 58.5938 56.1926H66.4062C71.1469 56.1926 75 60.0418 75 64.7776V66.3385C75 67.631 73.95 68.6799 72.6562 68.6799Z" fill="#0667ED"/>
<path d="M12.5 53.0709C9.05312 53.0709 6.25 50.2706 6.25 46.8272C6.25 43.3839 9.05312 40.5836 12.5 40.5836C15.9469 40.5836 18.75 43.3839 18.75 46.8272C18.75 50.2706 15.9469 53.0709 12.5 53.0709ZM12.5 45.2663C11.6375 45.2663 10.9375 45.9656 10.9375 46.8272C10.9375 47.6889 11.6375 48.3882 12.5 48.3882C13.3625 48.3882 14.0625 47.6889 14.0625 46.8272C14.0625 45.9656 13.3625 45.2663 12.5 45.2663Z" fill="#0667ED"/>
<path d="M2.34375 68.6799C1.05 68.6799 0 67.631 0 66.3385V64.7776C0 60.0418 3.85313 56.1926 8.59375 56.1926H16.4062C17.7 56.1926 18.75 57.2416 18.75 58.534C18.75 59.8264 17.7 60.8754 16.4062 60.8754H8.59375C6.44063 60.8754 4.6875 62.6267 4.6875 64.7776V66.3385C4.6875 67.631 3.6375 68.6799 2.34375 68.6799Z" fill="#0667ED"/>
<path d="M37.5 54.6318C32.3312 54.6318 28.125 50.4298 28.125 45.2663C28.125 40.1028 32.3312 35.9009 37.5 35.9009C42.6687 35.9009 46.875 40.1028 46.875 45.2663C46.875 50.4298 42.6687 54.6318 37.5 54.6318ZM37.5 40.5836C34.9156 40.5836 32.8125 42.6846 32.8125 45.2663C32.8125 47.8481 34.9156 49.949 37.5 49.949C40.0844 49.949 42.1875 47.8481 42.1875 45.2663C42.1875 42.6846 40.0844 40.5836 37.5 40.5836Z" fill="#0667ED"/>
<path d="M52.3438 74.9237C51.05 74.9237 50 73.8747 50 72.5823V67.8996C50 65.7486 48.2469 63.9973 46.0938 63.9973H28.9063C26.7531 63.9973 25 65.7486 25 67.8996V72.5823C25 73.8747 23.95 74.9237 22.6563 74.9237C21.3625 74.9237 20.3125 73.8747 20.3125 72.5823V67.8996C20.3125 63.1638 24.1656 59.3146 28.9063 59.3146H46.0938C50.8344 59.3146 54.6875 63.1638 54.6875 67.8996V72.5823C54.6875 73.8747 53.6375 74.9237 52.3438 74.9237Z" fill="#0667ED"/>
</g>
<defs>
<clipPath id="clip0">
<rect width="75" height="74.9236" fill="white"/>
</clipPath>
</defs>
</svg>
