<svg width="24" height="24" viewBox="0 0 24 24" fill="none" xmlns="http://www.w3.org/2000/svg">
<path d="M22.1062 1.17389H1.89383C0.849557 1.17389 0 2.02344 0 3.06771V16.4244C0 17.4687 0.849557 18.3182 1.89383 18.3182H8.71053V21.7402H6.14628C5.84644 21.7402 5.60329 21.9833 5.60329 22.2832C5.60329 22.583 5.84644 22.8261 6.14628 22.8261H17.8537C18.1535 22.8261 18.3967 22.583 18.3967 22.2832C18.3967 21.9833 18.1535 21.7402 17.8537 21.7402H15.2894V18.3182H22.1061C23.1503 18.3182 23.9999 17.4687 23.9999 16.4244V3.06771C24 2.02344 23.1504 1.17389 22.1062 1.17389ZM1.89383 2.25986H22.1062C22.5516 2.25986 22.914 2.62224 22.914 3.06771V14.8847H1.08597V3.06771C1.08597 2.62224 1.44836 2.25986 1.89383 2.25986ZM14.2035 21.7402H9.79651V18.3182H14.2035V21.7402ZM22.1062 17.2323H1.89383C1.44836 17.2323 1.08597 16.8699 1.08597 16.4244V15.9707H22.914V16.4244C22.914 16.8699 22.5516 17.2323 22.1062 17.2323Z" fill="black"/>
<path d="M3.42092 10.1337H10.6885C10.9883 10.1337 11.2314 9.89057 11.2314 9.59068V4.56105C11.2314 4.26116 10.9883 4.01807 10.6885 4.01807H3.42092C3.12108 4.01807 2.87793 4.26116 2.87793 4.56105V9.59068C2.87793 9.89052 3.12108 10.1337 3.42092 10.1337ZM3.9639 5.10404H10.1455V9.04769H3.9639V5.10404Z" fill="black"/>
<path d="M13.5205 10.1337H20.7881C21.0879 10.1337 21.3311 9.89057 21.3311 9.59068V4.56105C21.3311 4.26116 21.0879 4.01807 20.7881 4.01807H13.5205C13.2207 4.01807 12.9775 4.26116 12.9775 4.56105V9.59068C12.9775 9.89052 13.2207 10.1337 13.5205 10.1337ZM14.0635 5.10404H20.2451V9.04769H14.0635V5.10404Z" fill="black"/>
</svg>
