<svg width="73" height="67" viewBox="0 0 73 67" fill="none" xmlns="http://www.w3.org/2000/svg">
<path d="M29.8791 45.8944L37.191 41.3673L34.504 37.0381C35.8812 35.6508 37.0438 34.0378 37.9345 32.2476L42.9094 33.4104L44.8654 25.0377L39.8926 23.8749C39.8883 21.8979 39.5691 19.9461 38.9386 18.0721L43.2851 15.3797L38.7495 8.07923L34.4048 10.7699C33.0048 9.37947 31.3954 8.2209 29.6222 7.34497L30.788 2.3741L22.4095 0.413452L21.2487 5.3694C19.2213 5.37366 17.2622 5.70849 15.4271 6.31671L12.7401 1.99241L5.43077 6.523L8.11566 10.8452C6.73838 12.2335 5.57472 13.8451 4.68402 15.6353L-0.285202 14.4707L-2.25 22.8434L2.72597 24.0101C2.72811 25.9871 3.04835 27.9389 3.67994 29.8097L-0.667641 32.5014L3.86476 39.8079L8.21447 37.1155C9.61272 38.5045 11.22 39.6634 12.9918 40.5425L11.826 45.5141L20.2051 47.4744L21.3688 42.5131C23.3951 42.5089 25.3553 42.173 27.1903 41.5644L29.8791 45.8944ZM11.585 21.6678C12.6502 17.1305 16.6427 13.9605 21.2959 13.9605C22.0619 13.9605 22.8339 14.0485 23.5892 14.225C26.188 14.8314 28.3906 16.4171 29.797 18.6782C31.2045 20.9406 31.6438 23.6185 31.0343 26.2147C29.9691 30.751 25.9744 33.9213 21.3212 33.9213C20.5556 33.9213 19.7854 33.8311 19.028 33.655C16.4312 33.0518 14.2286 31.465 12.8201 29.2026C11.413 26.9387 10.9758 24.2619 11.585 21.6678ZM58.9623 51.4433L60.8571 50.2701L57.4599 44.7883L55.5584 45.964C55.0206 45.4896 54.4388 45.0696 53.8086 44.7045L54.3193 42.5348L48.0354 41.0613L47.5314 43.2126C46.796 43.257 46.0816 43.3741 45.3843 43.5591L44.2203 41.6872L38.7371 45.0873L39.8844 46.9297C39.4074 47.4751 38.998 48.0794 38.628 48.7175L36.4855 48.2204L35.0108 54.4954L37.1789 55.0013C37.2251 55.7232 37.3385 56.4287 37.5258 57.1292L35.6374 58.3006L39.0406 63.7781L40.9272 62.6071C41.4735 63.0879 42.0575 63.5051 42.6834 63.8662L42.1748 66.032L48.4587 67.5016L48.9606 65.3524C49.696 65.3059 50.4104 65.193 51.1077 65.008L52.2714 66.8821L57.7549 63.4845L56.6076 61.6374C57.0888 61.0921 57.4983 60.4878 57.8637 59.8497L60.0065 60.3489L61.4812 54.0718L59.311 53.5658C59.2626 52.839 59.1492 52.1335 58.9623 51.4433ZM52.8131 55.3532C52.2309 57.8298 49.7059 59.429 47.1785 58.841C45.964 58.5534 44.9261 57.8127 44.2686 56.7507C43.6068 55.693 43.4049 54.4379 43.6864 53.2164C44.1865 51.0864 46.0628 49.5941 48.2408 49.5941C48.6023 49.5941 48.9592 49.6406 49.3125 49.7202C51.8342 50.3206 53.4013 52.839 52.8131 55.3532ZM68.8215 30.4616L71.7665 31.149L72.75 26.9653L69.8131 26.279C69.8341 25.0888 69.6386 23.9097 69.2373 22.7919L71.8049 21.1991L69.5337 17.5484L66.9683 19.1383C66.1408 18.2873 65.1698 17.5885 64.0943 17.0772L64.7835 14.1444L60.5944 13.1623L59.9095 16.0887C59.8587 16.0887 59.8043 16.0805 59.752 16.0805C58.5816 16.0805 57.4535 16.2801 56.4011 16.6504L54.8273 14.1078L51.1699 16.3699L52.7619 18.9409C51.922 19.7593 51.22 20.7194 50.7054 21.8098L47.7578 21.1214L46.779 25.3061L49.7116 25.9914C49.6906 27.1823 49.8858 28.3596 50.287 29.4795L47.7241 31.0702L49.9952 34.7188L52.5561 33.1313C53.386 33.982 54.3545 34.6822 55.4301 35.1932L54.7451 38.1274L58.9299 39.1098L59.6188 36.1799C59.6714 36.1799 59.724 36.188 59.7744 36.188C60.9424 36.188 62.0687 35.9885 63.1233 35.6192L64.701 38.165L68.3541 35.8941L66.7618 33.3284C67.6031 32.5139 68.3025 31.5506 68.8215 30.4616ZM54.1534 24.8243C54.7711 22.2054 57.0693 20.3786 59.7545 20.3786C60.1978 20.3786 60.6431 20.4301 61.0781 20.5309C62.578 20.8835 63.8469 21.7942 64.6576 23.0994C65.4687 24.4039 65.725 25.9484 65.372 27.4468C64.6576 30.4921 61.5441 32.4649 58.448 31.7313C56.952 31.3809 55.6792 30.468 54.8681 29.1635C54.0567 27.859 53.8047 26.3177 54.1534 24.8243Z" fill="#002B64"/>
</svg>
