<svg width="75" height="73" viewBox="0 0 75 73" fill="none" xmlns="http://www.w3.org/2000/svg">
<path d="M64.6957 0.917603C59.0144 0.917603 54.3922 5.54235 54.3922 11.2272C54.3922 11.9833 54.4763 12.7201 54.6313 13.4305L41.4078 20.0469C39.5169 17.859 36.7258 16.4701 33.6146 16.4701C27.9331 16.4701 23.3109 21.0949 23.3109 26.7797C23.3109 32.4646 27.9331 37.0893 33.6146 37.0893C34.422 37.0893 35.2071 36.9929 35.9614 36.8163L42.2901 46.3168C40.1813 48.206 38.8513 50.9482 38.8513 53.9964C38.8513 54.5817 38.903 55.1552 38.997 55.7141L20.1841 58.8517C18.922 54.5855 14.9717 51.4631 10.304 51.4631C4.62247 51.4631 0 56.0876 0 61.7721C0 67.4575 4.62247 72.0822 10.304 72.0822C15.2361 72.0822 19.3679 68.5961 20.3727 63.9575L41.1596 60.4903C43.0503 62.8163 45.9316 64.3057 49.1548 64.3057C54.8369 64.3057 59.4596 59.681 59.4596 53.9964C59.4596 48.3118 54.8369 43.687 49.1548 43.687C48.3475 43.687 47.5626 43.7838 46.8086 43.96L40.4798 34.4593C42.5886 32.5701 43.9184 29.828 43.9184 26.7797C43.9184 26.0237 43.8343 25.287 43.6793 24.5769L56.903 17.9603C58.7937 20.1484 61.5848 21.5373 64.6957 21.5373C70.3775 21.5373 75 16.9123 75 11.2272C75 5.54235 70.3775 0.917603 64.6957 0.917603ZM10.304 67.0151C7.41641 67.0151 5.06742 64.6633 5.06742 61.7721C5.06742 58.8817 7.41667 56.53 10.304 56.53C13.1914 56.53 15.5404 58.8817 15.5404 61.7721C15.5404 64.6631 13.1914 67.0151 10.304 67.0151ZM54.3924 53.9964C54.3924 56.887 52.0429 59.2386 49.155 59.2386C46.2674 59.2386 43.9187 56.8873 43.9187 53.9964C43.9187 51.106 46.2677 48.7542 49.155 48.7542C52.0429 48.7542 54.3924 51.106 54.3924 53.9964ZM28.3783 26.7797C28.3783 23.8891 30.7273 21.5373 33.6146 21.5373C36.502 21.5373 38.851 23.8891 38.851 26.7797C38.851 29.6704 36.502 32.0221 33.6146 32.0221C30.7273 32.0221 28.3783 29.6704 28.3783 26.7797ZM64.6957 16.4701C61.8083 16.4701 59.4596 14.1181 59.4596 11.2272C59.4596 8.33654 61.8086 5.98477 64.6957 5.98477C67.5836 5.98477 69.9326 8.33629 69.9326 11.2272C69.9328 14.1179 67.5836 16.4701 64.6957 16.4701Z" fill="#28B446"/>
</svg>
