<svg width="75" height="75" viewBox="0 0 75 75" fill="none" xmlns="http://www.w3.org/2000/svg">
<path d="M32.2918 11.4583C32.2918 8.41939 31.0846 5.50492 28.9357 3.35607C26.7868 1.20721 23.8723 0 20.8334 0C17.7944 0 14.88 1.20721 12.7311 3.35607C10.5822 5.50492 9.375 8.41939 9.375 11.4583C9.375 14.4973 10.5822 17.4117 12.7311 19.5606C14.88 21.7094 17.7944 22.9167 20.8334 22.9167C23.8723 22.9167 26.7868 21.7094 28.9357 19.5606C31.0846 17.4117 32.2918 14.4973 32.2918 11.4583V11.4583ZM13.5417 11.4583C13.5417 10.5008 13.7303 9.5526 14.0967 8.66793C14.4632 7.78326 15.0003 6.97944 15.6774 6.30234C16.3545 5.62525 17.1583 5.08815 18.043 4.72171C18.9276 4.35527 19.8758 4.16667 20.8334 4.16667C21.791 4.16667 22.7391 4.35527 23.6238 4.72171C24.5085 5.08815 25.3123 5.62525 25.9894 6.30234C26.6665 6.97944 27.2036 7.78326 27.5701 8.66793C27.9365 9.5526 28.1251 10.5008 28.1251 11.4583C28.1251 13.3922 27.3569 15.2469 25.9894 16.6143C24.6219 17.9818 22.7673 18.75 20.8334 18.75C18.8995 18.75 17.0448 17.9818 15.6774 16.6143C14.3099 15.2469 13.5417 13.3922 13.5417 11.4583V11.4583Z" fill="#F44336"/>
<path d="M6.25003 27.0834H23.6793C22.996 28.375 22.4876 29.775 22.1876 31.25H6.25003C5.6975 31.25 5.16759 31.4695 4.77689 31.8602C4.38618 32.2509 4.16669 32.7808 4.16669 33.3334V35.4167C4.16669 40.6667 8.74588 46.3084 17.0668 47.625C15.7251 48.5417 14.6084 49.7625 13.8126 51.1834C5.02086 48.8042 0 42.0292 0 35.4167V33.3334C0 31.6758 0.658484 30.0861 1.83059 28.914C3.0027 27.7419 4.59242 27.0834 6.25003 27.0834V27.0834Z" fill="#F44336"/>
<path d="M28.6628 27.0833C30.7628 24.5416 33.942 22.9166 37.5004 22.9166C39.9956 22.9123 42.4239 23.7244 44.4145 25.229C46.4051 26.7336 47.8488 28.8482 48.5254 31.25C49.1285 33.3937 49.0945 35.6666 48.4276 37.7914C47.7607 39.9161 46.4898 41.8008 44.7698 43.2155C43.0499 44.6301 40.9554 45.5135 38.7419 45.7579C36.5284 46.0022 34.2916 45.597 32.3045 44.5916C30.7745 43.813 29.4391 42.7005 28.3969 41.3364C27.3546 39.9723 26.6322 38.3914 26.283 36.7106C25.9338 35.0298 25.9668 33.292 26.3794 31.6257C26.792 29.9593 27.5738 28.4069 28.667 27.0833H28.6628ZM30.9128 31.25C30.5024 32.1156 30.2666 33.0536 30.2187 34.0104C30.1708 34.9672 30.3119 35.924 30.6338 36.8263C30.9557 37.7286 31.4522 38.5586 32.0948 39.269C32.7375 39.9794 33.5139 40.5563 34.3795 40.9666C35.2451 41.377 36.1831 41.6129 37.1399 41.6608C38.0967 41.7086 39.0536 41.5676 39.9558 41.2457C40.8581 40.9238 41.6882 40.4273 42.3986 39.7846C43.109 39.1419 43.6858 38.3656 44.0962 37.5C44.925 35.7512 45.0252 33.7448 44.3747 31.9222C43.7241 30.0996 42.3762 28.61 40.6275 27.7812C38.8787 26.9524 36.8723 26.8523 35.0496 27.5028C33.227 28.1533 31.7375 29.5012 30.9087 31.25H30.9128Z" fill="#F44336"/>
<path d="M61.1878 51.1834C60.3941 49.7618 59.2799 48.5448 57.9336 47.6292C66.2503 46.3084 70.8336 40.6625 70.8336 35.4167V33.3334C70.8336 32.7808 70.6141 32.2509 70.2234 31.8602C69.8327 31.4695 69.3028 31.25 68.7503 31.25H52.8127C52.5183 29.7973 52.0174 28.3941 51.3252 27.0834H68.7503C70.4079 27.0834 71.9976 27.7419 73.1697 28.914C74.3418 30.0861 75.0003 31.6758 75.0003 33.3334V35.4167C75.0003 42.0292 69.9753 48.8 61.1878 51.1834V51.1834Z" fill="#F44336"/>
<path d="M56.1964 51.5417C55.0964 50.5834 53.6589 50 52.0839 50H22.917C22.0957 49.9978 21.2819 50.158 20.5227 50.4713C19.7634 50.7846 19.0735 51.2449 18.4927 51.8257C17.9119 52.4065 17.4516 53.0964 17.1383 53.8557C16.825 54.6149 16.6648 55.4286 16.667 56.25V58.3334C16.667 66.5459 24.4171 75 37.5005 75C50.5839 75 58.3339 66.5459 58.3339 58.3334V56.25C58.3339 54.375 57.5089 52.6917 56.1964 51.5417V51.5417ZM20.8337 56.25C20.8337 55.6975 21.0532 55.1676 21.4439 54.7769C21.8346 54.3862 22.3645 54.1667 22.917 54.1667H52.0839C52.6364 54.1667 53.1663 54.3862 53.557 54.7769C53.9477 55.1676 54.1672 55.6975 54.1672 56.25V58.3334C54.1672 64.325 48.2005 70.8334 37.5005 70.8334C26.8004 70.8334 20.8337 64.325 20.8337 58.3334V56.25Z" fill="#F44336"/>
<path d="M54.1669 0C57.2058 0 60.1203 1.20721 62.2692 3.35607C64.4181 5.50492 65.6253 8.41939 65.6253 11.4583C65.6253 14.4973 64.4181 17.4117 62.2692 19.5606C60.1203 21.7094 57.2058 22.9167 54.1669 22.9167C51.1279 22.9167 48.2134 21.7094 46.0646 19.5606C43.9157 17.4117 42.7085 14.4973 42.7085 11.4583C42.7085 8.41939 43.9157 5.50492 46.0646 3.35607C48.2134 1.20721 51.1279 0 54.1669 0V0ZM54.1669 4.16667C52.233 4.16667 50.3783 4.93489 49.0109 6.30234C47.6434 7.6698 46.8752 9.52446 46.8752 11.4583C46.8752 13.3922 47.6434 15.2469 49.0109 16.6143C50.3783 17.9818 52.233 18.75 54.1669 18.75C56.1008 18.75 57.9554 17.9818 59.3229 16.6143C60.6904 15.2469 61.4586 13.3922 61.4586 11.4583C61.4586 9.52446 60.6904 7.6698 59.3229 6.30234C57.9554 4.93489 56.1008 4.16667 54.1669 4.16667V4.16667Z" fill="#F44336"/>
</svg>
