<svg width="75" height="71" viewBox="0 0 75 71" fill="none" xmlns="http://www.w3.org/2000/svg">
<path d="M72.8027 15.7065H56.1035V2.6827C56.1035 1.47046 55.1197 0.487671 53.9062 0.487671H2.19727C0.983789 0.487671 0 1.47046 0 2.6827V59.4607C0 65.5124 4.92847 70.4359 10.9863 70.4359H64.0137C70.0715 70.4359 75 65.5124 75 59.4607V17.9016C75 16.6893 74.0162 15.7065 72.8027 15.7065ZM10.9863 66.0458C7.35161 66.0458 4.39453 63.0917 4.39453 59.4607V4.87773H51.709C51.709 62.8946 51.6813 59.6691 51.7594 60.4963C51.9504 62.5313 52.7101 64.4502 53.9114 66.0458H10.9863ZM70.6055 59.4607C70.6055 63.0917 67.6484 66.0458 64.0137 66.0458C63.5206 66.0458 63.1794 66.0458 62.6953 66.0458C59.0606 66.0458 56.1035 63.0917 56.1035 59.4607V20.0966H70.6055V59.4607Z" fill="#F44336"/>
<path d="M44.5312 11.0238H11.7188C10.5053 11.0238 9.52148 12.0066 9.52148 13.2188C9.52148 14.4311 10.5053 15.4139 11.7188 15.4139H44.5312C45.7447 15.4139 46.7285 14.4311 46.7285 13.2188C46.7285 12.0066 45.7447 11.0238 44.5312 11.0238Z" fill="#F44336"/>
<path d="M44.5312 20.3893H11.7188C10.5053 20.3893 9.52148 21.3721 9.52148 22.5843C9.52148 23.7965 10.5053 24.7793 11.7188 24.7793H44.5312C45.7447 24.7793 46.7285 23.7965 46.7285 22.5843C46.7285 21.3721 45.7447 20.3893 44.5312 20.3893Z" fill="#F44336"/>
<path d="M44.5312 55.5096H11.7188C10.5053 55.5096 9.52148 56.4924 9.52148 57.7047C9.52148 58.9169 10.5053 59.8997 11.7188 59.8997H44.5312C45.7447 59.8997 46.7285 58.9169 46.7285 57.7047C46.7285 56.4924 45.7447 55.5096 44.5312 55.5096Z" fill="#F44336"/>
<path d="M44.5312 29.7546H28.125C26.9115 29.7546 25.9277 30.7374 25.9277 31.9497V48.3392C25.9277 49.5514 26.9115 50.5342 28.125 50.5342H44.5312C45.7447 50.5342 46.7285 49.5514 46.7285 48.3392V31.9497C46.7285 30.7374 45.7447 29.7546 44.5312 29.7546ZM42.334 46.1442H30.3223V34.1447H42.334V46.1442Z" fill="#F44336"/>
<path d="M11.7188 37.6568H18.75C19.9635 37.6568 20.9473 36.674 20.9473 35.4618C20.9473 34.2495 19.9635 33.2667 18.75 33.2667H11.7188C10.5053 33.2667 9.52148 34.2495 9.52148 35.4618C9.52148 36.674 10.5053 37.6568 11.7188 37.6568Z" fill="#F44336"/>
<path d="M11.7188 47.0223H18.75C19.9635 47.0223 20.9473 46.0395 20.9473 44.8272C20.9473 43.615 19.9635 42.6322 18.75 42.6322H11.7188C10.5053 42.6322 9.52148 43.615 9.52148 44.8272C9.52148 46.0395 10.5053 47.0223 11.7188 47.0223Z" fill="#F44336"/>
</svg>
