<svg width="24" height="24" viewBox="0 0 24 24" fill="none" xmlns="http://www.w3.org/2000/svg">
<path d="M22.1062 1.17383H1.89383C0.849557 1.17383 0 2.02338 0 3.06766V16.4244C0 17.4687 0.849557 18.3182 1.89383 18.3182H8.71053V21.7402H6.14628C5.84644 21.7402 5.60329 21.9833 5.60329 22.2832C5.60329 22.5831 5.84644 22.8262 6.14628 22.8262H17.8537C18.1535 22.8262 18.3967 22.5831 18.3967 22.2832C18.3967 21.9833 18.1535 21.7402 17.8537 21.7402H15.2894V18.3182H22.1061C23.1503 18.3182 23.9999 17.4687 23.9999 16.4244V3.06766C24 2.02338 23.1504 1.17383 22.1062 1.17383ZM1.89383 2.2598H22.1062C22.5516 2.2598 22.914 2.62219 22.914 3.06766V14.8847H1.08597V3.06766C1.08597 2.62219 1.44836 2.2598 1.89383 2.2598ZM14.2035 21.7402H9.79651V18.3182H14.2035V21.7402ZM22.1062 17.2323H1.89383C1.44836 17.2323 1.08597 16.8699 1.08597 16.4244V15.9707H22.914V16.4244C22.914 16.8699 22.5516 17.2323 22.1062 17.2323Z" fill="black"/>
<path d="M8.36623 11.6301H15.6338C15.9336 11.6301 16.1768 11.387 16.1768 11.0871V6.05745C16.1768 5.75756 15.9336 5.51447 15.6338 5.51447H8.36623C8.06639 5.51447 7.82324 5.75756 7.82324 6.05745V11.0871C7.82324 11.3869 8.06639 11.6301 8.36623 11.6301ZM8.90922 6.60044H15.0908V10.5441H8.90922V6.60044Z" fill="black"/>
<path d="M17.2427 6.60044H17.6229C17.9227 6.60044 18.1659 6.35734 18.1659 6.05745C18.1659 5.75756 17.9227 5.51447 17.6229 5.51447H17.2427C16.9429 5.51447 16.6997 5.75756 16.6997 6.05745C16.6997 6.35734 16.9428 6.60044 17.2427 6.60044Z" fill="black"/>
<path d="M15.6338 4.99145C15.9336 4.99145 16.1768 4.74835 16.1768 4.44846V4.06832C16.1768 3.76842 15.9336 3.52533 15.6338 3.52533C15.334 3.52533 15.0908 3.76842 15.0908 4.06832V4.44846C15.0908 4.74835 15.3339 4.99145 15.6338 4.99145Z" fill="black"/>
<path d="M17.2427 11.63H17.6229C17.9227 11.63 18.1659 11.3869 18.1659 11.0871C18.1659 10.7872 17.9227 10.5441 17.6229 10.5441H17.2427C16.9429 10.5441 16.6997 10.7872 16.6997 11.0871C16.6997 11.3869 16.9428 11.63 17.2427 11.63Z" fill="black"/>
<path d="M15.6338 12.153C15.334 12.153 15.0908 12.3961 15.0908 12.696V13.0761C15.0908 13.376 15.334 13.6191 15.6338 13.6191C15.9336 13.6191 16.1768 13.376 16.1768 13.0761V12.696C16.1768 12.3961 15.9336 12.153 15.6338 12.153Z" fill="black"/>
<path d="M6.37746 6.60044H6.75765C7.05749 6.60044 7.30064 6.35734 7.30064 6.05745C7.30064 5.75756 7.05749 5.51447 6.75765 5.51447H6.37746C6.07762 5.51447 5.83447 5.75756 5.83447 6.05745C5.83447 6.35734 6.07762 6.60044 6.37746 6.60044Z" fill="black"/>
<path d="M8.36623 4.99145C8.66607 4.99145 8.90921 4.74835 8.90921 4.44846V4.06832C8.90921 3.76842 8.66607 3.52533 8.36623 3.52533C8.06639 3.52533 7.82324 3.76842 7.82324 4.06832V4.44846C7.82324 4.74835 8.06639 4.99145 8.36623 4.99145Z" fill="black"/>
<path d="M6.37746 11.63H6.75765C7.05749 11.63 7.30064 11.3869 7.30064 11.0871C7.30064 10.7872 7.05749 10.5441 6.75765 10.5441H6.37746C6.07762 10.5441 5.83447 10.7872 5.83447 11.0871C5.83447 11.3869 6.07762 11.63 6.37746 11.63Z" fill="black"/>
<path d="M8.36623 13.6191C8.66607 13.6191 8.90921 13.376 8.90921 13.0761V12.696C8.90921 12.3961 8.66607 12.153 8.36623 12.153C8.06639 12.153 7.82324 12.3961 7.82324 12.696V13.0761C7.82324 13.376 8.06639 13.6191 8.36623 13.6191Z" fill="black"/>
</svg>
