<?xml version="1.0" standalone="no"?>
<!DOCTYPE svg PUBLIC "-//W3C//DTD SVG 20010904//EN"
 "http://www.w3.org/TR/2001/REC-SVG-20010904/DTD/svg10.dtd">
<svg version="1.0" xmlns="http://www.w3.org/2000/svg"
 width="44.000000pt" height="59.000000pt" viewBox="0 0 44.000000 59.000000"
 preserveAspectRatio="xMidYMid meet">

<g transform="translate(0.000000,59.000000) scale(0.100000,-0.100000)"
fill="#fff" stroke="none">
<path d="M270 548 c-136 -52 -250 -236 -250 -403 0 -85 7 -101 51 -125 46 -24
80 -25 117 -6 44 23 192 181 192 205 0 11 -5 21 -11 21 -6 0 -49 -36 -96 -80
-90 -85 -135 -115 -160 -106 -13 5 -15 21 -11 84 5 94 44 175 125 262 60 66
153 122 153 94 0 -10 -6 -25 -14 -33 -13 -14 -12 -18 10 -28 22 -10 26 -8 41
13 25 39 24 70 -4 99 -32 31 -68 32 -143 3z m-184 -324 c-20 -56 -25 -63 -25
-38 -1 49 31 126 46 110 2 -1 -8 -34 -21 -72z"/>
</g>
</svg>
