<svg width="35" height="35" viewBox="0 0 35 35" fill="none" xmlns="http://www.w3.org/2000/svg">
<path fill-rule="evenodd" clip-rule="evenodd" d="M26.6601 0C31.7187 0 35 3.28125 35 8.33986V26.6601C35 31.7187 31.7187 35 26.6601 35H8.33986C3.28125 35 0 31.7187 0 26.6601V8.33986C0 3.28125 3.28125 0 8.33986 0H26.6601Z" fill="black"/>
<path fill-rule="evenodd" clip-rule="evenodd" d="M20.8158 6.70842C20.8158 6.70842 24.667 6.63011 26.3479 9.8772C26.3479 9.8772 27.6976 12.1844 26.3479 15.1451C26.3479 15.1451 25.6897 16.2838 24.405 17.0352C24.405 17.0352 27.4415 18.3592 27.4075 22.0463C27.4075 22.0463 27.5791 27.9494 21.3465 27.9842C15.1138 28.0193 9.625 27.9842 9.625 27.9842V6.70842H20.8158Z" stroke="#00EB00" stroke-width="2"/>
</svg>
