<svg width="35" height="35" viewBox="0 0 35 35" fill="none" xmlns="http://www.w3.org/2000/svg">
<path d="M29.8559 29.8481C33.1562 26.5694 35.0064 22.1285 35 17.5007C34.9965 17.2151 34.8794 16.9423 34.6741 16.7416C34.4687 16.5407 34.1918 16.4282 33.9031 16.4282C33.6144 16.4282 33.3374 16.5407 33.132 16.7416C32.9267 16.9423 32.8096 17.2151 32.8061 17.5007C32.8108 21.5562 31.1885 25.448 28.2959 28.3207C26.8917 29.7475 25.213 30.8814 23.3587 31.6558C21.5045 32.43 19.5123 32.8289 17.4998 32.8289C15.4873 32.8289 13.4952 32.43 11.6409 31.6558C9.78672 30.8814 8.10797 29.7475 6.70374 28.3207C3.81501 25.4451 2.19359 21.555 2.19359 17.5001C2.19359 13.4451 3.81501 9.55495 6.70374 6.67927C8.09979 5.26352 9.76594 4.13612 11.6056 3.36241C13.4452 2.58873 15.4218 2.18412 17.4206 2.17208C17.8474 2.18531 18.252 2.36304 18.5483 2.66735C18.8447 2.97164 19.009 3.37846 19.0065 3.80103C19.0041 4.2236 18.8349 4.62848 18.5351 4.92937C18.2352 5.23024 17.8285 5.40328 17.4016 5.4116C17.362 5.41167 17.3225 5.41385 17.2833 5.41809C14.2422 5.51501 11.3568 6.77162 9.23024 8.92517C6.98447 11.1625 5.72405 14.1881 5.72405 17.3417C5.72405 20.4953 6.98447 23.5208 9.23024 25.7581C10.3274 26.8704 11.6382 27.7542 13.0856 28.3576C14.533 28.9611 16.0878 29.2719 17.6583 29.2719C19.2288 29.2719 20.7837 28.9611 22.2311 28.3576C23.6783 27.7542 24.9892 26.8704 26.0864 25.7581C28.3356 23.5232 29.5966 20.4961 29.5921 17.3417C29.5967 16.8449 29.5018 16.3519 29.3129 15.8915C29.1239 15.4312 28.8447 15.0124 28.4912 14.6595C28.1378 14.3065 27.7173 14.0263 27.2538 13.8351C26.7904 13.6439 26.2934 13.5455 25.7912 13.5455C25.289 13.5455 24.792 13.6439 24.3286 13.8351C23.8652 14.0263 23.4446 14.3065 23.0912 14.6595C22.7377 15.0124 22.4586 15.4312 22.2695 15.8915C22.0806 16.3519 21.9857 16.8449 21.9903 17.3417C21.9903 17.3733 21.9924 17.4031 21.995 17.4335C21.9924 17.464 21.9903 17.4944 21.9903 17.5254C21.9975 18.3917 21.7445 19.2405 21.2633 19.9643C20.7822 20.6879 20.0947 21.2538 19.2881 21.5903C18.4814 21.9266 17.5919 22.0184 16.7326 21.8538C15.8731 21.689 15.0826 21.2755 14.4611 20.6655C13.8396 20.0554 13.4152 19.2764 13.2418 18.4273C13.0684 17.5782 13.1537 16.6972 13.487 15.8962C13.8203 15.0952 14.3866 14.4102 15.1139 13.9281C15.8412 13.4461 16.6969 13.1887 17.5722 13.1887C17.7174 13.1904 17.8615 13.1636 17.9961 13.1099C18.1307 13.0561 18.2532 12.9764 18.3564 12.8754C18.4597 12.7745 18.5418 12.6542 18.5977 12.5216C18.6537 12.3891 18.6825 12.2468 18.6825 12.1031C18.6825 11.9595 18.6537 11.8172 18.5977 11.6847C18.5418 11.5521 18.4597 11.4318 18.3564 11.3308C18.2532 11.2299 18.1307 11.1502 17.9961 11.0964C17.8615 11.0426 17.7174 11.0158 17.5722 11.0176C16.2732 11.0247 15.0053 11.4125 13.9287 12.1319C12.852 12.8513 12.0148 13.8702 11.5227 15.06C11.0306 16.2498 10.9055 17.5573 11.1634 18.8173C11.4213 20.0774 12.0505 21.2335 12.9716 22.1402C13.8927 23.0466 15.0646 23.6629 16.3393 23.9111C17.6138 24.1592 18.9343 24.0282 20.1338 23.5346C21.3332 23.0409 22.3582 22.2069 23.0792 21.1374C23.8002 20.0679 24.1848 18.811 24.1848 17.5254C24.1848 17.4937 24.1828 17.464 24.1802 17.4335C24.1828 17.4031 24.1848 17.3727 24.1848 17.3417C24.1805 17.1302 24.2189 16.9199 24.2978 16.7232C24.3766 16.5266 24.4944 16.3474 24.6439 16.1965C24.7936 16.0453 24.9723 15.9252 25.1693 15.8433C25.3664 15.7614 25.5781 15.7192 25.7918 15.7192C26.0056 15.7192 26.2173 15.7614 26.4144 15.8433C26.6114 15.9252 26.7901 16.0453 26.9398 16.1965C27.0893 16.3474 27.2071 16.5266 27.2859 16.7232C27.3648 16.9199 27.4032 17.1302 27.3989 17.3417C27.4017 19.9242 26.3688 22.4022 24.5268 24.2315C23.6337 25.1395 22.5658 25.8611 21.3862 26.354C20.2066 26.8468 18.9391 27.1006 17.6586 27.1006C16.3783 27.1006 15.1109 26.8468 13.9313 26.354C12.7517 25.8611 11.6838 25.1395 10.7907 24.2315C8.95115 22.4006 7.9186 19.9236 7.9186 17.3417C7.9186 14.7597 8.95115 12.2828 10.7907 10.4519C11.6845 9.54497 12.7524 8.82401 13.9317 8.33131C15.111 7.83859 16.3779 7.58409 17.658 7.58273C17.7564 7.58246 17.8544 7.56904 17.9493 7.54281C18.8832 7.40107 19.7312 6.9231 20.3308 6.20062C20.9305 5.47812 21.2394 4.56196 21.1984 3.62791C21.1574 2.69384 20.7693 1.80764 20.1086 1.13932C19.448 0.470986 18.5613 0.0675832 17.6186 0.00649524C17.5792 0.00225041 17.5395 8.22353e-05 17.4998 0C17.4777 0 17.4558 0 17.4337 0C17.4228 0 17.4123 0 17.4017 0C17.3911 0 17.3803 0.00126648 17.3697 0.00158332C15.0892 0.0193319 12.8349 0.483637 10.7366 1.36773C8.63831 2.25182 6.73763 3.53821 5.1441 5.15274C1.84923 8.43483 0 12.8735 0 17.5001C0 22.1266 1.84923 26.5651 5.1441 29.8473C6.75235 31.4782 8.67404 32.7744 10.796 33.6591C12.918 34.5441 15.1975 35 17.5002 35C19.8029 35 22.0822 34.5441 24.2044 33.6591C26.3263 32.7744 28.2479 31.4782 29.8562 29.8473L29.8559 29.8481Z" fill="url(#paint0_linear)"/>
<defs>
<linearGradient id="paint0_linear" x1="5.075" y1="29.785" x2="27.0899" y2="8.015" gradientUnits="userSpaceOnUse">
<stop stop-color="#41287B"/>
<stop offset="0.123" stop-color="#462779"/>
<stop offset="0.284" stop-color="#572775"/>
<stop offset="0.465" stop-color="#72266E"/>
<stop offset="0.663" stop-color="#982565"/>
<stop offset="0.87" stop-color="#C82459"/>
<stop offset="0.99" stop-color="#E72452"/>
</linearGradient>
</defs>
</svg>
