<svg width="50" height="35" viewBox="0 0 50 35" fill="none" xmlns="http://www.w3.org/2000/svg">
<path d="M11.275 6.09466V25.9685C11.2596 27.2178 10.6588 28.4117 9.60325 29.2905C8.5477 30.1694 7.12257 30.6624 5.63751 30.6624C4.15242 30.6624 2.72732 30.1694 1.67176 29.2905C0.616196 28.4117 0.0154443 27.2178 0 25.9685V6.09466C0.000970026 4.83687 0.595715 3.63089 1.65343 2.74196C2.71115 1.85304 4.14522 1.35396 5.64025 1.35451C6.5752 1.35242 7.49569 1.54824 8.31709 1.92395C8.32989 1.92857 8.33538 1.93421 8.34148 1.93421C8.34465 1.93713 8.34898 1.93896 8.35367 1.93934C8.82118 2.15393 9.24855 2.42532 9.62197 2.74476C10.1461 3.18406 10.5619 3.70613 10.8456 4.28101C11.1293 4.85588 11.2752 5.47223 11.275 6.09466Z" fill="url(#paint0_linear)"/>
<path d="M24.1585 10.3886V30.2573C24.1585 30.8801 24.0127 31.4969 23.7294 32.0722C23.4461 32.6477 23.0309 33.1705 22.5074 33.6109C21.9839 34.0513 21.3625 34.4007 20.6786 34.639C19.9946 34.8774 19.2616 35 18.5213 35C17.781 35 17.0479 34.8774 16.364 34.639C15.6801 34.4007 15.0587 34.0513 14.5352 33.6109C14.0117 33.1705 13.5965 32.6477 13.3132 32.0722C13.0299 31.4969 12.8841 30.8801 12.8841 30.2573V10.3886C12.8839 9.76541 13.0297 9.14826 13.3131 8.57252C13.5965 7.99672 14.012 7.47356 14.5357 7.03289C15.0595 6.59222 15.6814 6.24265 16.3657 6.00426C17.0501 5.76582 17.7836 5.64316 18.5243 5.64331C18.7256 5.64331 18.9207 5.65357 19.1097 5.66845H19.1225C20.5056 5.79495 21.7844 6.34664 22.7138 7.21762C23.6432 8.0886 24.1577 9.21762 24.1585 10.3881V10.3886Z" fill="url(#paint1_linear)"/>
<path d="M37.1158 4.74036V24.6142C37.1158 25.872 36.5219 27.0783 35.4647 27.9678C34.4075 28.8572 32.9737 29.3569 31.4786 29.3569C29.9836 29.3569 28.5497 28.8572 27.4925 27.9678C26.4353 27.0783 25.8414 25.872 25.8414 24.6142V4.74036C25.8414 4.11744 25.9873 3.50063 26.2709 2.92519C26.5544 2.34975 26.97 1.82697 27.4938 1.38674C28.0176 0.946508 28.6394 0.59746 29.3237 0.359544C30.008 0.121631 30.7413 -0.000480402 31.4817 0.000193753C31.7143 -0.0018226 31.9467 0.0119017 32.1768 0.0412341H32.189C33.4288 0.167437 34.5821 0.64085 35.4634 1.38531C35.9875 1.82562 36.4033 2.34861 36.6869 2.92433C36.9705 3.50005 37.1162 4.11717 37.1158 4.74036Z" fill="url(#paint2_linear)"/>
<path d="M50 10.1623V30.0315C50 30.6544 49.8541 31.2711 49.5708 31.8465C49.2876 32.4219 48.8723 32.9447 48.3489 33.3851C47.8254 33.8255 47.204 34.1749 46.5201 34.4132C45.8361 34.6516 45.103 34.7742 44.3628 34.7742C43.6225 34.7742 42.8894 34.6516 42.2055 34.4132C41.5216 34.1749 40.9001 33.8255 40.3767 33.3851C39.8532 32.9447 39.438 32.4219 39.1547 31.8465C38.8714 31.2711 38.7256 30.6544 38.7256 30.0315V10.1623C38.7255 9.53913 38.8713 8.92208 39.1547 8.34629C39.4381 7.77054 39.8536 7.24738 40.3774 6.80676C40.9011 6.36609 41.523 6.01658 42.2073 5.77813C42.8916 5.53969 43.6251 5.41698 44.3658 5.41703C45.1118 5.41447 45.8505 5.54036 46.5366 5.78691H46.5427C46.5458 5.78983 46.5502 5.79168 46.5549 5.79204C47.2261 6.02802 47.8353 6.37322 48.3476 6.80779C48.8732 7.24702 49.29 7.76977 49.5737 8.34562C49.8574 8.92147 50.0023 9.53897 50 10.1623Z" fill="url(#paint3_linear)"/>
<g style="mix-blend-mode:multiply" opacity="0.3">
<g style="mix-blend-mode:multiply" opacity="0.3">
<path d="M11.275 11.8147V25.9685C11.2596 27.2179 10.6588 28.4116 9.60325 29.2905C8.5477 30.1694 7.12257 30.6624 5.63751 30.6624C4.15242 30.6624 2.72732 30.1694 1.67176 29.2905C0.616196 28.4116 0.0154443 27.2179 0 25.9685V25.1528C0 25.1528 0.012196 25.2703 0.0365863 25.4858C0.0487814 25.7064 0.0853666 26.0301 0.146952 26.4246C0.250835 26.8947 0.431187 27.3506 0.682928 27.7794C1.12803 28.5411 1.82108 29.1807 2.68141 29.6239C3.54175 30.0671 4.534 30.2956 5.54269 30.2829C6.00015 30.2789 6.45507 30.2254 6.89635 30.1238C7.82855 29.903 8.66904 29.4678 9.32319 28.867C9.99307 28.2557 10.4342 27.4921 10.5915 26.6713C10.6037 26.5687 10.6342 26.4866 10.6403 26.3686L10.6653 26.0198C10.6768 25.8402 10.6708 25.5684 10.6768 25.3478C10.6768 24.8861 10.6829 24.4192 10.689 23.9627C10.689 23.0444 10.7256 22.1415 10.7384 21.2642C10.7805 19.5149 10.8476 17.883 10.9268 16.483C11.0738 13.682 11.275 11.8147 11.275 11.8147Z" fill="black"/>
</g>
</g>
<g style="mix-blend-mode:overlay" opacity="0.6">
<g style="mix-blend-mode:overlay" opacity="0.6">
<path d="M8.34209 1.93437C8.13008 1.87622 7.91428 1.82827 7.69575 1.79072C7.13239 1.68086 6.55391 1.63599 5.97623 1.65734C5.79456 1.66305 5.6135 1.67847 5.43416 1.70351C5.24525 1.72305 5.05791 1.75217 4.87318 1.79072C3.61531 2.03009 2.49347 2.62598 1.69573 3.47851C1.41764 3.76519 1.18406 4.08049 1.00061 4.4168C0.825471 4.74241 0.692593 5.08296 0.60427 5.43255C0.559414 5.6104 0.526635 5.79021 0.506097 5.9712L0.487805 6.10971C0.487805 6.11484 0.481708 6.19179 0.47561 6.2277C0.469512 6.32004 0.463416 6.41238 0.451831 6.4996C0.426831 6.8587 0.384147 7.19728 0.347562 7.51021C0.273268 8.20893 0.157267 8.9041 0 9.59301V6.09432C0.00112584 5.27146 0.256547 4.46304 0.74119 3.74833C1.22583 3.03363 1.92304 2.43723 2.76438 2.01768C3.60571 1.59813 4.56226 1.36985 5.54013 1.35524C6.518 1.34063 7.48355 1.5402 8.34209 1.93437Z" fill="white"/>
</g>
</g>
<g style="mix-blend-mode:multiply" opacity="0.3">
<g style="mix-blend-mode:multiply" opacity="0.3">
<path d="M24.1585 16.0874V30.2571C24.1585 30.8799 24.0127 31.4966 23.7294 32.0721C23.4461 32.6475 23.0309 33.1703 22.5074 33.6107C21.9839 34.0511 21.3625 34.4004 20.6786 34.6388C19.9946 34.8772 19.2616 34.9998 18.5213 34.9998C17.781 34.9998 17.0479 34.8772 16.364 34.6388C15.6801 34.4004 15.0587 34.0511 14.5352 33.6107C14.0117 33.1703 13.5965 32.6475 13.3132 32.0721C13.0299 31.4966 12.8841 30.8799 12.8841 30.2571V29.6825C12.8841 29.6825 12.8963 29.8005 12.9207 30.0155C12.9423 30.3262 12.9932 30.635 13.0731 30.9389C13.3485 31.9952 14.0484 32.9394 15.0548 33.6122C15.707 34.0442 16.4684 34.3443 17.2804 34.4894C17.4879 34.5247 17.6976 34.5504 17.9085 34.5663C18.1398 34.5797 18.3718 34.5832 18.6036 34.5766C19.0629 34.5554 19.5176 34.4881 19.9579 34.376C20.8699 34.1243 21.6833 33.6686 22.3109 33.0576C22.9546 32.4362 23.3661 31.6689 23.4939 30.8517C23.5298 30.6409 23.5502 30.4284 23.5548 30.2156L23.5609 29.5225C23.5609 29.0608 23.567 28.5991 23.5737 28.143C23.5737 27.235 23.6097 26.3372 23.6225 25.4651C23.6646 23.7307 23.7317 22.1101 23.8109 20.7198C23.9573 17.9399 24.1585 16.0874 24.1585 16.0874Z" fill="black"/>
</g>
</g>
<g style="mix-blend-mode:overlay" opacity="0.6">
<g style="mix-blend-mode:overlay" opacity="0.6">
<path d="M19.1097 5.66845C19.0548 5.67922 18.8414 5.70487 18.5061 5.74591C18.317 5.78695 18.0859 5.81773 17.8353 5.87929C17.5556 5.94798 17.2807 6.03001 17.0122 6.12502C16.7039 6.23968 16.4064 6.37362 16.1219 6.52568C15.8147 6.69687 15.5232 6.88719 15.25 7.09511C14.9709 7.32273 14.7178 7.57175 14.4939 7.83897C14.2634 8.11004 14.0672 8.40061 13.9085 8.70595C13.7539 9.0117 13.6356 9.32961 13.5554 9.65501C13.5145 9.81768 13.4838 9.9821 13.4634 10.1475L13.4329 10.3932L13.4207 10.6605C13.378 11.3633 13.3109 12.0194 13.2317 12.5843C13.1574 13.2168 13.0414 13.8453 12.8841 14.467V10.3886C12.8839 9.76541 13.0297 9.14826 13.3131 8.57252C13.5965 7.99672 14.012 7.47356 14.5357 7.03289C15.0595 6.59222 15.6814 6.24265 16.3657 6.00426C17.0501 5.76582 17.7836 5.64316 18.5243 5.64331C18.7256 5.64331 18.9207 5.65357 19.1097 5.66845Z" fill="white"/>
</g>
</g>
<g style="mix-blend-mode:multiply" opacity="0.3">
<g style="mix-blend-mode:multiply" opacity="0.3">
<path d="M37.1158 6.77197V24.6142C37.1158 25.8721 36.5219 27.0784 35.4647 27.9679C34.4075 28.8573 32.9737 29.357 31.4786 29.357C29.9836 29.357 28.5497 28.8573 27.4925 27.9679C26.4353 27.0784 25.8414 25.8721 25.8414 24.6142V24.2141C25.8414 24.2141 25.8536 24.3424 25.878 24.5835C25.9111 24.9286 25.9825 25.2704 26.0914 25.6044C26.2669 26.1132 26.5431 26.5934 26.9085 27.0249C27.367 27.5759 27.9646 28.0348 28.6585 28.369C29.464 28.7624 30.3795 28.9679 31.311 28.9646C31.8046 28.9692 32.2963 28.9104 32.7689 28.7901C33.2662 28.674 33.7392 28.494 34.1713 28.2566C35.0704 27.7599 35.7647 27.0413 36.1591 26.1995L36.2994 25.8814L36.3969 25.5474C36.4335 25.435 36.4396 25.3273 36.464 25.2196C36.4902 25.1029 36.5024 24.9844 36.5006 24.8656C36.5311 24.4039 36.5006 23.8448 36.5067 23.342C36.5128 22.3058 36.5189 21.2694 36.5311 20.2486C36.5311 19.2277 36.5677 18.2274 36.5799 17.2578C36.6225 15.3135 36.6896 13.5025 36.7689 11.9481C36.9146 8.83933 37.1158 6.77197 37.1158 6.77197Z" fill="black"/>
</g>
</g>
<g style="mix-blend-mode:overlay" opacity="0.6">
<g style="mix-blend-mode:overlay" opacity="0.6">
<path d="M32.1768 0.0412341C32.0975 0.0514942 31.8963 0.0771443 31.5975 0.107925C31.4146 0.118185 31.1768 0.184362 30.9207 0.220273C30.6398 0.285516 30.363 0.362737 30.0914 0.451638C29.7797 0.560934 29.4781 0.689539 29.189 0.836392C28.8736 0.99863 28.5759 1.18403 28.2994 1.39044C28.1524 1.49304 28.0244 1.61616 27.8908 1.72902C27.7689 1.8624 27.628 1.97988 27.5183 2.1189C27.28 2.38645 27.0775 2.67531 26.9146 2.98024C26.7462 3.28242 26.6175 3.59909 26.5305 3.92468C26.5061 4.08884 26.4451 4.21196 26.4268 4.4069L26.3963 4.67315L26.3902 4.74036V4.74549L26.3841 4.75011V4.78653L26.378 4.91991C26.3353 5.62786 26.2683 6.28451 26.189 6.84881C26.1149 7.48304 25.9989 8.11332 25.8414 8.73667V4.74036C25.8414 4.11744 25.9873 3.50063 26.2709 2.92519C26.5544 2.34975 26.97 1.82697 27.4938 1.38674C28.0176 0.946508 28.6394 0.59746 29.3237 0.359544C30.008 0.121631 30.7413 -0.000480402 31.4817 0.000193753C31.7143 -0.0018226 31.9467 0.0119017 32.1768 0.0412341Z" fill="white"/>
</g>
</g>
<g style="mix-blend-mode:overlay" opacity="0.6">
<g style="mix-blend-mode:overlay" opacity="0.6">
<path d="M46.5366 5.78691C46.4817 5.77613 46.2622 5.74022 45.9146 5.70483C45.7134 5.68431 45.4695 5.67353 45.1951 5.6684C44.8893 5.66743 44.5838 5.68302 44.2805 5.71509C43.9303 5.75895 43.5841 5.8222 43.2439 5.90439C42.8773 6.00386 42.5222 6.13108 42.1829 6.28452C41.4579 6.61833 40.8276 7.0804 40.3353 7.63885C40.0835 7.91839 39.8708 8.22132 39.7012 8.54174C39.5378 8.85155 39.4131 9.17474 39.3292 9.50619C39.2836 9.67333 39.253 9.84308 39.2378 10.0141L39.2195 10.1423L39.2134 10.168L39.2073 10.188L39.2012 10.2552C39.1951 10.3424 39.189 10.4245 39.1829 10.5117C39.1524 10.8503 39.1158 11.1735 39.0731 11.4659C38.9991 12.129 38.8831 12.7882 38.7256 13.4409V10.1623C38.7255 9.53913 38.8713 8.92208 39.1547 8.34629C39.4381 7.77054 39.8536 7.24738 40.3774 6.80676C40.9011 6.36609 41.523 6.01658 42.2073 5.77813C42.8916 5.53969 43.6251 5.41698 44.3658 5.41703C45.1118 5.41447 45.8505 5.54036 46.5366 5.78691Z" fill="white"/>
</g>
</g>
<g style="mix-blend-mode:multiply" opacity="0.3">
<g style="mix-blend-mode:multiply" opacity="0.3">
<path d="M50 17.2886V30.0316C50 30.6544 49.8541 31.2711 49.5708 31.8466C49.2876 32.422 48.8723 32.9448 48.3489 33.3852C47.8254 33.8256 47.204 34.1749 46.5201 34.4133C45.8361 34.6516 45.103 34.7743 44.3628 34.7743C43.6225 34.7743 42.8894 34.6516 42.2055 34.4133C41.5216 34.1749 40.9001 33.8256 40.3767 33.3852C39.8532 32.9448 39.438 32.422 39.1547 31.8466C38.8714 31.2711 38.7256 30.6544 38.7256 30.0316C38.7256 30.0316 38.7439 30.1393 38.7805 30.3445C38.7958 30.4662 38.8244 30.5864 38.8658 30.7036C38.9036 30.866 38.9566 31.0255 39.0244 31.1807C39.3337 31.9678 39.8874 32.671 40.6281 33.2176C41.3689 33.7641 42.2699 34.1342 43.2378 34.2896C43.439 34.3203 43.628 34.3306 43.8293 34.3511L44.1707 34.3562H44.3963L44.4756 34.346C44.9056 34.3272 45.3314 34.2651 45.7439 34.1613C46.5967 33.9391 47.3673 33.5362 47.9817 32.9911C48.2949 32.7112 48.5652 32.3994 48.7866 32.0631C48.9967 31.7222 49.1545 31.3602 49.2561 30.9858C49.3105 30.8037 49.3492 30.6185 49.3719 30.4318L49.3963 30.1137V30.0316L49.4024 29.9747V29.8161C49.4024 29.3852 49.4085 28.9538 49.4146 28.5285C49.4146 27.6821 49.4512 26.8407 49.4634 26.0353C49.5061 24.4142 49.5732 22.9008 49.6524 21.6081C49.7988 19.0118 50 17.2886 50 17.2886Z" fill="black"/>
</g>
</g>
<defs>
<linearGradient id="paint0_linear" x1="5.63751" y1="0.797642" x2="5.63751" y2="27.585" gradientUnits="userSpaceOnUse">
<stop stop-color="#FCC400"/>
<stop offset="0.162" stop-color="#FBC000"/>
<stop offset="0.307" stop-color="#FBB500"/>
<stop offset="0.446" stop-color="#FBA300"/>
<stop offset="0.581" stop-color="#FA8900"/>
<stop offset="0.712" stop-color="#FA6800"/>
<stop offset="0.842" stop-color="#F93F00"/>
<stop offset="0.967" stop-color="#F81000"/>
<stop offset="1" stop-color="#F80300"/>
</linearGradient>
<linearGradient id="paint1_linear" x1="18.5213" y1="6.08367" x2="18.5213" y2="35.822" gradientUnits="userSpaceOnUse">
<stop stop-color="#F58033"/>
<stop offset="1" stop-color="#A53826"/>
</linearGradient>
<linearGradient id="paint2_linear" x1="31.4786" y1="0.792638" x2="31.4786" y2="27.6248" gradientUnits="userSpaceOnUse">
<stop stop-color="#FCC400"/>
<stop offset="0.162" stop-color="#FBC000"/>
<stop offset="0.307" stop-color="#FBB500"/>
<stop offset="0.446" stop-color="#FBA300"/>
<stop offset="0.581" stop-color="#FA8900"/>
<stop offset="0.712" stop-color="#FA6800"/>
<stop offset="0.842" stop-color="#F93F00"/>
<stop offset="0.967" stop-color="#F81000"/>
<stop offset="1" stop-color="#F80300"/>
</linearGradient>
<linearGradient id="paint3_linear" x1="44.3628" y1="6.0922" x2="44.3628" y2="35.8311" gradientUnits="userSpaceOnUse">
<stop stop-color="#F58033"/>
<stop offset="1" stop-color="#A53826"/>
</linearGradient>
</defs>
</svg>
