<svg width="35" height="36" viewBox="0 0 35 36" fill="none" xmlns="http://www.w3.org/2000/svg">
<path d="M17.3599 0.000595252H0.000976562L3.65314 3.63839H17.3599C21.0716 3.63839 24.6311 5.11113 27.2556 7.73261C29.8801 10.3541 31.3547 13.9096 31.3547 17.6169C31.3547 21.3243 29.8801 24.8798 27.2556 27.5012C24.6311 30.1226 21.0716 31.5955 17.3599 31.5955H8.80342L12.1449 28.2626H17.3623C20.1882 28.2626 22.8984 27.1414 24.8965 25.1454C26.8948 23.1495 28.0175 20.4425 28.0175 17.6199C28.0175 14.7973 26.8948 12.0903 24.8965 10.0944C22.8984 8.09848 20.1882 6.97721 17.3623 6.97721H6.98838L10.7195 10.7016L15.3216 15.2948H17.3599C17.9762 15.2948 18.5672 15.5393 19.003 15.9745C19.4388 16.4098 19.6836 17.0002 19.6836 17.6157C19.6836 18.2313 19.4388 18.8216 19.003 19.2569C18.5672 19.6922 17.9762 19.9367 17.3599 19.9367H15.3278L11.5967 23.665H17.3599C18.1547 23.665 18.9417 23.5086 19.676 23.2049C20.4103 22.9011 21.0774 22.4558 21.6394 21.8944C22.2014 21.3331 22.6472 20.6667 22.9514 19.9333C23.2555 19.1998 23.4121 18.4137 23.4121 17.6199C23.4121 16.826 23.2555 16.0399 22.9514 15.3065C22.6472 14.5731 22.2014 13.9067 21.6394 13.3453C21.0774 12.784 20.4103 12.3387 19.676 12.0349C18.9417 11.7311 18.1547 11.5748 17.3599 11.5748H16.7478L15.8746 10.701H15.8973L17.3599 10.6972C19.1979 10.6972 20.9607 11.4265 22.2604 12.7247C23.5601 14.0228 24.2902 15.7836 24.2902 17.6195C24.2902 19.4554 23.5601 21.216 22.2604 22.5142C20.9607 23.8124 19.1979 24.5418 17.3599 24.5418H10.7145L3.65434 31.5948L0.00485247 35.2398H17.3599C22.0384 35.2398 26.5254 33.3834 29.8336 30.079C33.1419 26.7746 35.0002 22.293 35.0002 17.6199C35.0002 12.9468 33.1419 8.46512 29.8336 5.16075C26.5254 1.85638 22.0384 0 17.3599 0V0.000595252Z" fill="#0D988C"/>
<path d="M12.6615 17.6185L0 4.97192V30.2675L3.65186 26.6196L12.6615 17.6185Z" fill="#0A4B65"/>
</svg>
