<svg xmlns="http://www.w3.org/2000/svg" version="1.1" xmlns:xlink="http://www.w3.org/1999/xlink" xmlns:svgjs="http://svgjs.com/svgjs" width="2048" height="1080" preserveAspectRatio="none" viewBox="0 0 2048 1080"><g mask="url(&quot;#SvgjsMask1008&quot;)" fill="none"><rect width="2048" height="1080" x="0" y="0" fill="#1e3266"></rect><path d="M2184.5333333333338 1080L0 1080 L0 620.61Q96.54 614.75, 102.4 711.29Q173.96 612.19, 273.06666666666666 683.75Q330.12 638.41, 375.4666666666667 695.46Q388.78 606.37, 477.8666666666667 619.68Q549.76 520.91, 648.5333333333333 592.81Q793.45 567.06, 819.1999999999999 711.98Q836.7 627.09, 921.5999999999999 644.59Q927.08 547.67, 1023.9999999999999 553.15Q1180.04 538.53, 1194.6666666666665 694.57Q1195.15 592.65, 1297.0666666666666 593.13Q1387.78 513.17, 1467.7333333333333 603.88Q1507.04 540.78, 1570.1333333333334 580.09Q1676.65 515.94, 1740.8000000000002 622.46Q1861.94 572.93, 1911.466666666667 694.07Q1919.37 599.58, 2013.866666666667 607.48Q2104.91 527.85, 2184.5333333333338 618.89z" fill="#182f5d"></path><path d="M2116.266666666667 1080L0 1080 L0 789.04Q107.13 725.5, 170.66666666666666 832.63Q242.14 733.44, 341.3333333333333 804.91Q420.02 781.2, 443.73333333333335 859.89Q495.74 741.23, 614.4 793.24Q681.07 689.24, 785.0666666666666 755.91Q833.08 633.26, 955.7333333333332 681.28Q1062.72 617.6, 1126.3999999999999 724.58Q1200.75 628.26, 1297.0666666666666 702.61Q1373.04 676.18, 1399.4666666666667 752.15Q1492.97 743.25, 1501.8666666666668 836.76Q1580.12 744.35, 1672.5333333333335 822.6Q1740.7 720.1, 1843.2000000000003 788.26Q1887.93 730.58, 1945.6000000000004 775.31Q2056.12 715.17, 2116.266666666667 825.69z" fill="#25467d"></path><path d="M2116.2666666666673 1080L0 1080 L0 917.97Q46.66 862.23, 102.4 908.89Q178.61 882.69, 204.8 958.9Q212.38 864.09, 307.20000000000005 871.67Q340.1 802.16, 409.6 835.06Q506.98 761.78, 580.2666666666667 859.16Q720.66 828.89, 750.9333333333333 969.28Q823.08 870.76, 921.5999999999999 942.9Q942.13 792.77, 1092.2666666666667 813.3Q1153.56 772.19, 1194.6666666666667 833.49Q1347.78 815.94, 1365.3333333333335 969.06Q1373.11 874.43, 1467.7333333333336 882.21Q1503.11 815.19, 1570.1333333333337 850.57Q1694.56 804.33, 1740.8000000000004 928.75Q1856.42 873.71, 1911.4666666666672 989.33Q1916.13 891.6, 2013.8666666666672 896.26Q2047.38 827.37, 2116.2666666666673 860.89z" fill="#356cb1"></path><path d="M2116.266666666667 1080L0 1080 L0 1121.78Q11.62 962.74, 170.66666666666666 974.36Q214.67 915.96, 273.06666666666666 959.96Q400.62 916.84, 443.73333333333335 1044.39Q493.63 923.62, 614.4 973.52Q655.05 911.77, 716.8 952.42Q806.86 940.08, 819.1999999999999 1030.14Q853.79 962.33, 921.5999999999999 996.92Q965.74 938.65, 1023.9999999999999 982.79Q1119.02 975.41, 1126.3999999999999 1070.43Q1183.21 956.57, 1297.0666666666666 1013.38Q1398.89 944.54, 1467.7333333333333 1046.36Q1526.39 1002.62, 1570.1333333333334 1061.28Q1627.85 1016.6, 1672.5333333333335 1074.31Q1715.51 946.62, 1843.2000000000003 989.6Q1875.42 919.42, 1945.6000000000004 951.64Q2055.94 891.32, 2116.266666666667 1001.66z" fill="white"></path></g><defs><mask id="SvgjsMask1008"><rect width="2048" height="1080" fill="#ffffff"></rect></mask></defs></svg>