<svg xmlns="http://www.w3.org/2000/svg" version="1.1" xmlns:xlink="http://www.w3.org/1999/xlink" xmlns:svgjs="http://svgjs.com/svgjs" width="2048" height="1080" preserveAspectRatio="none" viewBox="0 0 2048 1080"><g mask="url(&quot;#SvgjsMask1014&quot;)" fill="none"><rect width="2048" height="1080" x="0" y="0" fill="url(#SvgjsLinearGradient1015)"></rect><path d="M106.99 55.54L158.08 85.04L158.08 144.04L106.99 173.54L55.89 144.04L55.89 85.04zM106.99 232.54L158.08 262.04L158.08 321.04L106.99 350.54L55.89 321.04L55.89 262.04zM106.99 409.54L158.08 439.04L158.08 498.04L106.99 527.54L55.89 498.04L55.89 439.04zM106.99 586.54L158.08 616.04L158.08 675.04L106.99 704.54L55.89 675.04L55.89 616.04zM55.89 675.04L106.99 704.54L106.99 763.54L55.89 793.04L4.79 763.54L4.79 704.54zM106.99 763.54L158.08 793.04L158.08 852.04L106.99 881.54L55.89 852.04L55.89 793.04zM106.99 940.54L158.08 970.04L158.08 1029.04L106.99 1058.54L55.89 1029.04L55.89 970.04zM158.08 -32.96L209.18 -3.46L209.18 55.54L158.08 85.04L106.99 55.54L106.99 -3.46zM158.08 321.04L209.18 350.54L209.18 409.54L158.08 439.04L106.99 409.54L106.99 350.54zM158.08 675.04L209.18 704.54L209.18 763.54L158.08 793.04L106.99 763.54L106.99 704.54zM158.08 852.04L209.18 881.54L209.18 940.54L158.08 970.04L106.99 940.54L106.99 881.54zM209.18 940.54L260.28 970.04L260.28 1029.04L209.18 1058.54L158.08 1029.04L158.08 970.04zM158.08 1029.04L209.18 1058.54L209.18 1117.54L158.08 1147.04L106.99 1117.54L106.99 1058.54zM260.28 -32.96L311.37 -3.46L311.37 55.54L260.28 85.04L209.18 55.54L209.18 -3.46zM260.28 321.04L311.37 350.54L311.37 409.54L260.28 439.04L209.18 409.54L209.18 350.54zM260.28 498.04L311.37 527.54L311.37 586.54L260.28 616.04L209.18 586.54L209.18 527.54zM311.37 586.54L362.47 616.04L362.47 675.04L311.37 704.54L260.28 675.04L260.28 616.04zM260.28 675.04L311.37 704.54L311.37 763.54L260.28 793.04L209.18 763.54L209.18 704.54zM311.37 763.54L362.47 793.04L362.47 852.04L311.37 881.54L260.28 852.04L260.28 793.04zM311.37 940.54L362.47 970.04L362.47 1029.04L311.37 1058.54L260.28 1029.04L260.28 970.04zM260.28 1029.04L311.37 1058.54L311.37 1117.54L260.28 1147.04L209.18 1117.54L209.18 1058.54zM362.47 -32.96L413.57 -3.46L413.57 55.54L362.47 85.04L311.37 55.54L311.37 -3.46zM413.57 232.54L464.67 262.04L464.67 321.04L413.57 350.54L362.47 321.04L362.47 262.04zM362.47 321.04L413.57 350.54L413.57 409.54L362.47 439.04L311.37 409.54L311.37 350.54zM413.57 586.54L464.67 616.04L464.67 675.04L413.57 704.54L362.47 675.04L362.47 616.04zM362.47 675.04L413.57 704.54L413.57 763.54L362.47 793.04L311.37 763.54L311.37 704.54zM413.57 763.54L464.67 793.04L464.67 852.04L413.57 881.54L362.47 852.04L362.47 793.04zM413.57 940.54L464.67 970.04L464.67 1029.04L413.57 1058.54L362.47 1029.04L362.47 970.04zM464.67 144.04L515.76 173.54L515.76 232.54L464.67 262.04L413.57 232.54L413.57 173.54zM464.67 321.04L515.76 350.54L515.76 409.54L464.67 439.04L413.57 409.54L413.57 350.54zM515.76 763.54L566.86 793.04L566.86 852.04L515.76 881.54L464.67 852.04L464.67 793.04zM566.86 -32.96L617.96 -3.46L617.96 55.54L566.86 85.04L515.76 55.54L515.76 -3.46zM617.96 232.54L669.05 262.04L669.05 321.04L617.96 350.54L566.86 321.04L566.86 262.04zM617.96 763.54L669.05 793.04L669.05 852.04L617.96 881.54L566.86 852.04L566.86 793.04zM566.86 1029.04L617.96 1058.54L617.96 1117.54L566.86 1147.04L515.76 1117.54L515.76 1058.54zM720.15 232.54L771.25 262.04L771.25 321.04L720.15 350.54L669.05 321.04L669.05 262.04zM720.15 409.54L771.25 439.04L771.25 498.04L720.15 527.54L669.05 498.04L669.05 439.04zM669.05 498.04L720.15 527.54L720.15 586.54L669.05 616.04L617.96 586.54L617.96 527.54zM720.15 586.54L771.25 616.04L771.25 675.04L720.15 704.54L669.05 675.04L669.05 616.04zM669.05 675.04L720.15 704.54L720.15 763.54L669.05 793.04L617.96 763.54L617.96 704.54zM669.05 1029.04L720.15 1058.54L720.15 1117.54L669.05 1147.04L617.96 1117.54L617.96 1058.54zM771.25 -32.96L822.34 -3.46L822.34 55.54L771.25 85.04L720.15 55.54L720.15 -3.46zM822.34 232.54L873.44 262.04L873.44 321.04L822.34 350.54L771.25 321.04L771.25 262.04zM771.25 498.04L822.34 527.54L822.34 586.54L771.25 616.04L720.15 586.54L720.15 527.54zM822.34 586.54L873.44 616.04L873.44 675.04L822.34 704.54L771.25 675.04L771.25 616.04zM822.34 763.54L873.44 793.04L873.44 852.04L822.34 881.54L771.25 852.04L771.25 793.04zM822.34 940.54L873.44 970.04L873.44 1029.04L822.34 1058.54L771.25 1029.04L771.25 970.04zM771.25 1029.04L822.34 1058.54L822.34 1117.54L771.25 1147.04L720.15 1117.54L720.15 1058.54zM873.44 -32.96L924.54 -3.46L924.54 55.54L873.44 85.04L822.34 55.54L822.34 -3.46zM873.44 144.04L924.54 173.54L924.54 232.54L873.44 262.04L822.34 232.54L822.34 173.54zM924.54 586.54L975.64 616.04L975.64 675.04L924.54 704.54L873.44 675.04L873.44 616.04zM924.54 763.54L975.64 793.04L975.64 852.04L924.54 881.54L873.44 852.04L873.44 793.04zM873.44 852.04L924.54 881.54L924.54 940.54L873.44 970.04L822.34 940.54L822.34 881.54zM924.54 940.54L975.64 970.04L975.64 1029.04L924.54 1058.54L873.44 1029.04L873.44 970.04zM975.64 -32.96L1026.73 -3.46L1026.73 55.54L975.64 85.04L924.54 55.54L924.54 -3.46zM975.64 144.04L1026.73 173.54L1026.73 232.54L975.64 262.04L924.54 232.54L924.54 173.54zM1026.73 232.54L1077.83 262.04L1077.83 321.04L1026.73 350.54L975.64 321.04L975.64 262.04zM975.64 675.04L1026.73 704.54L1026.73 763.54L975.64 793.04L924.54 763.54L924.54 704.54zM1026.73 763.54L1077.83 793.04L1077.83 852.04L1026.73 881.54L975.64 852.04L975.64 793.04zM975.64 852.04L1026.73 881.54L1026.73 940.54L975.64 970.04L924.54 940.54L924.54 881.54zM1026.73 940.54L1077.83 970.04L1077.83 1029.04L1026.73 1058.54L975.64 1029.04L975.64 970.04zM1077.83 -32.96L1128.93 -3.46L1128.93 55.54L1077.83 85.04L1026.73 55.54L1026.73 -3.46zM1128.93 55.54L1180.02 85.04L1180.02 144.04L1128.93 173.54L1077.83 144.04L1077.83 85.04zM1077.83 321.04L1128.93 350.54L1128.93 409.54L1077.83 439.04L1026.73 409.54L1026.73 350.54zM1077.83 498.04L1128.93 527.54L1128.93 586.54L1077.83 616.04L1026.73 586.54L1026.73 527.54zM1077.83 675.04L1128.93 704.54L1128.93 763.54L1077.83 793.04L1026.73 763.54L1026.73 704.54zM1128.93 940.54L1180.02 970.04L1180.02 1029.04L1128.93 1058.54L1077.83 1029.04L1077.83 970.04zM1180.02 -32.96L1231.12 -3.46L1231.12 55.54L1180.02 85.04L1128.93 55.54L1128.93 -3.46zM1231.12 55.54L1282.22 85.04L1282.22 144.04L1231.12 173.54L1180.02 144.04L1180.02 85.04zM1180.02 498.04L1231.12 527.54L1231.12 586.54L1180.02 616.04L1128.93 586.54L1128.93 527.54zM1180.02 675.04L1231.12 704.54L1231.12 763.54L1180.02 793.04L1128.93 763.54L1128.93 704.54zM1180.02 852.04L1231.12 881.54L1231.12 940.54L1180.02 970.04L1128.93 940.54L1128.93 881.54zM1231.12 940.54L1282.22 970.04L1282.22 1029.04L1231.12 1058.54L1180.02 1029.04L1180.02 970.04zM1282.22 144.04L1333.31 173.54L1333.31 232.54L1282.22 262.04L1231.12 232.54L1231.12 173.54zM1333.31 232.54L1384.41 262.04L1384.41 321.04L1333.31 350.54L1282.22 321.04L1282.22 262.04zM1282.22 498.04L1333.31 527.54L1333.31 586.54L1282.22 616.04L1231.12 586.54L1231.12 527.54zM1333.31 586.54L1384.41 616.04L1384.41 675.04L1333.31 704.54L1282.22 675.04L1282.22 616.04zM1333.31 763.54L1384.41 793.04L1384.41 852.04L1333.31 881.54L1282.22 852.04L1282.22 793.04zM1282.22 852.04L1333.31 881.54L1333.31 940.54L1282.22 970.04L1231.12 940.54L1231.12 881.54zM1282.22 1029.04L1333.31 1058.54L1333.31 1117.54L1282.22 1147.04L1231.12 1117.54L1231.12 1058.54zM1435.51 55.54L1486.6 85.04L1486.6 144.04L1435.51 173.54L1384.41 144.04L1384.41 85.04zM1384.41 321.04L1435.51 350.54L1435.51 409.54L1384.41 439.04L1333.31 409.54L1333.31 350.54zM1384.41 498.04L1435.51 527.54L1435.51 586.54L1384.41 616.04L1333.31 586.54L1333.31 527.54zM1435.51 586.54L1486.6 616.04L1486.6 675.04L1435.51 704.54L1384.41 675.04L1384.41 616.04zM1435.51 763.54L1486.6 793.04L1486.6 852.04L1435.51 881.54L1384.41 852.04L1384.41 793.04zM1384.41 852.04L1435.51 881.54L1435.51 940.54L1384.41 970.04L1333.31 940.54L1333.31 881.54zM1486.6 144.04L1537.7 173.54L1537.7 232.54L1486.6 262.04L1435.51 232.54L1435.51 173.54zM1537.7 232.54L1588.8 262.04L1588.8 321.04L1537.7 350.54L1486.6 321.04L1486.6 262.04zM1486.6 321.04L1537.7 350.54L1537.7 409.54L1486.6 439.04L1435.51 409.54L1435.51 350.54zM1537.7 409.54L1588.8 439.04L1588.8 498.04L1537.7 527.54L1486.6 498.04L1486.6 439.04zM1486.6 498.04L1537.7 527.54L1537.7 586.54L1486.6 616.04L1435.51 586.54L1435.51 527.54zM1537.7 586.54L1588.8 616.04L1588.8 675.04L1537.7 704.54L1486.6 675.04L1486.6 616.04zM1486.6 675.04L1537.7 704.54L1537.7 763.54L1486.6 793.04L1435.51 763.54L1435.51 704.54zM1537.7 940.54L1588.8 970.04L1588.8 1029.04L1537.7 1058.54L1486.6 1029.04L1486.6 970.04zM1639.9 55.54L1690.99 85.04L1690.99 144.04L1639.9 173.54L1588.8 144.04L1588.8 85.04zM1588.8 144.04L1639.9 173.54L1639.9 232.54L1588.8 262.04L1537.7 232.54L1537.7 173.54zM1588.8 498.04L1639.9 527.54L1639.9 586.54L1588.8 616.04L1537.7 586.54L1537.7 527.54zM1639.9 763.54L1690.99 793.04L1690.99 852.04L1639.9 881.54L1588.8 852.04L1588.8 793.04zM1588.8 852.04L1639.9 881.54L1639.9 940.54L1588.8 970.04L1537.7 940.54L1537.7 881.54zM1639.9 940.54L1690.99 970.04L1690.99 1029.04L1639.9 1058.54L1588.8 1029.04L1588.8 970.04zM1588.8 1029.04L1639.9 1058.54L1639.9 1117.54L1588.8 1147.04L1537.7 1117.54L1537.7 1058.54zM1690.99 144.04L1742.09 173.54L1742.09 232.54L1690.99 262.04L1639.9 232.54L1639.9 173.54zM1742.09 232.54L1793.19 262.04L1793.19 321.04L1742.09 350.54L1690.99 321.04L1690.99 262.04zM1742.09 586.54L1793.19 616.04L1793.19 675.04L1742.09 704.54L1690.99 675.04L1690.99 616.04zM1690.99 675.04L1742.09 704.54L1742.09 763.54L1690.99 793.04L1639.9 763.54L1639.9 704.54zM1690.99 852.04L1742.09 881.54L1742.09 940.54L1690.99 970.04L1639.9 940.54L1639.9 881.54zM1844.28 232.54L1895.38 262.04L1895.38 321.04L1844.28 350.54L1793.19 321.04L1793.19 262.04zM1793.19 321.04L1844.28 350.54L1844.28 409.54L1793.19 439.04L1742.09 409.54L1742.09 350.54zM1844.28 763.54L1895.38 793.04L1895.38 852.04L1844.28 881.54L1793.19 852.04L1793.19 793.04zM1793.19 852.04L1844.28 881.54L1844.28 940.54L1793.19 970.04L1742.09 940.54L1742.09 881.54zM1895.38 -32.96L1946.48 -3.46L1946.48 55.54L1895.38 85.04L1844.28 55.54L1844.28 -3.46zM1946.48 55.54L1997.57 85.04L1997.57 144.04L1946.48 173.54L1895.38 144.04L1895.38 85.04zM1895.38 144.04L1946.48 173.54L1946.48 232.54L1895.38 262.04L1844.28 232.54L1844.28 173.54zM1895.38 321.04L1946.48 350.54L1946.48 409.54L1895.38 439.04L1844.28 409.54L1844.28 350.54zM1946.48 409.54L1997.57 439.04L1997.57 498.04L1946.48 527.54L1895.38 498.04L1895.38 439.04zM1946.48 586.54L1997.57 616.04L1997.57 675.04L1946.48 704.54L1895.38 675.04L1895.38 616.04zM1997.57 -32.96L2048.67 -3.46L2048.67 55.54L1997.57 85.04L1946.48 55.54L1946.48 -3.46zM1997.57 144.04L2048.67 173.54L2048.67 232.54L1997.57 262.04L1946.48 232.54L1946.48 173.54zM2048.67 232.54L2099.77 262.04L2099.77 321.04L2048.67 350.54L1997.57 321.04L1997.57 262.04zM1997.57 321.04L2048.67 350.54L2048.67 409.54L1997.57 439.04L1946.48 409.54L1946.48 350.54zM2048.67 409.54L2099.77 439.04L2099.77 498.04L2048.67 527.54L1997.57 498.04L1997.57 439.04zM2048.67 586.54L2099.77 616.04L2099.77 675.04L2048.67 704.54L1997.57 675.04L1997.57 616.04zM1997.57 675.04L2048.67 704.54L2048.67 763.54L1997.57 793.04L1946.48 763.54L1946.48 704.54zM2048.67 763.54L2099.77 793.04L2099.77 852.04L2048.67 881.54L1997.57 852.04L1997.57 793.04zM2048.67 940.54L2099.77 970.04L2099.77 1029.04L2048.67 1058.54L1997.57 1029.04L1997.57 970.04zM1997.57 1029.04L2048.67 1058.54L2048.67 1117.54L1997.57 1147.04L1946.48 1117.54L1946.48 1058.54zM2099.77 -32.96L2150.86 -3.46L2150.86 55.54L2099.77 85.04L2048.67 55.54L2048.67 -3.46zM2150.86 409.54L2201.96 439.04L2201.96 498.04L2150.86 527.54L2099.77 498.04L2099.77 439.04zM2150.86 586.54L2201.96 616.04L2201.96 675.04L2150.86 704.54L2099.77 675.04L2099.77 616.04zM2099.77 675.04L2150.86 704.54L2150.86 763.54L2099.77 793.04L2048.67 763.54L2048.67 704.54zM2099.77 1029.04L2150.86 1058.54L2150.86 1117.54L2099.77 1147.04L2048.67 1117.54L2048.67 1058.54z" stroke="rgba(3, 48, 93, 1)" stroke-width="2"></path><path d="M101.09 55.54 a5.9 5.9 0 1 0 11.8 0 a5.9 5.9 0 1 0 -11.8 0zM152.18 85.04 a5.9 5.9 0 1 0 11.8 0 a5.9 5.9 0 1 0 -11.8 0zM152.18 144.04 a5.9 5.9 0 1 0 11.8 0 a5.9 5.9 0 1 0 -11.8 0zM101.09 173.54 a5.9 5.9 0 1 0 11.8 0 a5.9 5.9 0 1 0 -11.8 0zM49.99 144.04 a5.9 5.9 0 1 0 11.8 0 a5.9 5.9 0 1 0 -11.8 0zM49.99 85.04 a5.9 5.9 0 1 0 11.8 0 a5.9 5.9 0 1 0 -11.8 0zM101.09 232.54 a5.9 5.9 0 1 0 11.8 0 a5.9 5.9 0 1 0 -11.8 0zM152.18 262.04 a5.9 5.9 0 1 0 11.8 0 a5.9 5.9 0 1 0 -11.8 0zM152.18 321.04 a5.9 5.9 0 1 0 11.8 0 a5.9 5.9 0 1 0 -11.8 0zM101.09 350.54 a5.9 5.9 0 1 0 11.8 0 a5.9 5.9 0 1 0 -11.8 0zM49.99 321.04 a5.9 5.9 0 1 0 11.8 0 a5.9 5.9 0 1 0 -11.8 0zM49.99 262.04 a5.9 5.9 0 1 0 11.8 0 a5.9 5.9 0 1 0 -11.8 0zM101.09 409.54 a5.9 5.9 0 1 0 11.8 0 a5.9 5.9 0 1 0 -11.8 0zM152.18 439.04 a5.9 5.9 0 1 0 11.8 0 a5.9 5.9 0 1 0 -11.8 0zM152.18 498.04 a5.9 5.9 0 1 0 11.8 0 a5.9 5.9 0 1 0 -11.8 0zM101.09 527.54 a5.9 5.9 0 1 0 11.8 0 a5.9 5.9 0 1 0 -11.8 0zM49.99 498.04 a5.9 5.9 0 1 0 11.8 0 a5.9 5.9 0 1 0 -11.8 0zM49.99 439.04 a5.9 5.9 0 1 0 11.8 0 a5.9 5.9 0 1 0 -11.8 0zM101.09 586.54 a5.9 5.9 0 1 0 11.8 0 a5.9 5.9 0 1 0 -11.8 0zM152.18 616.04 a5.9 5.9 0 1 0 11.8 0 a5.9 5.9 0 1 0 -11.8 0zM152.18 675.04 a5.9 5.9 0 1 0 11.8 0 a5.9 5.9 0 1 0 -11.8 0zM101.09 704.54 a5.9 5.9 0 1 0 11.8 0 a5.9 5.9 0 1 0 -11.8 0zM49.99 675.04 a5.9 5.9 0 1 0 11.8 0 a5.9 5.9 0 1 0 -11.8 0zM49.99 616.04 a5.9 5.9 0 1 0 11.8 0 a5.9 5.9 0 1 0 -11.8 0zM101.09 763.54 a5.9 5.9 0 1 0 11.8 0 a5.9 5.9 0 1 0 -11.8 0zM49.99 793.04 a5.9 5.9 0 1 0 11.8 0 a5.9 5.9 0 1 0 -11.8 0zM-1.11 763.54 a5.9 5.9 0 1 0 11.8 0 a5.9 5.9 0 1 0 -11.8 0zM-1.11 704.54 a5.9 5.9 0 1 0 11.8 0 a5.9 5.9 0 1 0 -11.8 0zM152.18 793.04 a5.9 5.9 0 1 0 11.8 0 a5.9 5.9 0 1 0 -11.8 0zM152.18 852.04 a5.9 5.9 0 1 0 11.8 0 a5.9 5.9 0 1 0 -11.8 0zM101.09 881.54 a5.9 5.9 0 1 0 11.8 0 a5.9 5.9 0 1 0 -11.8 0zM49.99 852.04 a5.9 5.9 0 1 0 11.8 0 a5.9 5.9 0 1 0 -11.8 0zM101.09 940.54 a5.9 5.9 0 1 0 11.8 0 a5.9 5.9 0 1 0 -11.8 0zM152.18 970.04 a5.9 5.9 0 1 0 11.8 0 a5.9 5.9 0 1 0 -11.8 0zM152.18 1029.04 a5.9 5.9 0 1 0 11.8 0 a5.9 5.9 0 1 0 -11.8 0zM101.09 1058.54 a5.9 5.9 0 1 0 11.8 0 a5.9 5.9 0 1 0 -11.8 0zM49.99 1029.04 a5.9 5.9 0 1 0 11.8 0 a5.9 5.9 0 1 0 -11.8 0zM49.99 970.04 a5.9 5.9 0 1 0 11.8 0 a5.9 5.9 0 1 0 -11.8 0zM152.18 -32.96 a5.9 5.9 0 1 0 11.8 0 a5.9 5.9 0 1 0 -11.8 0zM203.28 -3.46 a5.9 5.9 0 1 0 11.8 0 a5.9 5.9 0 1 0 -11.8 0zM203.28 55.54 a5.9 5.9 0 1 0 11.8 0 a5.9 5.9 0 1 0 -11.8 0zM101.09 -3.46 a5.9 5.9 0 1 0 11.8 0 a5.9 5.9 0 1 0 -11.8 0zM203.28 350.54 a5.9 5.9 0 1 0 11.8 0 a5.9 5.9 0 1 0 -11.8 0zM203.28 409.54 a5.9 5.9 0 1 0 11.8 0 a5.9 5.9 0 1 0 -11.8 0zM203.28 704.54 a5.9 5.9 0 1 0 11.8 0 a5.9 5.9 0 1 0 -11.8 0zM203.28 763.54 a5.9 5.9 0 1 0 11.8 0 a5.9 5.9 0 1 0 -11.8 0zM203.28 881.54 a5.9 5.9 0 1 0 11.8 0 a5.9 5.9 0 1 0 -11.8 0zM203.28 940.54 a5.9 5.9 0 1 0 11.8 0 a5.9 5.9 0 1 0 -11.8 0zM254.38 970.04 a5.9 5.9 0 1 0 11.8 0 a5.9 5.9 0 1 0 -11.8 0zM254.38 1029.04 a5.9 5.9 0 1 0 11.8 0 a5.9 5.9 0 1 0 -11.8 0zM203.28 1058.54 a5.9 5.9 0 1 0 11.8 0 a5.9 5.9 0 1 0 -11.8 0zM203.28 1117.54 a5.9 5.9 0 1 0 11.8 0 a5.9 5.9 0 1 0 -11.8 0zM152.18 1147.04 a5.9 5.9 0 1 0 11.8 0 a5.9 5.9 0 1 0 -11.8 0zM101.09 1117.54 a5.9 5.9 0 1 0 11.8 0 a5.9 5.9 0 1 0 -11.8 0zM254.38 -32.96 a5.9 5.9 0 1 0 11.8 0 a5.9 5.9 0 1 0 -11.8 0zM305.47 -3.46 a5.9 5.9 0 1 0 11.8 0 a5.9 5.9 0 1 0 -11.8 0zM305.47 55.54 a5.9 5.9 0 1 0 11.8 0 a5.9 5.9 0 1 0 -11.8 0zM254.38 85.04 a5.9 5.9 0 1 0 11.8 0 a5.9 5.9 0 1 0 -11.8 0zM254.38 321.04 a5.9 5.9 0 1 0 11.8 0 a5.9 5.9 0 1 0 -11.8 0zM305.47 350.54 a5.9 5.9 0 1 0 11.8 0 a5.9 5.9 0 1 0 -11.8 0zM305.47 409.54 a5.9 5.9 0 1 0 11.8 0 a5.9 5.9 0 1 0 -11.8 0zM254.38 439.04 a5.9 5.9 0 1 0 11.8 0 a5.9 5.9 0 1 0 -11.8 0zM254.38 498.04 a5.9 5.9 0 1 0 11.8 0 a5.9 5.9 0 1 0 -11.8 0zM305.47 527.54 a5.9 5.9 0 1 0 11.8 0 a5.9 5.9 0 1 0 -11.8 0zM305.47 586.54 a5.9 5.9 0 1 0 11.8 0 a5.9 5.9 0 1 0 -11.8 0zM254.38 616.04 a5.9 5.9 0 1 0 11.8 0 a5.9 5.9 0 1 0 -11.8 0zM203.28 586.54 a5.9 5.9 0 1 0 11.8 0 a5.9 5.9 0 1 0 -11.8 0zM203.28 527.54 a5.9 5.9 0 1 0 11.8 0 a5.9 5.9 0 1 0 -11.8 0zM356.57 616.04 a5.9 5.9 0 1 0 11.8 0 a5.9 5.9 0 1 0 -11.8 0zM356.57 675.04 a5.9 5.9 0 1 0 11.8 0 a5.9 5.9 0 1 0 -11.8 0zM305.47 704.54 a5.9 5.9 0 1 0 11.8 0 a5.9 5.9 0 1 0 -11.8 0zM254.38 675.04 a5.9 5.9 0 1 0 11.8 0 a5.9 5.9 0 1 0 -11.8 0zM305.47 763.54 a5.9 5.9 0 1 0 11.8 0 a5.9 5.9 0 1 0 -11.8 0zM254.38 793.04 a5.9 5.9 0 1 0 11.8 0 a5.9 5.9 0 1 0 -11.8 0zM356.57 793.04 a5.9 5.9 0 1 0 11.8 0 a5.9 5.9 0 1 0 -11.8 0zM356.57 852.04 a5.9 5.9 0 1 0 11.8 0 a5.9 5.9 0 1 0 -11.8 0zM305.47 881.54 a5.9 5.9 0 1 0 11.8 0 a5.9 5.9 0 1 0 -11.8 0zM254.38 852.04 a5.9 5.9 0 1 0 11.8 0 a5.9 5.9 0 1 0 -11.8 0zM305.47 940.54 a5.9 5.9 0 1 0 11.8 0 a5.9 5.9 0 1 0 -11.8 0zM356.57 970.04 a5.9 5.9 0 1 0 11.8 0 a5.9 5.9 0 1 0 -11.8 0zM356.57 1029.04 a5.9 5.9 0 1 0 11.8 0 a5.9 5.9 0 1 0 -11.8 0zM305.47 1058.54 a5.9 5.9 0 1 0 11.8 0 a5.9 5.9 0 1 0 -11.8 0zM305.47 1117.54 a5.9 5.9 0 1 0 11.8 0 a5.9 5.9 0 1 0 -11.8 0zM254.38 1147.04 a5.9 5.9 0 1 0 11.8 0 a5.9 5.9 0 1 0 -11.8 0zM356.57 -32.96 a5.9 5.9 0 1 0 11.8 0 a5.9 5.9 0 1 0 -11.8 0zM407.67 -3.46 a5.9 5.9 0 1 0 11.8 0 a5.9 5.9 0 1 0 -11.8 0zM407.67 55.54 a5.9 5.9 0 1 0 11.8 0 a5.9 5.9 0 1 0 -11.8 0zM356.57 85.04 a5.9 5.9 0 1 0 11.8 0 a5.9 5.9 0 1 0 -11.8 0zM407.67 232.54 a5.9 5.9 0 1 0 11.8 0 a5.9 5.9 0 1 0 -11.8 0zM458.77 262.04 a5.9 5.9 0 1 0 11.8 0 a5.9 5.9 0 1 0 -11.8 0zM458.77 321.04 a5.9 5.9 0 1 0 11.8 0 a5.9 5.9 0 1 0 -11.8 0zM407.67 350.54 a5.9 5.9 0 1 0 11.8 0 a5.9 5.9 0 1 0 -11.8 0zM356.57 321.04 a5.9 5.9 0 1 0 11.8 0 a5.9 5.9 0 1 0 -11.8 0zM356.57 262.04 a5.9 5.9 0 1 0 11.8 0 a5.9 5.9 0 1 0 -11.8 0zM407.67 409.54 a5.9 5.9 0 1 0 11.8 0 a5.9 5.9 0 1 0 -11.8 0zM356.57 439.04 a5.9 5.9 0 1 0 11.8 0 a5.9 5.9 0 1 0 -11.8 0zM407.67 586.54 a5.9 5.9 0 1 0 11.8 0 a5.9 5.9 0 1 0 -11.8 0zM458.77 616.04 a5.9 5.9 0 1 0 11.8 0 a5.9 5.9 0 1 0 -11.8 0zM458.77 675.04 a5.9 5.9 0 1 0 11.8 0 a5.9 5.9 0 1 0 -11.8 0zM407.67 704.54 a5.9 5.9 0 1 0 11.8 0 a5.9 5.9 0 1 0 -11.8 0zM407.67 763.54 a5.9 5.9 0 1 0 11.8 0 a5.9 5.9 0 1 0 -11.8 0zM458.77 793.04 a5.9 5.9 0 1 0 11.8 0 a5.9 5.9 0 1 0 -11.8 0zM458.77 852.04 a5.9 5.9 0 1 0 11.8 0 a5.9 5.9 0 1 0 -11.8 0zM407.67 881.54 a5.9 5.9 0 1 0 11.8 0 a5.9 5.9 0 1 0 -11.8 0zM407.67 940.54 a5.9 5.9 0 1 0 11.8 0 a5.9 5.9 0 1 0 -11.8 0zM458.77 970.04 a5.9 5.9 0 1 0 11.8 0 a5.9 5.9 0 1 0 -11.8 0zM458.77 1029.04 a5.9 5.9 0 1 0 11.8 0 a5.9 5.9 0 1 0 -11.8 0zM407.67 1058.54 a5.9 5.9 0 1 0 11.8 0 a5.9 5.9 0 1 0 -11.8 0zM458.77 144.04 a5.9 5.9 0 1 0 11.8 0 a5.9 5.9 0 1 0 -11.8 0zM509.86 173.54 a5.9 5.9 0 1 0 11.8 0 a5.9 5.9 0 1 0 -11.8 0zM509.86 232.54 a5.9 5.9 0 1 0 11.8 0 a5.9 5.9 0 1 0 -11.8 0zM407.67 173.54 a5.9 5.9 0 1 0 11.8 0 a5.9 5.9 0 1 0 -11.8 0zM509.86 350.54 a5.9 5.9 0 1 0 11.8 0 a5.9 5.9 0 1 0 -11.8 0zM509.86 409.54 a5.9 5.9 0 1 0 11.8 0 a5.9 5.9 0 1 0 -11.8 0zM458.77 439.04 a5.9 5.9 0 1 0 11.8 0 a5.9 5.9 0 1 0 -11.8 0zM509.86 763.54 a5.9 5.9 0 1 0 11.8 0 a5.9 5.9 0 1 0 -11.8 0zM560.96 793.04 a5.9 5.9 0 1 0 11.8 0 a5.9 5.9 0 1 0 -11.8 0zM560.96 852.04 a5.9 5.9 0 1 0 11.8 0 a5.9 5.9 0 1 0 -11.8 0zM509.86 881.54 a5.9 5.9 0 1 0 11.8 0 a5.9 5.9 0 1 0 -11.8 0zM560.96 -32.96 a5.9 5.9 0 1 0 11.8 0 a5.9 5.9 0 1 0 -11.8 0zM612.06 -3.46 a5.9 5.9 0 1 0 11.8 0 a5.9 5.9 0 1 0 -11.8 0zM612.06 55.54 a5.9 5.9 0 1 0 11.8 0 a5.9 5.9 0 1 0 -11.8 0zM560.96 85.04 a5.9 5.9 0 1 0 11.8 0 a5.9 5.9 0 1 0 -11.8 0zM509.86 55.54 a5.9 5.9 0 1 0 11.8 0 a5.9 5.9 0 1 0 -11.8 0zM509.86 -3.46 a5.9 5.9 0 1 0 11.8 0 a5.9 5.9 0 1 0 -11.8 0zM612.06 232.54 a5.9 5.9 0 1 0 11.8 0 a5.9 5.9 0 1 0 -11.8 0zM663.15 262.04 a5.9 5.9 0 1 0 11.8 0 a5.9 5.9 0 1 0 -11.8 0zM663.15 321.04 a5.9 5.9 0 1 0 11.8 0 a5.9 5.9 0 1 0 -11.8 0zM612.06 350.54 a5.9 5.9 0 1 0 11.8 0 a5.9 5.9 0 1 0 -11.8 0zM560.96 321.04 a5.9 5.9 0 1 0 11.8 0 a5.9 5.9 0 1 0 -11.8 0zM560.96 262.04 a5.9 5.9 0 1 0 11.8 0 a5.9 5.9 0 1 0 -11.8 0zM612.06 763.54 a5.9 5.9 0 1 0 11.8 0 a5.9 5.9 0 1 0 -11.8 0zM663.15 793.04 a5.9 5.9 0 1 0 11.8 0 a5.9 5.9 0 1 0 -11.8 0zM663.15 852.04 a5.9 5.9 0 1 0 11.8 0 a5.9 5.9 0 1 0 -11.8 0zM612.06 881.54 a5.9 5.9 0 1 0 11.8 0 a5.9 5.9 0 1 0 -11.8 0zM560.96 1029.04 a5.9 5.9 0 1 0 11.8 0 a5.9 5.9 0 1 0 -11.8 0zM612.06 1058.54 a5.9 5.9 0 1 0 11.8 0 a5.9 5.9 0 1 0 -11.8 0zM612.06 1117.54 a5.9 5.9 0 1 0 11.8 0 a5.9 5.9 0 1 0 -11.8 0zM560.96 1147.04 a5.9 5.9 0 1 0 11.8 0 a5.9 5.9 0 1 0 -11.8 0zM509.86 1117.54 a5.9 5.9 0 1 0 11.8 0 a5.9 5.9 0 1 0 -11.8 0zM509.86 1058.54 a5.9 5.9 0 1 0 11.8 0 a5.9 5.9 0 1 0 -11.8 0zM714.25 232.54 a5.9 5.9 0 1 0 11.8 0 a5.9 5.9 0 1 0 -11.8 0zM765.35 262.04 a5.9 5.9 0 1 0 11.8 0 a5.9 5.9 0 1 0 -11.8 0zM765.35 321.04 a5.9 5.9 0 1 0 11.8 0 a5.9 5.9 0 1 0 -11.8 0zM714.25 350.54 a5.9 5.9 0 1 0 11.8 0 a5.9 5.9 0 1 0 -11.8 0zM714.25 409.54 a5.9 5.9 0 1 0 11.8 0 a5.9 5.9 0 1 0 -11.8 0zM765.35 439.04 a5.9 5.9 0 1 0 11.8 0 a5.9 5.9 0 1 0 -11.8 0zM765.35 498.04 a5.9 5.9 0 1 0 11.8 0 a5.9 5.9 0 1 0 -11.8 0zM714.25 527.54 a5.9 5.9 0 1 0 11.8 0 a5.9 5.9 0 1 0 -11.8 0zM663.15 498.04 a5.9 5.9 0 1 0 11.8 0 a5.9 5.9 0 1 0 -11.8 0zM663.15 439.04 a5.9 5.9 0 1 0 11.8 0 a5.9 5.9 0 1 0 -11.8 0zM714.25 586.54 a5.9 5.9 0 1 0 11.8 0 a5.9 5.9 0 1 0 -11.8 0zM663.15 616.04 a5.9 5.9 0 1 0 11.8 0 a5.9 5.9 0 1 0 -11.8 0zM612.06 586.54 a5.9 5.9 0 1 0 11.8 0 a5.9 5.9 0 1 0 -11.8 0zM612.06 527.54 a5.9 5.9 0 1 0 11.8 0 a5.9 5.9 0 1 0 -11.8 0zM765.35 616.04 a5.9 5.9 0 1 0 11.8 0 a5.9 5.9 0 1 0 -11.8 0zM765.35 675.04 a5.9 5.9 0 1 0 11.8 0 a5.9 5.9 0 1 0 -11.8 0zM714.25 704.54 a5.9 5.9 0 1 0 11.8 0 a5.9 5.9 0 1 0 -11.8 0zM663.15 675.04 a5.9 5.9 0 1 0 11.8 0 a5.9 5.9 0 1 0 -11.8 0zM714.25 763.54 a5.9 5.9 0 1 0 11.8 0 a5.9 5.9 0 1 0 -11.8 0zM612.06 704.54 a5.9 5.9 0 1 0 11.8 0 a5.9 5.9 0 1 0 -11.8 0zM663.15 1029.04 a5.9 5.9 0 1 0 11.8 0 a5.9 5.9 0 1 0 -11.8 0zM714.25 1058.54 a5.9 5.9 0 1 0 11.8 0 a5.9 5.9 0 1 0 -11.8 0zM714.25 1117.54 a5.9 5.9 0 1 0 11.8 0 a5.9 5.9 0 1 0 -11.8 0zM663.15 1147.04 a5.9 5.9 0 1 0 11.8 0 a5.9 5.9 0 1 0 -11.8 0zM765.35 -32.96 a5.9 5.9 0 1 0 11.8 0 a5.9 5.9 0 1 0 -11.8 0zM816.44 -3.46 a5.9 5.9 0 1 0 11.8 0 a5.9 5.9 0 1 0 -11.8 0zM816.44 55.54 a5.9 5.9 0 1 0 11.8 0 a5.9 5.9 0 1 0 -11.8 0zM765.35 85.04 a5.9 5.9 0 1 0 11.8 0 a5.9 5.9 0 1 0 -11.8 0zM714.25 55.54 a5.9 5.9 0 1 0 11.8 0 a5.9 5.9 0 1 0 -11.8 0zM714.25 -3.46 a5.9 5.9 0 1 0 11.8 0 a5.9 5.9 0 1 0 -11.8 0zM816.44 232.54 a5.9 5.9 0 1 0 11.8 0 a5.9 5.9 0 1 0 -11.8 0zM867.54 262.04 a5.9 5.9 0 1 0 11.8 0 a5.9 5.9 0 1 0 -11.8 0zM867.54 321.04 a5.9 5.9 0 1 0 11.8 0 a5.9 5.9 0 1 0 -11.8 0zM816.44 350.54 a5.9 5.9 0 1 0 11.8 0 a5.9 5.9 0 1 0 -11.8 0zM816.44 527.54 a5.9 5.9 0 1 0 11.8 0 a5.9 5.9 0 1 0 -11.8 0zM816.44 586.54 a5.9 5.9 0 1 0 11.8 0 a5.9 5.9 0 1 0 -11.8 0zM867.54 616.04 a5.9 5.9 0 1 0 11.8 0 a5.9 5.9 0 1 0 -11.8 0zM867.54 675.04 a5.9 5.9 0 1 0 11.8 0 a5.9 5.9 0 1 0 -11.8 0zM816.44 704.54 a5.9 5.9 0 1 0 11.8 0 a5.9 5.9 0 1 0 -11.8 0zM816.44 763.54 a5.9 5.9 0 1 0 11.8 0 a5.9 5.9 0 1 0 -11.8 0zM867.54 793.04 a5.9 5.9 0 1 0 11.8 0 a5.9 5.9 0 1 0 -11.8 0zM867.54 852.04 a5.9 5.9 0 1 0 11.8 0 a5.9 5.9 0 1 0 -11.8 0zM816.44 881.54 a5.9 5.9 0 1 0 11.8 0 a5.9 5.9 0 1 0 -11.8 0zM765.35 852.04 a5.9 5.9 0 1 0 11.8 0 a5.9 5.9 0 1 0 -11.8 0zM765.35 793.04 a5.9 5.9 0 1 0 11.8 0 a5.9 5.9 0 1 0 -11.8 0zM816.44 940.54 a5.9 5.9 0 1 0 11.8 0 a5.9 5.9 0 1 0 -11.8 0zM867.54 970.04 a5.9 5.9 0 1 0 11.8 0 a5.9 5.9 0 1 0 -11.8 0zM867.54 1029.04 a5.9 5.9 0 1 0 11.8 0 a5.9 5.9 0 1 0 -11.8 0zM816.44 1058.54 a5.9 5.9 0 1 0 11.8 0 a5.9 5.9 0 1 0 -11.8 0zM765.35 1029.04 a5.9 5.9 0 1 0 11.8 0 a5.9 5.9 0 1 0 -11.8 0zM765.35 970.04 a5.9 5.9 0 1 0 11.8 0 a5.9 5.9 0 1 0 -11.8 0zM816.44 1117.54 a5.9 5.9 0 1 0 11.8 0 a5.9 5.9 0 1 0 -11.8 0zM765.35 1147.04 a5.9 5.9 0 1 0 11.8 0 a5.9 5.9 0 1 0 -11.8 0zM867.54 -32.96 a5.9 5.9 0 1 0 11.8 0 a5.9 5.9 0 1 0 -11.8 0zM918.64 -3.46 a5.9 5.9 0 1 0 11.8 0 a5.9 5.9 0 1 0 -11.8 0zM918.64 55.54 a5.9 5.9 0 1 0 11.8 0 a5.9 5.9 0 1 0 -11.8 0zM867.54 85.04 a5.9 5.9 0 1 0 11.8 0 a5.9 5.9 0 1 0 -11.8 0zM867.54 144.04 a5.9 5.9 0 1 0 11.8 0 a5.9 5.9 0 1 0 -11.8 0zM918.64 173.54 a5.9 5.9 0 1 0 11.8 0 a5.9 5.9 0 1 0 -11.8 0zM918.64 232.54 a5.9 5.9 0 1 0 11.8 0 a5.9 5.9 0 1 0 -11.8 0zM816.44 173.54 a5.9 5.9 0 1 0 11.8 0 a5.9 5.9 0 1 0 -11.8 0zM918.64 586.54 a5.9 5.9 0 1 0 11.8 0 a5.9 5.9 0 1 0 -11.8 0zM969.74 616.04 a5.9 5.9 0 1 0 11.8 0 a5.9 5.9 0 1 0 -11.8 0zM969.74 675.04 a5.9 5.9 0 1 0 11.8 0 a5.9 5.9 0 1 0 -11.8 0zM918.64 704.54 a5.9 5.9 0 1 0 11.8 0 a5.9 5.9 0 1 0 -11.8 0zM918.64 763.54 a5.9 5.9 0 1 0 11.8 0 a5.9 5.9 0 1 0 -11.8 0zM969.74 793.04 a5.9 5.9 0 1 0 11.8 0 a5.9 5.9 0 1 0 -11.8 0zM969.74 852.04 a5.9 5.9 0 1 0 11.8 0 a5.9 5.9 0 1 0 -11.8 0zM918.64 881.54 a5.9 5.9 0 1 0 11.8 0 a5.9 5.9 0 1 0 -11.8 0zM918.64 940.54 a5.9 5.9 0 1 0 11.8 0 a5.9 5.9 0 1 0 -11.8 0zM969.74 970.04 a5.9 5.9 0 1 0 11.8 0 a5.9 5.9 0 1 0 -11.8 0zM969.74 1029.04 a5.9 5.9 0 1 0 11.8 0 a5.9 5.9 0 1 0 -11.8 0zM918.64 1058.54 a5.9 5.9 0 1 0 11.8 0 a5.9 5.9 0 1 0 -11.8 0zM969.74 -32.96 a5.9 5.9 0 1 0 11.8 0 a5.9 5.9 0 1 0 -11.8 0zM1020.83 -3.46 a5.9 5.9 0 1 0 11.8 0 a5.9 5.9 0 1 0 -11.8 0zM1020.83 55.54 a5.9 5.9 0 1 0 11.8 0 a5.9 5.9 0 1 0 -11.8 0zM969.74 85.04 a5.9 5.9 0 1 0 11.8 0 a5.9 5.9 0 1 0 -11.8 0zM969.74 144.04 a5.9 5.9 0 1 0 11.8 0 a5.9 5.9 0 1 0 -11.8 0zM1020.83 173.54 a5.9 5.9 0 1 0 11.8 0 a5.9 5.9 0 1 0 -11.8 0zM1020.83 232.54 a5.9 5.9 0 1 0 11.8 0 a5.9 5.9 0 1 0 -11.8 0zM969.74 262.04 a5.9 5.9 0 1 0 11.8 0 a5.9 5.9 0 1 0 -11.8 0zM1071.93 262.04 a5.9 5.9 0 1 0 11.8 0 a5.9 5.9 0 1 0 -11.8 0zM1071.93 321.04 a5.9 5.9 0 1 0 11.8 0 a5.9 5.9 0 1 0 -11.8 0zM1020.83 350.54 a5.9 5.9 0 1 0 11.8 0 a5.9 5.9 0 1 0 -11.8 0zM969.74 321.04 a5.9 5.9 0 1 0 11.8 0 a5.9 5.9 0 1 0 -11.8 0zM1020.83 704.54 a5.9 5.9 0 1 0 11.8 0 a5.9 5.9 0 1 0 -11.8 0zM1020.83 763.54 a5.9 5.9 0 1 0 11.8 0 a5.9 5.9 0 1 0 -11.8 0zM1071.93 793.04 a5.9 5.9 0 1 0 11.8 0 a5.9 5.9 0 1 0 -11.8 0zM1071.93 852.04 a5.9 5.9 0 1 0 11.8 0 a5.9 5.9 0 1 0 -11.8 0zM1020.83 881.54 a5.9 5.9 0 1 0 11.8 0 a5.9 5.9 0 1 0 -11.8 0zM1020.83 940.54 a5.9 5.9 0 1 0 11.8 0 a5.9 5.9 0 1 0 -11.8 0zM1071.93 970.04 a5.9 5.9 0 1 0 11.8 0 a5.9 5.9 0 1 0 -11.8 0zM1071.93 1029.04 a5.9 5.9 0 1 0 11.8 0 a5.9 5.9 0 1 0 -11.8 0zM1020.83 1058.54 a5.9 5.9 0 1 0 11.8 0 a5.9 5.9 0 1 0 -11.8 0zM1071.93 -32.96 a5.9 5.9 0 1 0 11.8 0 a5.9 5.9 0 1 0 -11.8 0zM1123.03 -3.46 a5.9 5.9 0 1 0 11.8 0 a5.9 5.9 0 1 0 -11.8 0zM1123.03 55.54 a5.9 5.9 0 1 0 11.8 0 a5.9 5.9 0 1 0 -11.8 0zM1071.93 85.04 a5.9 5.9 0 1 0 11.8 0 a5.9 5.9 0 1 0 -11.8 0zM1174.12 85.04 a5.9 5.9 0 1 0 11.8 0 a5.9 5.9 0 1 0 -11.8 0zM1174.12 144.04 a5.9 5.9 0 1 0 11.8 0 a5.9 5.9 0 1 0 -11.8 0zM1123.03 173.54 a5.9 5.9 0 1 0 11.8 0 a5.9 5.9 0 1 0 -11.8 0zM1071.93 144.04 a5.9 5.9 0 1 0 11.8 0 a5.9 5.9 0 1 0 -11.8 0zM1123.03 350.54 a5.9 5.9 0 1 0 11.8 0 a5.9 5.9 0 1 0 -11.8 0zM1123.03 409.54 a5.9 5.9 0 1 0 11.8 0 a5.9 5.9 0 1 0 -11.8 0zM1071.93 439.04 a5.9 5.9 0 1 0 11.8 0 a5.9 5.9 0 1 0 -11.8 0zM1020.83 409.54 a5.9 5.9 0 1 0 11.8 0 a5.9 5.9 0 1 0 -11.8 0zM1071.93 498.04 a5.9 5.9 0 1 0 11.8 0 a5.9 5.9 0 1 0 -11.8 0zM1123.03 527.54 a5.9 5.9 0 1 0 11.8 0 a5.9 5.9 0 1 0 -11.8 0zM1123.03 586.54 a5.9 5.9 0 1 0 11.8 0 a5.9 5.9 0 1 0 -11.8 0zM1071.93 616.04 a5.9 5.9 0 1 0 11.8 0 a5.9 5.9 0 1 0 -11.8 0zM1020.83 586.54 a5.9 5.9 0 1 0 11.8 0 a5.9 5.9 0 1 0 -11.8 0zM1020.83 527.54 a5.9 5.9 0 1 0 11.8 0 a5.9 5.9 0 1 0 -11.8 0zM1071.93 675.04 a5.9 5.9 0 1 0 11.8 0 a5.9 5.9 0 1 0 -11.8 0zM1123.03 704.54 a5.9 5.9 0 1 0 11.8 0 a5.9 5.9 0 1 0 -11.8 0zM1123.03 763.54 a5.9 5.9 0 1 0 11.8 0 a5.9 5.9 0 1 0 -11.8 0zM1123.03 940.54 a5.9 5.9 0 1 0 11.8 0 a5.9 5.9 0 1 0 -11.8 0zM1174.12 970.04 a5.9 5.9 0 1 0 11.8 0 a5.9 5.9 0 1 0 -11.8 0zM1174.12 1029.04 a5.9 5.9 0 1 0 11.8 0 a5.9 5.9 0 1 0 -11.8 0zM1123.03 1058.54 a5.9 5.9 0 1 0 11.8 0 a5.9 5.9 0 1 0 -11.8 0zM1174.12 -32.96 a5.9 5.9 0 1 0 11.8 0 a5.9 5.9 0 1 0 -11.8 0zM1225.22 -3.46 a5.9 5.9 0 1 0 11.8 0 a5.9 5.9 0 1 0 -11.8 0zM1225.22 55.54 a5.9 5.9 0 1 0 11.8 0 a5.9 5.9 0 1 0 -11.8 0zM1276.32 85.04 a5.9 5.9 0 1 0 11.8 0 a5.9 5.9 0 1 0 -11.8 0zM1276.32 144.04 a5.9 5.9 0 1 0 11.8 0 a5.9 5.9 0 1 0 -11.8 0zM1225.22 173.54 a5.9 5.9 0 1 0 11.8 0 a5.9 5.9 0 1 0 -11.8 0zM1174.12 498.04 a5.9 5.9 0 1 0 11.8 0 a5.9 5.9 0 1 0 -11.8 0zM1225.22 527.54 a5.9 5.9 0 1 0 11.8 0 a5.9 5.9 0 1 0 -11.8 0zM1225.22 586.54 a5.9 5.9 0 1 0 11.8 0 a5.9 5.9 0 1 0 -11.8 0zM1174.12 616.04 a5.9 5.9 0 1 0 11.8 0 a5.9 5.9 0 1 0 -11.8 0zM1174.12 675.04 a5.9 5.9 0 1 0 11.8 0 a5.9 5.9 0 1 0 -11.8 0zM1225.22 704.54 a5.9 5.9 0 1 0 11.8 0 a5.9 5.9 0 1 0 -11.8 0zM1225.22 763.54 a5.9 5.9 0 1 0 11.8 0 a5.9 5.9 0 1 0 -11.8 0zM1174.12 793.04 a5.9 5.9 0 1 0 11.8 0 a5.9 5.9 0 1 0 -11.8 0zM1174.12 852.04 a5.9 5.9 0 1 0 11.8 0 a5.9 5.9 0 1 0 -11.8 0zM1225.22 881.54 a5.9 5.9 0 1 0 11.8 0 a5.9 5.9 0 1 0 -11.8 0zM1225.22 940.54 a5.9 5.9 0 1 0 11.8 0 a5.9 5.9 0 1 0 -11.8 0zM1123.03 881.54 a5.9 5.9 0 1 0 11.8 0 a5.9 5.9 0 1 0 -11.8 0zM1276.32 970.04 a5.9 5.9 0 1 0 11.8 0 a5.9 5.9 0 1 0 -11.8 0zM1276.32 1029.04 a5.9 5.9 0 1 0 11.8 0 a5.9 5.9 0 1 0 -11.8 0zM1225.22 1058.54 a5.9 5.9 0 1 0 11.8 0 a5.9 5.9 0 1 0 -11.8 0zM1327.41 173.54 a5.9 5.9 0 1 0 11.8 0 a5.9 5.9 0 1 0 -11.8 0zM1327.41 232.54 a5.9 5.9 0 1 0 11.8 0 a5.9 5.9 0 1 0 -11.8 0zM1276.32 262.04 a5.9 5.9 0 1 0 11.8 0 a5.9 5.9 0 1 0 -11.8 0zM1225.22 232.54 a5.9 5.9 0 1 0 11.8 0 a5.9 5.9 0 1 0 -11.8 0zM1378.51 262.04 a5.9 5.9 0 1 0 11.8 0 a5.9 5.9 0 1 0 -11.8 0zM1378.51 321.04 a5.9 5.9 0 1 0 11.8 0 a5.9 5.9 0 1 0 -11.8 0zM1327.41 350.54 a5.9 5.9 0 1 0 11.8 0 a5.9 5.9 0 1 0 -11.8 0zM1276.32 321.04 a5.9 5.9 0 1 0 11.8 0 a5.9 5.9 0 1 0 -11.8 0zM1276.32 498.04 a5.9 5.9 0 1 0 11.8 0 a5.9 5.9 0 1 0 -11.8 0zM1327.41 527.54 a5.9 5.9 0 1 0 11.8 0 a5.9 5.9 0 1 0 -11.8 0zM1327.41 586.54 a5.9 5.9 0 1 0 11.8 0 a5.9 5.9 0 1 0 -11.8 0zM1276.32 616.04 a5.9 5.9 0 1 0 11.8 0 a5.9 5.9 0 1 0 -11.8 0zM1378.51 616.04 a5.9 5.9 0 1 0 11.8 0 a5.9 5.9 0 1 0 -11.8 0zM1378.51 675.04 a5.9 5.9 0 1 0 11.8 0 a5.9 5.9 0 1 0 -11.8 0zM1327.41 704.54 a5.9 5.9 0 1 0 11.8 0 a5.9 5.9 0 1 0 -11.8 0zM1276.32 675.04 a5.9 5.9 0 1 0 11.8 0 a5.9 5.9 0 1 0 -11.8 0zM1327.41 763.54 a5.9 5.9 0 1 0 11.8 0 a5.9 5.9 0 1 0 -11.8 0zM1378.51 793.04 a5.9 5.9 0 1 0 11.8 0 a5.9 5.9 0 1 0 -11.8 0zM1378.51 852.04 a5.9 5.9 0 1 0 11.8 0 a5.9 5.9 0 1 0 -11.8 0zM1327.41 881.54 a5.9 5.9 0 1 0 11.8 0 a5.9 5.9 0 1 0 -11.8 0zM1276.32 852.04 a5.9 5.9 0 1 0 11.8 0 a5.9 5.9 0 1 0 -11.8 0zM1276.32 793.04 a5.9 5.9 0 1 0 11.8 0 a5.9 5.9 0 1 0 -11.8 0zM1327.41 940.54 a5.9 5.9 0 1 0 11.8 0 a5.9 5.9 0 1 0 -11.8 0zM1327.41 1058.54 a5.9 5.9 0 1 0 11.8 0 a5.9 5.9 0 1 0 -11.8 0zM1327.41 1117.54 a5.9 5.9 0 1 0 11.8 0 a5.9 5.9 0 1 0 -11.8 0zM1276.32 1147.04 a5.9 5.9 0 1 0 11.8 0 a5.9 5.9 0 1 0 -11.8 0zM1225.22 1117.54 a5.9 5.9 0 1 0 11.8 0 a5.9 5.9 0 1 0 -11.8 0zM1429.61 55.54 a5.9 5.9 0 1 0 11.8 0 a5.9 5.9 0 1 0 -11.8 0zM1480.7 85.04 a5.9 5.9 0 1 0 11.8 0 a5.9 5.9 0 1 0 -11.8 0zM1480.7 144.04 a5.9 5.9 0 1 0 11.8 0 a5.9 5.9 0 1 0 -11.8 0zM1429.61 173.54 a5.9 5.9 0 1 0 11.8 0 a5.9 5.9 0 1 0 -11.8 0zM1378.51 144.04 a5.9 5.9 0 1 0 11.8 0 a5.9 5.9 0 1 0 -11.8 0zM1378.51 85.04 a5.9 5.9 0 1 0 11.8 0 a5.9 5.9 0 1 0 -11.8 0zM1429.61 350.54 a5.9 5.9 0 1 0 11.8 0 a5.9 5.9 0 1 0 -11.8 0zM1429.61 409.54 a5.9 5.9 0 1 0 11.8 0 a5.9 5.9 0 1 0 -11.8 0zM1378.51 439.04 a5.9 5.9 0 1 0 11.8 0 a5.9 5.9 0 1 0 -11.8 0zM1327.41 409.54 a5.9 5.9 0 1 0 11.8 0 a5.9 5.9 0 1 0 -11.8 0zM1378.51 498.04 a5.9 5.9 0 1 0 11.8 0 a5.9 5.9 0 1 0 -11.8 0zM1429.61 527.54 a5.9 5.9 0 1 0 11.8 0 a5.9 5.9 0 1 0 -11.8 0zM1429.61 586.54 a5.9 5.9 0 1 0 11.8 0 a5.9 5.9 0 1 0 -11.8 0zM1480.7 616.04 a5.9 5.9 0 1 0 11.8 0 a5.9 5.9 0 1 0 -11.8 0zM1480.7 675.04 a5.9 5.9 0 1 0 11.8 0 a5.9 5.9 0 1 0 -11.8 0zM1429.61 704.54 a5.9 5.9 0 1 0 11.8 0 a5.9 5.9 0 1 0 -11.8 0zM1429.61 763.54 a5.9 5.9 0 1 0 11.8 0 a5.9 5.9 0 1 0 -11.8 0zM1480.7 793.04 a5.9 5.9 0 1 0 11.8 0 a5.9 5.9 0 1 0 -11.8 0zM1480.7 852.04 a5.9 5.9 0 1 0 11.8 0 a5.9 5.9 0 1 0 -11.8 0zM1429.61 881.54 a5.9 5.9 0 1 0 11.8 0 a5.9 5.9 0 1 0 -11.8 0zM1429.61 940.54 a5.9 5.9 0 1 0 11.8 0 a5.9 5.9 0 1 0 -11.8 0zM1378.51 970.04 a5.9 5.9 0 1 0 11.8 0 a5.9 5.9 0 1 0 -11.8 0zM1531.8 173.54 a5.9 5.9 0 1 0 11.8 0 a5.9 5.9 0 1 0 -11.8 0zM1531.8 232.54 a5.9 5.9 0 1 0 11.8 0 a5.9 5.9 0 1 0 -11.8 0zM1480.7 262.04 a5.9 5.9 0 1 0 11.8 0 a5.9 5.9 0 1 0 -11.8 0zM1429.61 232.54 a5.9 5.9 0 1 0 11.8 0 a5.9 5.9 0 1 0 -11.8 0zM1582.9 262.04 a5.9 5.9 0 1 0 11.8 0 a5.9 5.9 0 1 0 -11.8 0zM1582.9 321.04 a5.9 5.9 0 1 0 11.8 0 a5.9 5.9 0 1 0 -11.8 0zM1531.8 350.54 a5.9 5.9 0 1 0 11.8 0 a5.9 5.9 0 1 0 -11.8 0zM1480.7 321.04 a5.9 5.9 0 1 0 11.8 0 a5.9 5.9 0 1 0 -11.8 0zM1531.8 409.54 a5.9 5.9 0 1 0 11.8 0 a5.9 5.9 0 1 0 -11.8 0zM1480.7 439.04 a5.9 5.9 0 1 0 11.8 0 a5.9 5.9 0 1 0 -11.8 0zM1582.9 439.04 a5.9 5.9 0 1 0 11.8 0 a5.9 5.9 0 1 0 -11.8 0zM1582.9 498.04 a5.9 5.9 0 1 0 11.8 0 a5.9 5.9 0 1 0 -11.8 0zM1531.8 527.54 a5.9 5.9 0 1 0 11.8 0 a5.9 5.9 0 1 0 -11.8 0zM1480.7 498.04 a5.9 5.9 0 1 0 11.8 0 a5.9 5.9 0 1 0 -11.8 0zM1531.8 586.54 a5.9 5.9 0 1 0 11.8 0 a5.9 5.9 0 1 0 -11.8 0zM1582.9 616.04 a5.9 5.9 0 1 0 11.8 0 a5.9 5.9 0 1 0 -11.8 0zM1582.9 675.04 a5.9 5.9 0 1 0 11.8 0 a5.9 5.9 0 1 0 -11.8 0zM1531.8 704.54 a5.9 5.9 0 1 0 11.8 0 a5.9 5.9 0 1 0 -11.8 0zM1531.8 763.54 a5.9 5.9 0 1 0 11.8 0 a5.9 5.9 0 1 0 -11.8 0zM1531.8 940.54 a5.9 5.9 0 1 0 11.8 0 a5.9 5.9 0 1 0 -11.8 0zM1582.9 970.04 a5.9 5.9 0 1 0 11.8 0 a5.9 5.9 0 1 0 -11.8 0zM1582.9 1029.04 a5.9 5.9 0 1 0 11.8 0 a5.9 5.9 0 1 0 -11.8 0zM1531.8 1058.54 a5.9 5.9 0 1 0 11.8 0 a5.9 5.9 0 1 0 -11.8 0zM1480.7 1029.04 a5.9 5.9 0 1 0 11.8 0 a5.9 5.9 0 1 0 -11.8 0zM1480.7 970.04 a5.9 5.9 0 1 0 11.8 0 a5.9 5.9 0 1 0 -11.8 0zM1634 55.54 a5.9 5.9 0 1 0 11.8 0 a5.9 5.9 0 1 0 -11.8 0zM1685.09 85.04 a5.9 5.9 0 1 0 11.8 0 a5.9 5.9 0 1 0 -11.8 0zM1685.09 144.04 a5.9 5.9 0 1 0 11.8 0 a5.9 5.9 0 1 0 -11.8 0zM1634 173.54 a5.9 5.9 0 1 0 11.8 0 a5.9 5.9 0 1 0 -11.8 0zM1582.9 144.04 a5.9 5.9 0 1 0 11.8 0 a5.9 5.9 0 1 0 -11.8 0zM1582.9 85.04 a5.9 5.9 0 1 0 11.8 0 a5.9 5.9 0 1 0 -11.8 0zM1634 232.54 a5.9 5.9 0 1 0 11.8 0 a5.9 5.9 0 1 0 -11.8 0zM1634 527.54 a5.9 5.9 0 1 0 11.8 0 a5.9 5.9 0 1 0 -11.8 0zM1634 586.54 a5.9 5.9 0 1 0 11.8 0 a5.9 5.9 0 1 0 -11.8 0zM1634 763.54 a5.9 5.9 0 1 0 11.8 0 a5.9 5.9 0 1 0 -11.8 0zM1685.09 793.04 a5.9 5.9 0 1 0 11.8 0 a5.9 5.9 0 1 0 -11.8 0zM1685.09 852.04 a5.9 5.9 0 1 0 11.8 0 a5.9 5.9 0 1 0 -11.8 0zM1634 881.54 a5.9 5.9 0 1 0 11.8 0 a5.9 5.9 0 1 0 -11.8 0zM1582.9 852.04 a5.9 5.9 0 1 0 11.8 0 a5.9 5.9 0 1 0 -11.8 0zM1582.9 793.04 a5.9 5.9 0 1 0 11.8 0 a5.9 5.9 0 1 0 -11.8 0zM1634 940.54 a5.9 5.9 0 1 0 11.8 0 a5.9 5.9 0 1 0 -11.8 0zM1531.8 881.54 a5.9 5.9 0 1 0 11.8 0 a5.9 5.9 0 1 0 -11.8 0zM1685.09 970.04 a5.9 5.9 0 1 0 11.8 0 a5.9 5.9 0 1 0 -11.8 0zM1685.09 1029.04 a5.9 5.9 0 1 0 11.8 0 a5.9 5.9 0 1 0 -11.8 0zM1634 1058.54 a5.9 5.9 0 1 0 11.8 0 a5.9 5.9 0 1 0 -11.8 0zM1634 1117.54 a5.9 5.9 0 1 0 11.8 0 a5.9 5.9 0 1 0 -11.8 0zM1582.9 1147.04 a5.9 5.9 0 1 0 11.8 0 a5.9 5.9 0 1 0 -11.8 0zM1531.8 1117.54 a5.9 5.9 0 1 0 11.8 0 a5.9 5.9 0 1 0 -11.8 0zM1736.19 173.54 a5.9 5.9 0 1 0 11.8 0 a5.9 5.9 0 1 0 -11.8 0zM1736.19 232.54 a5.9 5.9 0 1 0 11.8 0 a5.9 5.9 0 1 0 -11.8 0zM1685.09 262.04 a5.9 5.9 0 1 0 11.8 0 a5.9 5.9 0 1 0 -11.8 0zM1787.29 262.04 a5.9 5.9 0 1 0 11.8 0 a5.9 5.9 0 1 0 -11.8 0zM1787.29 321.04 a5.9 5.9 0 1 0 11.8 0 a5.9 5.9 0 1 0 -11.8 0zM1736.19 350.54 a5.9 5.9 0 1 0 11.8 0 a5.9 5.9 0 1 0 -11.8 0zM1685.09 321.04 a5.9 5.9 0 1 0 11.8 0 a5.9 5.9 0 1 0 -11.8 0zM1736.19 586.54 a5.9 5.9 0 1 0 11.8 0 a5.9 5.9 0 1 0 -11.8 0zM1787.29 616.04 a5.9 5.9 0 1 0 11.8 0 a5.9 5.9 0 1 0 -11.8 0zM1787.29 675.04 a5.9 5.9 0 1 0 11.8 0 a5.9 5.9 0 1 0 -11.8 0zM1736.19 704.54 a5.9 5.9 0 1 0 11.8 0 a5.9 5.9 0 1 0 -11.8 0zM1685.09 675.04 a5.9 5.9 0 1 0 11.8 0 a5.9 5.9 0 1 0 -11.8 0zM1685.09 616.04 a5.9 5.9 0 1 0 11.8 0 a5.9 5.9 0 1 0 -11.8 0zM1736.19 763.54 a5.9 5.9 0 1 0 11.8 0 a5.9 5.9 0 1 0 -11.8 0zM1634 704.54 a5.9 5.9 0 1 0 11.8 0 a5.9 5.9 0 1 0 -11.8 0zM1736.19 881.54 a5.9 5.9 0 1 0 11.8 0 a5.9 5.9 0 1 0 -11.8 0zM1736.19 940.54 a5.9 5.9 0 1 0 11.8 0 a5.9 5.9 0 1 0 -11.8 0zM1838.38 232.54 a5.9 5.9 0 1 0 11.8 0 a5.9 5.9 0 1 0 -11.8 0zM1889.48 262.04 a5.9 5.9 0 1 0 11.8 0 a5.9 5.9 0 1 0 -11.8 0zM1889.48 321.04 a5.9 5.9 0 1 0 11.8 0 a5.9 5.9 0 1 0 -11.8 0zM1838.38 350.54 a5.9 5.9 0 1 0 11.8 0 a5.9 5.9 0 1 0 -11.8 0zM1838.38 409.54 a5.9 5.9 0 1 0 11.8 0 a5.9 5.9 0 1 0 -11.8 0zM1787.29 439.04 a5.9 5.9 0 1 0 11.8 0 a5.9 5.9 0 1 0 -11.8 0zM1736.19 409.54 a5.9 5.9 0 1 0 11.8 0 a5.9 5.9 0 1 0 -11.8 0zM1838.38 763.54 a5.9 5.9 0 1 0 11.8 0 a5.9 5.9 0 1 0 -11.8 0zM1889.48 793.04 a5.9 5.9 0 1 0 11.8 0 a5.9 5.9 0 1 0 -11.8 0zM1889.48 852.04 a5.9 5.9 0 1 0 11.8 0 a5.9 5.9 0 1 0 -11.8 0zM1838.38 881.54 a5.9 5.9 0 1 0 11.8 0 a5.9 5.9 0 1 0 -11.8 0zM1787.29 852.04 a5.9 5.9 0 1 0 11.8 0 a5.9 5.9 0 1 0 -11.8 0zM1787.29 793.04 a5.9 5.9 0 1 0 11.8 0 a5.9 5.9 0 1 0 -11.8 0zM1838.38 940.54 a5.9 5.9 0 1 0 11.8 0 a5.9 5.9 0 1 0 -11.8 0zM1787.29 970.04 a5.9 5.9 0 1 0 11.8 0 a5.9 5.9 0 1 0 -11.8 0zM1889.48 -32.96 a5.9 5.9 0 1 0 11.8 0 a5.9 5.9 0 1 0 -11.8 0zM1940.58 -3.46 a5.9 5.9 0 1 0 11.8 0 a5.9 5.9 0 1 0 -11.8 0zM1940.58 55.54 a5.9 5.9 0 1 0 11.8 0 a5.9 5.9 0 1 0 -11.8 0zM1889.48 85.04 a5.9 5.9 0 1 0 11.8 0 a5.9 5.9 0 1 0 -11.8 0zM1838.38 55.54 a5.9 5.9 0 1 0 11.8 0 a5.9 5.9 0 1 0 -11.8 0zM1838.38 -3.46 a5.9 5.9 0 1 0 11.8 0 a5.9 5.9 0 1 0 -11.8 0zM1991.67 85.04 a5.9 5.9 0 1 0 11.8 0 a5.9 5.9 0 1 0 -11.8 0zM1991.67 144.04 a5.9 5.9 0 1 0 11.8 0 a5.9 5.9 0 1 0 -11.8 0zM1940.58 173.54 a5.9 5.9 0 1 0 11.8 0 a5.9 5.9 0 1 0 -11.8 0zM1889.48 144.04 a5.9 5.9 0 1 0 11.8 0 a5.9 5.9 0 1 0 -11.8 0zM1940.58 232.54 a5.9 5.9 0 1 0 11.8 0 a5.9 5.9 0 1 0 -11.8 0zM1838.38 173.54 a5.9 5.9 0 1 0 11.8 0 a5.9 5.9 0 1 0 -11.8 0zM1940.58 350.54 a5.9 5.9 0 1 0 11.8 0 a5.9 5.9 0 1 0 -11.8 0zM1940.58 409.54 a5.9 5.9 0 1 0 11.8 0 a5.9 5.9 0 1 0 -11.8 0zM1889.48 439.04 a5.9 5.9 0 1 0 11.8 0 a5.9 5.9 0 1 0 -11.8 0zM1991.67 439.04 a5.9 5.9 0 1 0 11.8 0 a5.9 5.9 0 1 0 -11.8 0zM1991.67 498.04 a5.9 5.9 0 1 0 11.8 0 a5.9 5.9 0 1 0 -11.8 0zM1940.58 527.54 a5.9 5.9 0 1 0 11.8 0 a5.9 5.9 0 1 0 -11.8 0zM1889.48 498.04 a5.9 5.9 0 1 0 11.8 0 a5.9 5.9 0 1 0 -11.8 0zM1940.58 586.54 a5.9 5.9 0 1 0 11.8 0 a5.9 5.9 0 1 0 -11.8 0zM1991.67 616.04 a5.9 5.9 0 1 0 11.8 0 a5.9 5.9 0 1 0 -11.8 0zM1991.67 675.04 a5.9 5.9 0 1 0 11.8 0 a5.9 5.9 0 1 0 -11.8 0zM1940.58 704.54 a5.9 5.9 0 1 0 11.8 0 a5.9 5.9 0 1 0 -11.8 0zM1889.48 675.04 a5.9 5.9 0 1 0 11.8 0 a5.9 5.9 0 1 0 -11.8 0zM1889.48 616.04 a5.9 5.9 0 1 0 11.8 0 a5.9 5.9 0 1 0 -11.8 0zM1991.67 -32.96 a5.9 5.9 0 1 0 11.8 0 a5.9 5.9 0 1 0 -11.8 0zM2042.77 -3.46 a5.9 5.9 0 1 0 11.8 0 a5.9 5.9 0 1 0 -11.8 0zM2042.77 55.54 a5.9 5.9 0 1 0 11.8 0 a5.9 5.9 0 1 0 -11.8 0zM2042.77 173.54 a5.9 5.9 0 1 0 11.8 0 a5.9 5.9 0 1 0 -11.8 0zM2042.77 232.54 a5.9 5.9 0 1 0 11.8 0 a5.9 5.9 0 1 0 -11.8 0zM1991.67 262.04 a5.9 5.9 0 1 0 11.8 0 a5.9 5.9 0 1 0 -11.8 0zM2093.87 262.04 a5.9 5.9 0 1 0 11.8 0 a5.9 5.9 0 1 0 -11.8 0zM2093.87 321.04 a5.9 5.9 0 1 0 11.8 0 a5.9 5.9 0 1 0 -11.8 0zM2042.77 350.54 a5.9 5.9 0 1 0 11.8 0 a5.9 5.9 0 1 0 -11.8 0zM1991.67 321.04 a5.9 5.9 0 1 0 11.8 0 a5.9 5.9 0 1 0 -11.8 0zM2042.77 409.54 a5.9 5.9 0 1 0 11.8 0 a5.9 5.9 0 1 0 -11.8 0zM2093.87 439.04 a5.9 5.9 0 1 0 11.8 0 a5.9 5.9 0 1 0 -11.8 0zM2093.87 498.04 a5.9 5.9 0 1 0 11.8 0 a5.9 5.9 0 1 0 -11.8 0zM2042.77 527.54 a5.9 5.9 0 1 0 11.8 0 a5.9 5.9 0 1 0 -11.8 0zM2042.77 586.54 a5.9 5.9 0 1 0 11.8 0 a5.9 5.9 0 1 0 -11.8 0zM2093.87 616.04 a5.9 5.9 0 1 0 11.8 0 a5.9 5.9 0 1 0 -11.8 0zM2093.87 675.04 a5.9 5.9 0 1 0 11.8 0 a5.9 5.9 0 1 0 -11.8 0zM2042.77 704.54 a5.9 5.9 0 1 0 11.8 0 a5.9 5.9 0 1 0 -11.8 0zM2042.77 763.54 a5.9 5.9 0 1 0 11.8 0 a5.9 5.9 0 1 0 -11.8 0zM1991.67 793.04 a5.9 5.9 0 1 0 11.8 0 a5.9 5.9 0 1 0 -11.8 0zM1940.58 763.54 a5.9 5.9 0 1 0 11.8 0 a5.9 5.9 0 1 0 -11.8 0zM2093.87 793.04 a5.9 5.9 0 1 0 11.8 0 a5.9 5.9 0 1 0 -11.8 0zM2093.87 852.04 a5.9 5.9 0 1 0 11.8 0 a5.9 5.9 0 1 0 -11.8 0zM2042.77 881.54 a5.9 5.9 0 1 0 11.8 0 a5.9 5.9 0 1 0 -11.8 0zM1991.67 852.04 a5.9 5.9 0 1 0 11.8 0 a5.9 5.9 0 1 0 -11.8 0zM2042.77 940.54 a5.9 5.9 0 1 0 11.8 0 a5.9 5.9 0 1 0 -11.8 0zM2093.87 970.04 a5.9 5.9 0 1 0 11.8 0 a5.9 5.9 0 1 0 -11.8 0zM2093.87 1029.04 a5.9 5.9 0 1 0 11.8 0 a5.9 5.9 0 1 0 -11.8 0zM2042.77 1058.54 a5.9 5.9 0 1 0 11.8 0 a5.9 5.9 0 1 0 -11.8 0zM1991.67 1029.04 a5.9 5.9 0 1 0 11.8 0 a5.9 5.9 0 1 0 -11.8 0zM1991.67 970.04 a5.9 5.9 0 1 0 11.8 0 a5.9 5.9 0 1 0 -11.8 0zM2042.77 1117.54 a5.9 5.9 0 1 0 11.8 0 a5.9 5.9 0 1 0 -11.8 0zM1991.67 1147.04 a5.9 5.9 0 1 0 11.8 0 a5.9 5.9 0 1 0 -11.8 0zM1940.58 1117.54 a5.9 5.9 0 1 0 11.8 0 a5.9 5.9 0 1 0 -11.8 0zM1940.58 1058.54 a5.9 5.9 0 1 0 11.8 0 a5.9 5.9 0 1 0 -11.8 0zM2093.87 -32.96 a5.9 5.9 0 1 0 11.8 0 a5.9 5.9 0 1 0 -11.8 0zM2144.96 -3.46 a5.9 5.9 0 1 0 11.8 0 a5.9 5.9 0 1 0 -11.8 0zM2144.96 55.54 a5.9 5.9 0 1 0 11.8 0 a5.9 5.9 0 1 0 -11.8 0zM2093.87 85.04 a5.9 5.9 0 1 0 11.8 0 a5.9 5.9 0 1 0 -11.8 0zM2144.96 409.54 a5.9 5.9 0 1 0 11.8 0 a5.9 5.9 0 1 0 -11.8 0zM2196.06 439.04 a5.9 5.9 0 1 0 11.8 0 a5.9 5.9 0 1 0 -11.8 0zM2196.06 498.04 a5.9 5.9 0 1 0 11.8 0 a5.9 5.9 0 1 0 -11.8 0zM2144.96 527.54 a5.9 5.9 0 1 0 11.8 0 a5.9 5.9 0 1 0 -11.8 0zM2144.96 586.54 a5.9 5.9 0 1 0 11.8 0 a5.9 5.9 0 1 0 -11.8 0zM2196.06 616.04 a5.9 5.9 0 1 0 11.8 0 a5.9 5.9 0 1 0 -11.8 0zM2196.06 675.04 a5.9 5.9 0 1 0 11.8 0 a5.9 5.9 0 1 0 -11.8 0zM2144.96 704.54 a5.9 5.9 0 1 0 11.8 0 a5.9 5.9 0 1 0 -11.8 0zM2144.96 763.54 a5.9 5.9 0 1 0 11.8 0 a5.9 5.9 0 1 0 -11.8 0zM2144.96 1058.54 a5.9 5.9 0 1 0 11.8 0 a5.9 5.9 0 1 0 -11.8 0zM2144.96 1117.54 a5.9 5.9 0 1 0 11.8 0 a5.9 5.9 0 1 0 -11.8 0zM2093.87 1147.04 a5.9 5.9 0 1 0 11.8 0 a5.9 5.9 0 1 0 -11.8 0z" fill="rgba(3, 48, 93, 1)"></path><path d="M100.79 815.16L155.35 846.66L155.35 909.66L100.79 941.16L46.23 909.66L46.23 846.66zM100.79 1004.16L155.35 1035.66L155.35 1098.66L100.79 1130.16L46.23 1098.66L46.23 1035.66zM209.91 437.16L264.47 468.66L264.47 531.66L209.91 563.16L155.35 531.66L155.35 468.66zM209.91 815.16L264.47 846.66L264.47 909.66L209.91 941.16L155.35 909.66L155.35 846.66zM209.91 1004.16L264.47 1035.66L264.47 1098.66L209.91 1130.16L155.35 1098.66L155.35 1035.66zM319.04 815.16L373.6 846.66L373.6 909.66L319.04 941.16L264.47 909.66L264.47 846.66zM264.47 909.66L319.04 941.16L319.04 1004.16L264.47 1035.66L209.91 1004.16L209.91 941.16zM373.6 342.66L428.16 374.16L428.16 437.16L373.6 468.66L319.04 437.16L319.04 374.16zM428.16 1004.16L482.72 1035.66L482.72 1098.66L428.16 1130.16L373.6 1098.66L373.6 1035.66zM591.84 -35.34L646.4 -3.84L646.4 59.16L591.84 90.66L537.28 59.16L537.28 -3.84zM591.84 153.66L646.4 185.16L646.4 248.16L591.84 279.66L537.28 248.16L537.28 185.16zM646.4 626.16L700.96 657.66L700.96 720.66L646.4 752.16L591.84 720.66L591.84 657.66zM700.96 531.66L755.52 563.16L755.52 626.16L700.96 657.66L646.4 626.16L646.4 563.16zM755.52 626.16L810.09 657.66L810.09 720.66L755.52 752.16L700.96 720.66L700.96 657.66zM973.77 437.16L1028.33 468.66L1028.33 531.66L973.77 563.16L919.21 531.66L919.21 468.66zM1028.33 342.66L1082.89 374.16L1082.89 437.16L1028.33 468.66L973.77 437.16L973.77 374.16zM1246.58 909.66L1301.14 941.16L1301.14 1004.16L1246.58 1035.66L1192.01 1004.16L1192.01 941.16zM1410.26 248.16L1464.82 279.66L1464.82 342.66L1410.26 374.16L1355.7 342.66L1355.7 279.66zM1410.26 437.16L1464.82 468.66L1464.82 531.66L1410.26 563.16L1355.7 531.66L1355.7 468.66zM1519.38 248.16L1573.94 279.66L1573.94 342.66L1519.38 374.16L1464.82 342.66L1464.82 279.66zM1628.5 437.16L1683.06 468.66L1683.06 531.66L1628.5 563.16L1573.94 531.66L1573.94 468.66zM1573.94 909.66L1628.5 941.16L1628.5 1004.16L1573.94 1035.66L1519.38 1004.16L1519.38 941.16zM1737.63 248.16L1792.19 279.66L1792.19 342.66L1737.63 374.16L1683.06 342.66L1683.06 279.66zM1683.06 909.66L1737.63 941.16L1737.63 1004.16L1683.06 1035.66L1628.5 1004.16L1628.5 941.16zM1846.75 815.16L1901.31 846.66L1901.31 909.66L1846.75 941.16L1792.19 909.66L1792.19 846.66zM1792.19 909.66L1846.75 941.16L1846.75 1004.16L1792.19 1035.66L1737.63 1004.16L1737.63 941.16zM1901.31 720.66L1955.87 752.16L1955.87 815.16L1901.31 846.66L1846.75 815.16L1846.75 752.16zM2064.99 59.16L2119.55 90.66L2119.55 153.66L2064.99 185.16L2010.43 153.66L2010.43 90.66zM2010.43 342.66L2064.99 374.16L2064.99 437.16L2010.43 468.66L1955.87 437.16L1955.87 374.16z" stroke="rgba(6, 80, 156, 0.93)" stroke-width="2"></path></g><defs><mask id="SvgjsMask1014"><rect width="2048" height="1080" fill="#ffffff"></rect></mask><linearGradient x1="11.82%" y1="-22.41%" x2="88.18%" y2="122.41%" gradientUnits="userSpaceOnUse" id="SvgjsLinearGradient1015"><stop stop-color="rgba(14, 42, 71, 1)" offset="0"></stop><stop stop-color="rgba(34, 100, 171, 1)" offset="1"></stop></linearGradient></defs></svg>