<svg xmlns="http://www.w3.org/2000/svg" version="1.1" xmlns:xlink="http://www.w3.org/1999/xlink" xmlns:svgjs="http://svgjs.com/svgjs" width="2048" height="1080" preserveAspectRatio="none" viewBox="0 0 2048 1080"><g mask="url(&quot;#SvgjsMask1024&quot;)" fill="none"><rect width="2048" height="1080" x="0" y="0" fill="#0e2a47"></rect><path d="M20 1080L1100 0L2060 0L980 1080z" fill="url(#SvgjsLinearGradient1025)"></path><path d="M719.84 1080L1799.8400000000001 0L2344.34 0L1264.3400000000001 1080z" fill="url(#SvgjsLinearGradient1025)"></path><path d="M1949 1080L869 0L350 0L1430 1080z" fill="url(#SvgjsLinearGradient1026)"></path><path d="M1298.1599999999999 1080L218.15999999999985 0L-528.8400000000001 0L551.1599999999999 1080z" fill="url(#SvgjsLinearGradient1026)"></path><path d="M1506.3233243816826 1080L2048 538.3233243816826L2048 1080z" fill="url(#SvgjsLinearGradient1025)"></path><path d="M0 1080L541.6766756183174 1080L 0 538.3233243816826z" fill="url(#SvgjsLinearGradient1026)"></path></g><defs><mask id="SvgjsMask1024"><rect width="2048" height="1080" fill="#ffffff"></rect></mask><linearGradient x1="0%" y1="100%" x2="100%" y2="0%" id="SvgjsLinearGradient1025"><stop stop-color="rgba(15, 70, 185, 0.2)" offset="0"></stop><stop stop-opacity="0" stop-color="rgba(15, 70, 185, 0.2)" offset="0.66"></stop></linearGradient><linearGradient x1="100%" y1="100%" x2="0%" y2="0%" id="SvgjsLinearGradient1026"><stop stop-color="rgba(15, 70, 185, 0.2)" offset="0"></stop><stop stop-opacity="0" stop-color="rgba(15, 70, 185, 0.2)" offset="0.66"></stop></linearGradient></defs></svg>